<svg width="80" height="80" viewBox="0 0 80 80" fill="none" xmlns="http://www.w3.org/2000/svg">
<g clip-path="url(#clip0_3635_54042)">
<path d="M19.2483 19.3052C18.9365 19.3052 18.6814 19.3052 18.4262 19.3052C14.5141 19.3052 10.5736 19.2485 6.66148 19.3052C2.63596 19.3619 -0.170574 16.1302 -0.00048129 12.6149C0.0845651 10.5171 -0.000481292 8.41931 0.0278675 6.32151C0.0562163 2.80627 2.74935 0.0564461 6.23625 0.0280975C8.5325 -0.000251234 10.8288 -0.000251234 13.125 0.0280975C16.4702 0.0564461 19.2483 2.74957 19.2767 6.09472C19.3334 10.3754 19.305 14.6277 19.305 18.9083C19.305 18.9934 19.2767 19.0784 19.2483 19.3052ZM11.1406 16.527C12.7281 16.527 14.3157 16.4987 15.8748 16.527C16.4135 16.527 16.5552 16.3853 16.5552 15.8467C16.5269 12.785 16.5552 9.695 16.5269 6.63334C16.4985 4.3371 14.8543 2.72122 12.558 2.72122C10.602 2.69287 8.6459 2.69287 6.68983 2.72122C4.36523 2.74957 2.721 4.3938 2.721 6.71839C2.721 8.6461 2.721 10.6022 2.721 12.5299C2.721 14.8545 4.36523 16.4987 6.66148 16.527C8.16397 16.5554 9.66645 16.527 11.1406 16.527Z" fill="currentColor"/>
<path d="M79.9431 19.3052C79.6596 19.3052 79.4045 19.3052 79.1777 19.3052C75.2372 19.3052 71.2968 19.3052 67.3563 19.3052C63.4158 19.3052 60.7227 16.6121 60.7227 12.6716C60.7227 10.5738 60.7227 8.47598 60.7227 6.37818C60.7227 2.83459 63.4725 0.0847665 66.9877 0.0564178C69.2556 0.0280691 71.5235 0.0280691 73.7914 0.0564178C77.1649 0.0847665 79.9431 2.74954 79.9998 6.09469C80.0849 10.3753 80.0282 14.656 80.0282 18.9083C79.9998 18.9933 79.9715 19.1067 79.9431 19.3052ZM77.2216 16.4987C77.25 16.3002 77.2783 16.1585 77.2783 16.0167C77.2783 12.87 77.3067 9.75167 77.2783 6.60496C77.25 4.33707 75.5774 2.72119 73.2812 2.72119C71.3818 2.72119 69.4541 2.72119 67.5547 2.72119C65.0884 2.72119 63.4725 4.33707 63.4725 6.80341C63.4725 8.67442 63.4725 10.5454 63.4725 12.3881C63.4725 14.9678 65.0317 16.527 67.6114 16.527C70.5597 16.527 73.508 16.527 76.4562 16.527C76.683 16.5554 76.9382 16.527 77.2216 16.4987Z" fill="currentColor"/>
<path d="M19.25 79.9997C18.9665 79.9997 18.7114 79.9997 18.4562 79.9997C14.5441 79.9997 10.6036 79.943 6.69149 79.9997C2.69432 80.0564 -0.140563 76.8813 0.00118079 73.3094C0.0862271 71.2116 0.00118079 69.1138 0.0295296 67.016C0.0578784 63.4441 2.80771 60.7226 6.37966 60.6942C8.61921 60.6942 10.8588 60.6659 13.0983 60.6942C16.4435 60.7226 19.2217 63.4157 19.2784 66.7609C19.3351 71.0699 19.3067 75.3505 19.2784 79.6595C19.3067 79.7162 19.2784 79.8013 19.25 79.9997ZM16.5852 71.8636C16.5852 70.3895 16.5852 68.887 16.5852 67.4129C16.5569 65.0883 14.941 63.4441 12.588 63.4441C10.6603 63.4441 8.70426 63.4441 6.77654 63.4441C4.36689 63.4441 2.75101 65.0883 2.72266 67.4979C2.72266 69.3689 2.72266 71.2399 2.72266 73.0826C2.72266 75.634 4.33854 77.2499 6.88993 77.2499C9.89491 77.2499 12.8999 77.2499 15.8765 77.2782C16.4718 77.2782 16.5852 77.0798 16.5852 76.5412C16.5569 74.982 16.5852 73.4228 16.5852 71.8636Z" fill="currentColor"/>
<path d="M60.6927 66.3926C62.8755 66.3926 65.0867 66.3926 67.2696 66.3926C68.2335 66.3926 68.7721 66.8462 68.7721 67.6116C68.7437 68.3486 68.2335 68.7739 67.2979 68.7739C62.8755 68.7739 58.4815 68.7739 54.0591 68.7739C53.1519 68.7739 52.6133 68.3203 52.6133 67.5832C52.6133 66.8462 53.1236 66.3926 54.0591 66.3926C56.2703 66.3926 58.4815 66.3926 60.6927 66.3926Z" fill="currentColor"/>
<path d="M39.884 34.1602C40.6211 34.1885 41.103 34.4436 41.3015 35.0673C41.4999 35.691 41.2448 36.2013 40.7062 36.5131C37.6161 38.1857 34.5261 39.8582 31.4361 41.5025C30.7274 41.8993 29.8769 41.5875 29.5651 40.9355C29.2533 40.2835 29.48 39.6598 30.2455 39.2346C33.2221 37.6187 36.2271 36.0028 39.2037 34.3869C39.4305 34.2736 39.714 34.2169 39.884 34.1602Z" fill="currentColor"/>
<path d="M49.9509 39.9706C49.8091 40.1407 49.6107 40.5942 49.2705 40.7927C46.2088 42.4936 43.1472 44.1378 40.0571 45.782C39.3201 46.1789 38.5263 45.9238 38.1578 45.2718C37.7892 44.6198 38.0444 43.9677 38.8381 43.5142C41.8148 41.8983 44.8197 40.2824 47.7964 38.6665C48.8453 38.0996 49.9509 38.6665 49.9509 39.9706Z" fill="currentColor"/>
<path d="M67.5536 32.9125C65.796 32.9125 64.0667 32.9125 62.3091 32.9125C61.4303 32.9125 60.8633 32.4306 60.8633 31.7219C60.8633 31.0132 61.4303 30.5312 62.3091 30.5312C65.8243 30.5312 69.3396 30.5312 72.8548 30.5312C73.7336 30.5312 74.2439 30.9848 74.2723 31.6935C74.3006 32.4023 73.7336 32.9125 72.8548 32.9125C71.0972 32.9125 69.3396 32.9125 67.5536 32.9125Z" fill="currentColor"/>
<path d="M62.0008 57.7182C60.2715 57.7182 58.5423 57.7182 56.8413 57.7182C55.9342 57.7182 55.3955 57.2646 55.3672 56.5559C55.3672 55.8472 55.9342 55.3369 56.813 55.3369C60.3282 55.3369 63.8435 55.3369 67.3587 55.3369C68.2375 55.3369 68.8045 55.8472 68.7762 56.5559C68.7478 57.293 68.2375 57.7182 67.302 57.7182C65.5444 57.7466 63.7584 57.7466 62.0008 57.7182Z" fill="currentColor"/>
<path d="M62.0556 25.0039C63.7848 25.0039 65.5141 25.0039 67.2151 25.0039C68.2073 25.0039 68.7459 25.4291 68.7459 26.1946C68.7459 26.96 68.2073 27.4135 67.2434 27.4135C63.7848 27.4135 60.2979 27.4135 56.8394 27.4135C55.9039 27.4135 55.3086 26.9316 55.3369 26.1946C55.3369 25.4575 55.9039 25.0323 56.8677 25.0323C58.6254 25.0039 60.3546 25.0039 62.0556 25.0039Z" fill="currentColor"/>
<path d="M30.8723 46.152C30.0502 46.1236 29.5967 45.7835 29.4266 45.1314C29.2565 44.4511 29.6534 43.9975 30.192 43.714C32.5449 42.4383 34.8695 41.191 37.2225 39.9153C37.5627 39.7452 37.8745 39.5467 38.2147 39.405C38.9518 39.0932 39.7172 39.405 40.0007 40.057C40.2841 40.6807 40.0574 41.3044 39.3203 41.7012C36.7405 43.1187 34.1325 44.5078 31.5527 45.8968C31.3259 46.0102 31.0141 46.0953 30.8723 46.152Z" fill="currentColor"/>
<path d="M49.1291 33.6211C49.8661 33.7061 50.3481 33.9613 50.5182 34.5849C50.6882 35.1803 50.4898 35.6905 49.9512 35.974C47.4565 37.3348 44.9334 38.6955 42.4104 40.0279C41.6733 40.3964 40.8512 40.0846 40.5394 39.4326C40.2275 38.7806 40.4827 38.1569 41.2765 37.76C43.6294 36.4843 46.0107 35.2086 48.392 33.9329C48.6188 33.7628 48.9306 33.7061 49.1291 33.6211Z" fill="currentColor"/>
<path d="M63.3891 71.8916C64.7214 71.8916 66.0255 71.8916 67.3579 71.8916C68.2084 71.8916 68.747 72.3452 68.7753 73.0539C68.8037 73.791 68.2367 74.2729 67.3579 74.3012C64.7498 74.3012 62.1134 74.3012 59.5053 74.3012C58.6548 74.3012 58.1445 73.8193 58.1445 73.1106C58.1445 72.3735 58.6548 71.9199 59.5053 71.9199C60.8093 71.8916 62.1134 71.8916 63.3891 71.8916Z" fill="currentColor"/>
<path d="M66.1938 79.8286C64.9181 79.8286 63.6424 79.8286 62.3667 79.8286C61.4312 79.8286 60.8359 79.3183 60.8643 78.5812C60.8926 77.8725 61.4312 77.4189 62.3384 77.4189C64.9181 77.4189 67.4979 77.4189 70.0493 77.4189C70.9564 77.4189 71.495 77.8442 71.495 78.6096C71.495 79.3467 70.9564 79.8286 70.0493 79.8286C68.8019 79.8286 67.4979 79.8286 66.1938 79.8286Z" fill="currentColor"/>
<path d="M19.2483 19.3052C18.9365 19.3052 18.6814 19.3052 18.4262 19.3052C14.5141 19.3052 10.5736 19.2485 6.66148 19.3052C2.63596 19.3619 -0.170574 16.1302 -0.00048129 12.6149C0.0845651 10.5171 -0.000481292 8.41931 0.0278675 6.32151C0.0562163 2.80627 2.74935 0.0564461 6.23625 0.0280975C8.5325 -0.000251234 10.8288 -0.000251234 13.125 0.0280975C16.4702 0.0564461 19.2483 2.74957 19.2767 6.09472C19.3334 10.3754 19.305 14.6277 19.305 18.9083C19.305 18.9934 19.2767 19.0784 19.2483 19.3052ZM11.1406 16.527C12.7281 16.527 14.3157 16.4987 15.8748 16.527C16.4135 16.527 16.5552 16.3853 16.5552 15.8467C16.5269 12.785 16.5552 9.695 16.5269 6.63334C16.4985 4.3371 14.8543 2.72122 12.558 2.72122C10.602 2.69287 8.6459 2.69287 6.68983 2.72122C4.36523 2.74957 2.721 4.3938 2.721 6.71839C2.721 8.6461 2.721 10.6022 2.721 12.5299C2.721 14.8545 4.36523 16.4987 6.66148 16.527C8.16397 16.5554 9.66645 16.527 11.1406 16.527Z" fill="currentColor"/>
<path d="M79.9431 19.3052C79.6596 19.3052 79.4045 19.3052 79.1777 19.3052C75.2372 19.3052 71.2968 19.3052 67.3563 19.3052C63.4158 19.3052 60.7227 16.6121 60.7227 12.6716C60.7227 10.5738 60.7227 8.47598 60.7227 6.37818C60.7227 2.83459 63.4725 0.0847665 66.9877 0.0564178C69.2556 0.0280691 71.5235 0.0280691 73.7914 0.0564178C77.1649 0.0847665 79.9431 2.74954 79.9998 6.09469C80.0849 10.3753 80.0282 14.656 80.0282 18.9083C79.9998 18.9933 79.9715 19.1067 79.9431 19.3052ZM77.2216 16.4987C77.25 16.3002 77.2783 16.1585 77.2783 16.0167C77.2783 12.87 77.3067 9.75167 77.2783 6.60496C77.25 4.33707 75.5774 2.72119 73.2812 2.72119C71.3818 2.72119 69.4541 2.72119 67.5547 2.72119C65.0884 2.72119 63.4725 4.33707 63.4725 6.80341C63.4725 8.67442 63.4725 10.5454 63.4725 12.3881C63.4725 14.9678 65.0317 16.527 67.6114 16.527C70.5597 16.527 73.508 16.527 76.4562 16.527C76.683 16.5554 76.9382 16.527 77.2216 16.4987Z" fill="currentColor"/>
<path d="M19.25 79.9997C18.9665 79.9997 18.7114 79.9997 18.4562 79.9997C14.5441 79.9997 10.6036 79.943 6.69149 79.9997C2.69432 80.0564 -0.140563 76.8813 0.00118079 73.3094C0.0862271 71.2116 0.00118079 69.1138 0.0295296 67.016C0.0578784 63.4441 2.80771 60.7226 6.37966 60.6942C8.61921 60.6942 10.8588 60.6659 13.0983 60.6942C16.4435 60.7226 19.2217 63.4157 19.2784 66.7609C19.3351 71.0699 19.3067 75.3505 19.2784 79.6595C19.3067 79.7162 19.2784 79.8013 19.25 79.9997ZM16.5852 71.8636C16.5852 70.3895 16.5852 68.887 16.5852 67.4129C16.5569 65.0883 14.941 63.4441 12.588 63.4441C10.6603 63.4441 8.70426 63.4441 6.77654 63.4441C4.36689 63.4441 2.75101 65.0883 2.72266 67.4979C2.72266 69.3689 2.72266 71.2399 2.72266 73.0826C2.72266 75.634 4.33854 77.2499 6.88993 77.2499C9.89491 77.2499 12.8999 77.2499 15.8765 77.2782C16.4718 77.2782 16.5852 77.0798 16.5852 76.5412C16.5569 74.982 16.5852 73.4228 16.5852 71.8636Z" fill="currentColor"/>
<path d="M60.6927 66.3926C62.8755 66.3926 65.0867 66.3926 67.2696 66.3926C68.2335 66.3926 68.7721 66.8462 68.7721 67.6116C68.7437 68.3486 68.2335 68.7739 67.2979 68.7739C62.8755 68.7739 58.4815 68.7739 54.0591 68.7739C53.1519 68.7739 52.6133 68.3203 52.6133 67.5832C52.6133 66.8462 53.1236 66.3926 54.0591 66.3926C56.2703 66.3926 58.4815 66.3926 60.6927 66.3926Z" fill="currentColor"/>
<path d="M39.884 34.1602C40.6211 34.1885 41.103 34.4436 41.3015 35.0673C41.4999 35.691 41.2448 36.2013 40.7062 36.5131C37.6161 38.1857 34.5261 39.8582 31.4361 41.5025C30.7274 41.8993 29.8769 41.5875 29.5651 40.9355C29.2533 40.2835 29.48 39.6598 30.2455 39.2346C33.2221 37.6187 36.2271 36.0028 39.2037 34.3869C39.4305 34.2736 39.714 34.2169 39.884 34.1602Z" fill="currentColor"/>
<path d="M49.9509 39.9706C49.8091 40.1407 49.6107 40.5942 49.2705 40.7927C46.2088 42.4936 43.1472 44.1378 40.0571 45.782C39.3201 46.1789 38.5263 45.9238 38.1578 45.2718C37.7892 44.6198 38.0444 43.9677 38.8381 43.5142C41.8148 41.8983 44.8197 40.2824 47.7964 38.6665C48.8453 38.0996 49.9509 38.6665 49.9509 39.9706Z" fill="currentColor"/>
<path d="M67.5536 32.9125C65.796 32.9125 64.0667 32.9125 62.3091 32.9125C61.4303 32.9125 60.8633 32.4306 60.8633 31.7219C60.8633 31.0132 61.4303 30.5312 62.3091 30.5312C65.8243 30.5312 69.3396 30.5312 72.8548 30.5312C73.7336 30.5312 74.2439 30.9848 74.2723 31.6935C74.3006 32.4023 73.7336 32.9125 72.8548 32.9125C71.0972 32.9125 69.3396 32.9125 67.5536 32.9125Z" fill="currentColor"/>
<path d="M62.0008 57.7182C60.2715 57.7182 58.5423 57.7182 56.8413 57.7182C55.9342 57.7182 55.3955 57.2646 55.3672 56.5559C55.3672 55.8472 55.9342 55.3369 56.813 55.3369C60.3282 55.3369 63.8435 55.3369 67.3587 55.3369C68.2375 55.3369 68.8045 55.8472 68.7762 56.5559C68.7478 57.293 68.2375 57.7182 67.302 57.7182C65.5444 57.7466 63.7584 57.7466 62.0008 57.7182Z" fill="currentColor"/>
<path d="M62.0556 25.0039C63.7848 25.0039 65.5141 25.0039 67.2151 25.0039C68.2073 25.0039 68.7459 25.4291 68.7459 26.1946C68.7459 26.96 68.2073 27.4135 67.2434 27.4135C63.7848 27.4135 60.2979 27.4135 56.8394 27.4135C55.9039 27.4135 55.3086 26.9316 55.3369 26.1946C55.3369 25.4575 55.9039 25.0323 56.8677 25.0323C58.6254 25.0039 60.3546 25.0039 62.0556 25.0039Z" fill="currentColor"/>
<path d="M30.8723 46.152C30.0502 46.1236 29.5967 45.7835 29.4266 45.1314C29.2565 44.4511 29.6534 43.9975 30.192 43.714C32.5449 42.4383 34.8695 41.191 37.2225 39.9153C37.5627 39.7452 37.8745 39.5467 38.2147 39.405C38.9518 39.0932 39.7172 39.405 40.0007 40.057C40.2841 40.6807 40.0574 41.3044 39.3203 41.7012C36.7405 43.1187 34.1325 44.5078 31.5527 45.8968C31.3259 46.0102 31.0141 46.0953 30.8723 46.152Z" fill="currentColor"/>
<path d="M49.1291 33.6211C49.8661 33.7061 50.3481 33.9613 50.5182 34.5849C50.6882 35.1803 50.4898 35.6905 49.9512 35.974C47.4565 37.3348 44.9334 38.6955 42.4104 40.0279C41.6733 40.3964 40.8512 40.0846 40.5394 39.4326C40.2275 38.7806 40.4827 38.1569 41.2765 37.76C43.6294 36.4843 46.0107 35.2086 48.392 33.9329C48.6188 33.7628 48.9306 33.7061 49.1291 33.6211Z" fill="currentColor"/>
<path d="M63.3891 71.8916C64.7214 71.8916 66.0255 71.8916 67.3579 71.8916C68.2084 71.8916 68.747 72.3452 68.7753 73.0539C68.8037 73.791 68.2367 74.2729 67.3579 74.3012C64.7498 74.3012 62.1134 74.3012 59.5053 74.3012C58.6548 74.3012 58.1445 73.8193 58.1445 73.1106C58.1445 72.3735 58.6548 71.9199 59.5053 71.9199C60.8093 71.8916 62.1134 71.8916 63.3891 71.8916Z" fill="currentColor"/>
<path d="M66.1938 79.8286C64.9181 79.8286 63.6424 79.8286 62.3667 79.8286C61.4312 79.8286 60.8359 79.3183 60.8643 78.5812C60.8926 77.8725 61.4312 77.4189 62.3384 77.4189C64.9181 77.4189 67.4979 77.4189 70.0493 77.4189C70.9564 77.4189 71.495 77.8442 71.495 78.6096C71.495 79.3467 70.9564 79.8286 70.0493 79.8286C68.8019 79.8286 67.4979 79.8286 66.1938 79.8286Z" fill="currentColor"/>
<path d="M71.6947 63.2465C70.3907 63.2465 69.0867 63.2465 67.811 63.2465C66.9888 63.2465 66.4219 62.7646 66.4219 62.0842C66.4219 61.3472 66.9889 60.8652 67.8393 60.8652C70.4474 60.8652 73.0271 60.8652 75.6352 60.8652C76.5424 60.8652 77.0527 61.3188 77.0527 62.0842C77.0527 62.8496 76.5424 63.2749 75.6069 63.2749C74.2745 63.2465 72.9988 63.2465 71.6947 63.2465Z" fill="currentColor"/>
<path d="M63.5308 41.5595C64.8065 41.5595 66.0822 41.5595 67.3579 41.5595C68.2367 41.5595 68.747 42.0131 68.7753 42.7218C68.8037 43.4588 68.265 43.9408 67.3579 43.9408C64.7498 43.9408 62.1134 43.9408 59.5053 43.9408C58.6548 43.9408 58.1445 43.4588 58.1445 42.7501C58.1445 42.0131 58.6548 41.5595 59.5053 41.5595C60.866 41.5311 62.1984 41.5595 63.5308 41.5595Z" fill="currentColor"/>
<path d="M11.0542 30.5313C12.3583 30.5313 13.6623 30.5313 14.938 30.5313C15.8168 30.5313 16.3271 30.9565 16.3271 31.6936C16.3271 32.4306 15.8168 32.9126 14.9097 32.9126C12.3016 32.9126 9.72185 32.9126 7.11376 32.9126C6.23494 32.9126 5.66797 32.4306 5.66797 31.6936C5.66797 30.9849 6.23494 30.5313 7.14211 30.5029C8.4745 30.5313 9.77854 30.5313 11.0542 30.5313Z" fill="currentColor"/>
<path d="M33.1676 0.169922C34.4717 0.169922 35.7757 0.169922 37.0514 0.169922C37.8735 0.169922 38.4405 0.65185 38.4405 1.36057C38.4405 2.06928 37.9019 2.55121 37.0514 2.55121C34.4433 2.55121 31.8069 2.55121 29.1988 2.55121C28.2916 2.55121 27.7814 2.09763 27.8097 1.30387C27.8381 0.595152 28.32 0.169922 29.1988 0.169922C30.5312 0.169922 31.8352 0.169922 33.1676 0.169922Z" fill="currentColor"/>
<path d="M35.4363 34.7842C34.6425 34.7842 34.1322 34.4724 33.9621 33.8487C33.792 33.225 34.0472 32.7431 34.6142 32.4313C36.4001 31.4674 38.1577 30.5036 39.9721 29.5397C40.7091 29.1428 41.5029 29.398 41.8714 30.0783C42.2116 30.7304 41.9848 31.3824 41.1627 31.8076C39.4618 32.7431 37.7609 33.6503 36.0599 34.5574C35.8048 34.6992 35.5497 34.7559 35.4363 34.7842Z" fill="currentColor"/>
<path d="M44.336 45.1318C45.0164 45.1885 45.4983 45.4437 45.6967 46.0673C45.8952 46.6627 45.6684 47.1729 45.1581 47.4564C43.3154 48.477 41.5011 49.4692 39.6301 50.433C38.9214 50.8016 38.1276 50.4614 37.8158 49.8094C37.5323 49.1857 37.7307 48.5337 38.4394 48.1651C40.1687 47.2013 41.9263 46.2941 43.6556 45.3586C43.8824 45.2169 44.1659 45.1885 44.336 45.1318Z" fill="currentColor"/>
<path d="M75.835 43.9399C74.9845 43.9399 74.1341 43.9399 73.2836 43.9399C72.4332 43.9399 71.8945 43.458 71.8945 42.7492C71.8945 42.0405 72.4332 41.5586 73.2836 41.5586C75.0129 41.5586 76.7422 41.5586 78.4431 41.5586C79.2652 41.5586 79.8038 42.0689 79.7755 42.7776C79.7471 43.458 79.2085 43.9115 78.4148 43.9399C77.5926 43.9682 76.7138 43.9399 75.835 43.9399Z" fill="currentColor"/>
<path d="M4.16616 41.5595C5.01663 41.5595 5.86709 41.5595 6.71756 41.5595C7.56802 41.5878 8.10665 42.0414 8.0783 42.7501C8.0783 43.4588 7.53967 43.9408 6.68921 43.9408C4.98828 43.9408 3.28735 43.9408 1.58642 43.9408C0.735961 43.9408 0.197334 43.4872 0.168985 42.7785C0.140636 42.0414 0.707612 41.5595 1.58642 41.5595C2.46524 41.5311 3.3157 41.5595 4.16616 41.5595Z" fill="currentColor"/>
<path d="M59.2482 71.5227C58.3694 71.5227 57.4906 71.5227 56.6401 71.5227C55.903 71.5227 55.3928 71.0407 55.3644 70.3887C55.3361 69.7367 55.8463 69.1697 56.5551 69.1414C58.3977 69.113 60.2404 69.113 62.0831 69.1414C62.7918 69.1414 63.3021 69.7367 63.2454 70.3887C63.217 71.0407 62.7351 71.4943 62.0264 71.4943C61.0909 71.5227 60.1837 71.5227 59.2482 71.5227Z" fill="currentColor"/>
<path d="M45.5285 71.5236C44.6214 71.5236 43.7426 71.5236 42.8354 71.5236C42.07 71.5236 41.5881 71.0417 41.5597 70.3897C41.5314 69.7377 42.0416 69.1707 42.7504 69.1707C44.593 69.1423 46.4357 69.1423 48.2784 69.1707C48.9588 69.1707 49.469 69.766 49.4407 70.3613C49.4407 71.0133 48.9304 71.5236 48.1933 71.5236C47.3429 71.5236 46.4357 71.5236 45.5285 71.5236Z" fill="currentColor"/>
<path d="M53.8038 21.885C52.925 21.885 52.0461 21.885 51.1957 21.885C50.4019 21.885 49.8633 21.3747 49.8633 20.7227C49.8633 20.0423 50.4019 19.532 51.1673 19.5037C52.925 19.4753 54.7109 19.4753 56.4685 19.5037C57.2623 19.5037 57.7726 20.014 57.7442 20.7227C57.7442 21.403 57.234 21.885 56.4119 21.885C55.533 21.885 54.6542 21.885 53.8038 21.885Z" fill="currentColor"/>
<path d="M48.2217 71.8916C49.1289 71.8916 50.0077 71.8916 50.9149 71.8916C51.7086 71.92 52.2189 72.3735 52.1906 73.0822C52.1906 73.7626 51.6803 74.2729 50.8865 74.2729C49.1289 74.3012 47.3996 74.3012 45.642 74.2729C44.8482 74.2729 44.3096 73.791 44.3096 73.1106C44.2813 72.4019 44.8482 71.8916 45.6704 71.8916C46.5208 71.8916 47.3713 71.8916 48.2217 71.8916Z" fill="currentColor"/>
<path d="M26.1934 16.3567C25.3146 16.3567 24.4358 16.3567 23.5853 16.3567C22.7915 16.3567 22.2812 15.8747 22.2812 15.166C22.2812 14.4856 22.7915 13.9754 23.5853 13.9754C25.3429 13.947 27.0722 13.947 28.8298 13.9754C29.6803 13.9754 30.1906 14.4573 30.1622 15.1944C30.1339 15.9031 29.6519 16.3283 28.8298 16.3567C27.9227 16.3567 27.0722 16.3567 26.1934 16.3567Z" fill="currentColor"/>
<path d="M17.9465 46.6906C17.0676 46.6906 16.1888 46.6906 15.3384 46.6906C14.5446 46.6906 14.006 46.2371 13.9776 45.5567C13.9493 44.8763 14.4879 44.3377 15.3384 44.3093C17.096 44.281 18.8253 44.281 20.5829 44.3093C21.3767 44.3093 21.8869 44.8196 21.8869 45.5C21.8869 46.2371 21.3767 46.6906 20.5262 46.6906C19.6474 46.6906 18.7969 46.6906 17.9465 46.6906Z" fill="currentColor"/>
<path d="M20.666 41.1633C19.7872 41.1633 18.9084 41.1633 18.058 41.1633C17.2642 41.1633 16.7539 40.6813 16.7539 40.001C16.7539 39.3206 17.2075 38.8387 17.9729 38.8103C19.7872 38.782 21.6015 38.782 23.4159 38.8103C24.1813 38.8103 24.6349 39.3206 24.6065 40.0293C24.5782 40.7097 24.0962 41.1633 23.3592 41.1633C22.452 41.1916 21.5732 41.1633 20.666 41.1633Z" fill="currentColor"/>
<path d="M75.9445 22.2529C76.8233 22.2529 77.7021 22.2529 78.5526 22.2529C79.318 22.2813 79.7999 22.7349 79.7999 23.4152C79.7999 24.0672 79.318 24.6059 78.5526 24.6059C76.7383 24.6342 74.9239 24.6342 73.1096 24.6059C72.3726 24.6059 71.8906 24.0672 71.8906 23.3869C71.919 22.7349 72.4009 22.2529 73.1663 22.2529C74.1018 22.2529 75.009 22.2529 75.9445 22.2529Z" fill="currentColor"/>
<path d="M9.69249 22.2529C10.5713 22.2529 11.4501 22.2529 12.3006 22.2529C13.0943 22.2529 13.6046 22.7632 13.6046 23.4436C13.6046 24.0956 13.0943 24.6059 12.3289 24.6059C10.543 24.6342 8.72863 24.6342 6.94266 24.6059C6.17724 24.6059 5.69531 24.0956 5.69531 23.4436C5.69531 22.7632 6.20559 22.2529 6.99936 22.2529C7.90652 22.2529 8.78533 22.2529 9.69249 22.2529Z" fill="currentColor"/>
<path d="M53.7764 60.468C52.8693 60.468 51.9904 60.468 51.0833 60.468C50.3179 60.4396 49.8359 59.986 49.8359 59.3057C49.8359 58.6536 50.3179 58.115 51.0549 58.115C52.8693 58.0867 54.6836 58.0867 56.4979 58.115C57.235 58.115 57.7169 58.6536 57.7169 59.3057C57.7169 59.986 57.235 60.4396 56.4696 60.4396C55.5907 60.4963 54.6836 60.468 53.7764 60.468Z" fill="currentColor"/>
<path d="M15.135 30.1349C14.2562 30.1349 13.3773 30.1349 12.5269 30.1349C11.7615 30.1066 11.2795 29.6814 11.2512 29.001C11.2228 28.2923 11.7048 27.782 12.4985 27.782C14.2845 27.7537 16.0705 27.7537 17.8848 27.782C18.6219 27.782 19.1321 28.2923 19.1321 28.9443C19.1321 29.6247 18.6219 30.1066 17.8281 30.1349C16.9209 30.1349 16.0138 30.1349 15.135 30.1349Z" fill="currentColor"/>
<path d="M42.7787 60.468C41.8715 60.468 40.9927 60.468 40.0855 60.468C39.2918 60.468 38.8382 60.0427 38.8098 59.334C38.7815 58.5969 39.2351 58.115 40.0572 58.115C41.8432 58.0867 43.6291 58.0867 45.4435 58.115C46.2372 58.115 46.7192 58.6536 46.6908 59.3624C46.6625 60.0427 46.1805 60.468 45.4151 60.468C44.5363 60.4963 43.6575 60.468 42.7787 60.468Z" fill="currentColor"/>
<path d="M62.0567 24.6352C61.1778 24.6352 60.299 24.6635 59.4486 24.6352C58.6265 24.6068 58.1445 24.1532 58.1445 23.4445C58.1445 22.7358 58.6265 22.2822 59.4486 22.2822C61.2062 22.2822 62.9922 22.2822 64.7498 22.2822C65.5152 22.2822 65.9971 22.7358 66.0255 23.4162C66.0538 24.0965 65.5436 24.6068 64.7498 24.6352C63.8426 24.6352 62.9355 24.6352 62.0567 24.6352Z" fill="currentColor"/>
<path d="M24.8336 74.302C24.4084 74.302 23.9832 74.302 23.5579 74.302C22.7642 74.2736 22.2539 73.7917 22.2539 73.1113C22.2539 72.4026 22.7642 71.9207 23.5296 71.9207C24.3801 71.8923 25.2305 71.8923 26.081 71.9207C26.8748 71.949 27.385 72.431 27.385 73.1113C27.385 73.7917 26.8748 74.2736 26.081 74.3303C25.6841 74.302 25.2589 74.302 24.8336 74.302Z" fill="currentColor"/>
<path d="M49.6386 10.8281C49.1567 10.8281 48.7031 10.8564 48.2211 10.8281C47.5691 10.7997 47.1155 10.3178 47.0872 9.72246C47.0588 9.07044 47.5124 8.50347 48.1644 8.47512C49.1283 8.41842 50.0922 8.44677 51.056 8.47512C51.7364 8.50347 52.19 9.01374 52.19 9.66576C52.19 10.3178 51.7364 10.7997 51.0277 10.8281C50.5741 10.8564 50.1205 10.8281 49.6386 10.8281Z" fill="currentColor"/>
<path d="M38.6649 8.44717C39.1185 8.44717 39.5721 8.41882 39.9973 8.44717C40.706 8.47552 41.1879 9.01414 41.1596 9.69451C41.1312 10.3465 40.706 10.8001 39.969 10.8285C39.0618 10.8568 38.1263 10.8568 37.2191 10.8285C36.5387 10.8001 36.0568 10.3182 36.0285 9.66616C36.0001 9.01414 36.5104 8.47552 37.2191 8.44717C37.7294 8.41882 38.183 8.44717 38.6649 8.44717Z" fill="currentColor"/>
<path d="M77.2506 27.384C76.797 27.384 76.3434 27.4123 75.9182 27.384C75.1811 27.3556 74.6992 26.8737 74.6992 26.1934C74.6992 25.513 75.1812 25.0027 75.8899 25.0027C76.7687 24.9744 77.6758 24.9744 78.5547 25.0027C79.2917 25.0311 79.802 25.513 79.802 26.165C79.802 26.8454 79.2634 27.3556 78.5263 27.384C78.1011 27.4123 77.6758 27.384 77.2506 27.384Z" fill="currentColor"/>
<path d="M49.6672 77.4208C50.1208 77.4208 50.5744 77.3925 50.9996 77.4208C51.68 77.4492 52.1335 77.8744 52.1902 78.4697C52.2469 79.1217 51.8501 79.717 51.1697 79.7737C50.1491 79.8304 49.1002 79.8304 48.0797 79.7737C47.4276 79.717 47.0591 79.1501 47.0875 78.5264C47.1442 77.9027 47.5694 77.4775 48.2498 77.4208C48.3065 77.4208 48.3348 77.4208 48.3915 77.4208C48.8167 77.4208 49.242 77.4208 49.6672 77.4208Z" fill="currentColor"/>
<path d="M74.5283 71.8915C74.9819 71.8915 75.4355 71.8632 75.8607 71.8915C76.5411 71.9199 76.9947 72.3734 77.023 72.9688C77.0514 73.6491 76.6545 74.2161 75.9741 74.2444C74.9536 74.3011 73.9613 74.3011 72.9408 74.2444C72.3171 74.2161 71.8635 73.6208 71.8919 73.0255C71.9202 72.4301 72.4022 71.9482 73.0258 71.8915C73.0825 71.8915 73.1109 71.8915 73.1676 71.8915C73.6212 71.8915 74.0747 71.8915 74.5283 71.8915Z" fill="currentColor"/>
<path d="M38.6383 74.302C38.1848 74.302 37.7312 74.3303 37.3059 74.302C36.5689 74.2736 36.0869 73.7633 36.0586 73.1113C36.0586 72.431 36.5972 71.9207 37.3626 71.9207C38.2415 71.8923 39.0919 71.8923 39.9707 71.9207C40.7078 71.949 41.1897 72.431 41.1897 73.1113C41.1897 73.7917 40.7361 74.2736 39.9707 74.3303C39.5171 74.302 39.0919 74.302 38.6383 74.302Z" fill="currentColor"/>
<path d="M41.3605 77.0234C40.8786 77.0234 40.425 77.0517 39.9431 77.0234C39.291 76.995 38.8942 76.5414 38.8375 75.9461C38.8091 75.2941 39.1776 74.7555 39.8297 74.6988C40.8502 74.6421 41.8991 74.6421 42.948 74.6988C43.5434 74.7271 43.9686 75.2941 43.9686 75.8611C43.9686 76.4564 43.4867 76.9667 42.863 77.0234C42.3527 77.0517 41.8424 77.0234 41.3605 77.0234Z" fill="currentColor"/>
<path d="M46.9157 5.30074C46.4337 5.30074 45.9802 5.32909 45.4982 5.30074C44.7895 5.24404 44.3359 4.76211 44.3359 4.13844C44.3359 3.54312 44.7895 3.00449 45.4415 2.9478C46.4338 2.8911 47.426 2.8911 48.4182 2.9478C49.0418 2.97615 49.5238 3.57147 49.4954 4.13844C49.4671 4.73376 49.0135 5.24404 48.3615 5.27239C47.8795 5.32909 47.3976 5.30074 46.9157 5.30074Z" fill="currentColor"/>
<path d="M77.2481 57.7177C76.7662 57.7177 76.3126 57.7461 75.8307 57.7177C75.1787 57.661 74.7251 57.2075 74.6967 56.5838C74.6684 55.9601 75.0653 55.3931 75.7456 55.3648C76.7662 55.3081 77.7868 55.3081 78.779 55.3648C79.431 55.3931 79.8562 55.9885 79.8279 56.5838C79.7995 57.1791 79.3176 57.661 78.6656 57.7177C78.1836 57.7461 77.7017 57.7177 77.2481 57.7177Z" fill="currentColor"/>
<path d="M68.9434 71.4955C68.4615 71.4955 68.0079 71.5238 67.526 71.4955C66.874 71.4671 66.4204 70.9852 66.3921 70.3899C66.3637 69.8229 66.7606 69.2276 67.3559 69.1709C68.4332 69.1142 69.5104 69.0858 70.5877 69.1709C71.2113 69.2276 71.6082 69.8512 71.4948 70.4749C71.3814 71.1269 71.0129 71.4671 70.3609 71.4955C69.879 71.5238 69.4254 71.5238 68.9434 71.4955Z" fill="currentColor"/>
<path d="M30.3045 79.8303C29.851 79.8303 29.3974 79.8586 28.9721 79.8303C28.2351 79.7736 27.7815 79.2633 27.8098 78.5829C27.8382 77.9026 28.2918 77.449 29.0572 77.449C29.936 77.4206 30.7865 77.4206 31.6653 77.449C32.4024 77.4773 32.9126 77.9309 32.9126 78.6113C32.941 79.2633 32.4591 79.7736 31.722 79.8586C31.6653 79.8586 31.6369 79.8586 31.5802 79.8586C31.155 79.8303 30.7298 79.8303 30.3045 79.8303Z" fill="currentColor"/>
<path d="M49.6373 77.0234C49.1554 77.0234 48.7018 77.0517 48.2199 77.0234C47.5679 76.995 47.1143 76.5131 47.0859 75.8894C47.0859 75.2374 47.4828 74.7271 48.1348 74.6988C49.127 74.6421 50.1193 74.6421 51.1115 74.6988C51.8202 74.7271 52.2454 75.2657 52.1887 75.9461C52.1604 76.5698 51.7068 77.0234 51.0264 77.0517C50.5728 77.0517 50.1193 77.0234 49.6373 77.0234Z" fill="currentColor"/>
<path d="M35.8898 71.5243C35.4079 71.5243 34.9543 71.5527 34.4724 71.5243C33.792 71.496 33.3384 71.0708 33.3101 70.4471C33.2534 69.8234 33.6502 69.2281 34.2739 69.1997C35.3228 69.1431 36.4001 69.1431 37.449 69.1997C38.0727 69.2564 38.4979 69.8518 38.4128 70.4754C38.3561 71.0708 37.8742 71.496 37.2222 71.5527C37.1655 71.5527 37.1371 71.5527 37.0804 71.5527C36.6836 71.5243 36.2867 71.5243 35.8898 71.5243Z" fill="currentColor"/>
<path d="M10.9996 41.162C10.5177 41.162 10.0641 41.1904 9.58217 41.162C8.93014 41.1337 8.47656 40.6234 8.47656 39.9997C8.47656 39.4044 8.87345 38.8658 9.49712 38.8374C10.5177 38.7807 11.5666 38.7807 12.6155 38.8374C13.2392 38.8658 13.636 39.4328 13.6077 39.9997C13.5793 40.6234 13.1258 41.1053 12.4737 41.1337C11.9918 41.1904 11.4815 41.162 10.9996 41.162Z" fill="currentColor"/>
<path d="M24.8056 5.69912C25.2876 5.69912 25.7411 5.67077 26.2231 5.69912C26.9034 5.72747 27.3854 6.23775 27.3854 6.88977C27.3854 7.51344 26.9318 8.02371 26.2798 8.05206C25.3159 8.10876 24.352 8.10876 23.3882 8.05206C22.6795 8.02371 22.2542 7.48509 22.2826 6.83307C22.3109 6.18105 22.7645 5.72747 23.4732 5.69912C23.9268 5.67077 24.3804 5.69912 24.8056 5.69912Z" fill="currentColor"/>
<path d="M24.7769 68.7727C24.3517 68.7727 23.9265 68.801 23.5013 68.7727C22.7358 68.7443 22.2539 68.2624 22.2539 67.582C22.2539 66.9017 22.7358 66.4197 23.4729 66.3914C24.3801 66.363 25.2589 66.363 26.166 66.3914C26.8748 66.4197 27.3567 66.9017 27.3567 67.5253C27.385 68.2057 26.9031 68.716 26.166 68.7443C25.7408 68.801 25.2589 68.7727 24.7769 68.7727Z" fill="currentColor"/>
<path d="M24.7774 71.5243C24.3238 71.5243 23.8702 71.5527 23.445 71.5243C22.793 71.496 22.311 71.0424 22.2827 70.4471C22.2543 69.8234 22.6512 69.2281 23.2749 69.1997C24.2954 69.1431 25.3443 69.1431 26.3649 69.1997C27.0453 69.2281 27.4422 69.8518 27.3855 70.5038C27.3288 71.0991 26.8752 71.5243 26.1948 71.5527C25.7129 71.5243 25.2593 71.5243 24.7774 71.5243Z" fill="currentColor"/>
<path d="M44.1112 21.8574C43.6293 21.8574 43.1757 21.8857 42.6938 21.8574C42.0418 21.8007 41.5882 21.3188 41.5599 20.6951C41.5315 20.0998 41.9851 19.5328 42.6371 19.5044C43.6293 19.4477 44.6215 19.4477 45.6137 19.5044C46.2657 19.5328 46.691 20.0714 46.691 20.6951C46.691 21.3188 46.2374 21.8007 45.5854 21.8857C45.5287 21.8857 45.5003 21.8857 45.4436 21.8857C45.0184 21.8574 44.5648 21.8574 44.1112 21.8574Z" fill="currentColor"/>
<path d="M8.30756 57.7177C7.82563 57.7177 7.37205 57.7461 6.89012 57.7177C6.2381 57.6894 5.75617 57.2075 5.72782 56.6121C5.69947 55.9885 6.15305 55.3931 6.83342 55.3648C7.79728 55.3081 8.76114 55.3081 9.725 55.3648C10.4337 55.3931 10.8589 55.9318 10.8589 56.5838C10.8306 57.2358 10.377 57.6894 9.6683 57.7461C9.18637 57.7461 8.73279 57.7177 8.30756 57.7177Z" fill="currentColor"/>
<path d="M35.8321 57.7177C35.3785 57.7177 34.9249 57.7461 34.4997 57.7177C33.8193 57.6894 33.3657 57.2358 33.3374 56.6121C33.309 55.9601 33.7059 55.3931 34.4146 55.3648C35.4068 55.3081 36.399 55.3081 37.3912 55.3648C38.0433 55.3931 38.4685 55.9601 38.4685 56.5554C38.4401 57.1791 37.9582 57.6894 37.2778 57.7177C36.7676 57.7461 36.2856 57.7177 35.8321 57.7177Z" fill="currentColor"/>
<path d="M57.8878 35.6331C57.4059 35.6331 56.9523 35.6615 56.4704 35.6331C55.8467 35.6048 55.4215 35.1512 55.3648 34.5559C55.3081 33.9889 55.7049 33.3652 56.3003 33.3369C57.3775 33.2802 58.4548 33.2518 59.5604 33.3369C60.184 33.3652 60.5242 33.9606 60.4959 34.5559C60.4675 35.1512 60.0423 35.6048 59.3903 35.6331C58.88 35.6615 58.3981 35.6331 57.8878 35.6331Z" fill="currentColor"/>
<path d="M44.1383 68.7736C43.6564 68.7736 43.2028 68.802 42.7209 68.7736C42.0122 68.7169 41.5586 68.235 41.5586 67.583C41.5586 66.9593 42.0405 66.4207 42.7209 66.4207C43.6564 66.3923 44.6203 66.3923 45.5558 66.4207C46.2078 66.449 46.6614 66.931 46.6614 67.5546C46.6897 68.1783 46.2361 68.6886 45.6125 68.7736C45.1305 68.802 44.6486 68.7453 44.1383 68.7736Z" fill="currentColor"/>
<path d="M55.1647 8.07931C54.7111 8.07931 54.2575 8.10766 53.8323 8.07931C53.0669 8.02261 52.6133 7.54068 52.6133 6.88866C52.6133 6.2083 53.0952 5.72637 53.8323 5.69802C54.7111 5.66967 55.6183 5.66967 56.4971 5.69802C57.2341 5.72637 57.7161 6.2083 57.7161 6.88866C57.7161 7.51233 57.2625 8.02261 56.5538 8.07931C56.1002 8.10766 55.6466 8.07931 55.1647 8.07931Z" fill="currentColor"/>
<path d="M68.9997 52.586C69.4816 52.586 69.9352 52.5576 70.4172 52.586C71.0692 52.6427 71.5228 53.0962 71.5228 53.7199C71.5228 54.3436 71.1259 54.8822 70.4455 54.9106C69.4533 54.9673 68.4611 54.9673 67.4689 54.9106C66.8169 54.8822 66.3633 54.3436 66.3633 53.7199C66.3633 53.0679 66.8452 52.586 67.5539 52.5576C68.0359 52.586 68.5178 52.586 68.9997 52.586Z" fill="currentColor"/>
<path d="M2.71983 35.6335C2.2379 35.6335 1.78432 35.6618 1.30239 35.6335C0.678715 35.6051 0.225134 35.1515 0.196786 34.5562C0.140088 33.9609 0.536971 33.3656 1.1323 33.3372C2.20955 33.2522 3.31515 33.2522 4.39241 33.3372C5.01608 33.3656 5.35626 33.9609 5.32792 34.5562C5.29957 35.1515 4.84599 35.6051 4.22231 35.6335C3.71203 35.6618 3.23011 35.6335 2.71983 35.6335Z" fill="currentColor"/>
<path d="M16.5576 35.6347C16.0757 35.6347 15.6221 35.663 15.1402 35.6347C14.4882 35.6063 14.0062 35.1244 13.9779 34.5007C13.9496 33.9338 14.3748 33.3384 14.9701 33.3101C16.019 33.2534 17.0963 33.2534 18.1452 33.3101C18.7405 33.3384 19.1657 33.9338 19.1374 34.5007C19.109 35.1244 18.6271 35.578 17.9751 35.6063C17.4931 35.663 17.0112 35.6347 16.5576 35.6347Z" fill="currentColor"/>
<path d="M74.4434 35.6347C73.9615 35.6347 73.5079 35.663 73.026 35.6347C72.374 35.6063 71.9204 35.096 71.892 34.5007C71.8637 33.9054 72.2606 33.3668 72.8843 33.3384C73.9332 33.2817 75.0104 33.2817 76.0593 33.3384C76.683 33.3668 77.0232 33.9054 76.9948 34.5574C76.9665 35.1811 76.5412 35.578 75.9176 35.663C75.8609 35.663 75.8325 35.663 75.7758 35.663C75.3506 35.663 74.897 35.663 74.4434 35.6347C74.4434 35.663 74.4434 35.663 74.4434 35.6347Z" fill="currentColor"/>
<path d="M35.915 11.2265C36.3686 11.2265 36.8221 11.1981 37.2474 11.2265C37.8994 11.2548 38.3813 11.7084 38.4097 12.3321C38.438 12.899 38.0695 13.4944 37.4458 13.5511C36.3686 13.6078 35.2913 13.6078 34.2141 13.5511C33.5904 13.4944 33.2502 12.9557 33.3069 12.3321C33.3636 11.7367 33.7888 11.3115 34.4125 11.2548C34.4692 11.2548 34.4975 11.2548 34.5542 11.2548C35.0078 11.2265 35.4614 11.2265 35.915 11.2265Z" fill="currentColor"/>
<path d="M22.113 36.0302C22.5666 36.0302 23.0202 36.0018 23.4454 36.0302C24.1258 36.0585 24.551 36.5121 24.6077 37.1358C24.636 37.8161 24.2108 38.3548 23.5304 38.3831C22.5382 38.4398 21.546 38.4398 20.5538 38.3831C19.9018 38.3548 19.4766 37.7878 19.4766 37.1641C19.5049 36.5688 19.9585 36.0585 20.6105 36.0302C21.1208 36.0302 21.6311 36.0585 22.113 36.0302Z" fill="currentColor"/>
<path d="M68.9987 36.0593C69.4806 36.0593 69.9342 36.031 70.4162 36.0593C71.0398 36.116 71.4651 36.5696 71.5218 37.1649C71.5501 37.7886 71.1532 38.3556 70.5295 38.4123C69.509 38.469 68.4601 38.469 67.4112 38.4123C66.8159 38.3839 66.3906 37.7886 66.3906 37.2216C66.3906 36.6263 66.8726 36.116 67.5246 36.0593C67.5813 36.0593 67.6096 36.0593 67.6663 36.0593C68.1199 36.031 68.5451 36.031 68.9987 36.0593C68.9987 36.031 68.9987 36.031 68.9987 36.0593Z" fill="currentColor"/>
<path d="M2.72226 41.162C2.24033 41.162 1.78675 41.1904 1.30482 41.162C0.652799 41.1337 0.199219 40.6234 0.199219 39.9997C0.199219 39.4044 0.596102 38.8658 1.21978 38.8374C2.24033 38.7807 3.28924 38.7807 4.33814 38.8374C4.96181 38.8658 5.3587 39.4044 5.33035 39.9997C5.33035 40.6234 4.87677 41.1053 4.22475 41.162C3.71447 41.1904 3.20419 41.162 2.72226 41.162Z" fill="currentColor"/>
<path d="M41.4177 77.4208C41.8713 77.4208 42.3249 77.3925 42.7501 77.4208C43.4021 77.4492 43.884 77.9027 43.9407 78.498C43.9974 79.065 43.6006 79.6887 43.0052 79.717C41.8996 79.8021 40.794 79.8021 39.7168 79.717C39.0647 79.6604 38.7529 79.065 38.838 78.413C38.923 77.7893 39.3199 77.4492 39.9436 77.4208C40.4255 77.3925 40.9358 77.4208 41.4177 77.4208Z" fill="currentColor"/>
<path d="M77.2765 52.5868C77.7584 52.5868 78.212 52.5585 78.694 52.5868C79.346 52.6435 79.7996 53.1254 79.8279 53.7491C79.8279 54.3444 79.431 54.8831 78.8073 54.9114C77.7868 54.9681 76.7379 54.9681 75.689 54.9114C75.037 54.8831 74.6401 54.3161 74.6968 53.6641C74.7251 53.0687 75.1787 52.6152 75.8024 52.5868C76.2843 52.5868 76.7662 52.5868 77.2765 52.5868Z" fill="currentColor"/>
<path d="M27.6125 11.2265C28.0944 11.2265 28.548 11.1981 29.0299 11.2265C29.6536 11.2548 30.0788 11.7084 30.1355 12.3037C30.1639 12.9274 29.8237 13.466 29.2 13.5227C28.1227 13.6078 27.0455 13.5794 25.9682 13.5227C25.3729 13.4944 24.976 12.8707 25.0327 12.3037C25.0894 11.7367 25.543 11.2548 26.1667 11.2265C26.6203 11.1981 27.1305 11.2265 27.6125 11.2265Z" fill="currentColor"/>
<path d="M55.1657 63.2453C54.6837 63.2453 54.2302 63.2737 53.7482 63.2453C53.0679 63.217 52.5859 62.6784 52.5859 62.0547C52.5859 61.4027 53.0679 60.8924 53.7482 60.864C54.6837 60.8357 55.6193 60.8357 56.5548 60.864C57.2351 60.8924 57.7171 61.431 57.7171 62.0547C57.7171 62.6784 57.2351 63.217 56.5548 63.2453C56.1295 63.2737 55.6476 63.2453 55.1657 63.2453Z" fill="currentColor"/>
<path d="M68.9704 65.995C68.4884 65.995 68.0349 66.0234 67.5529 65.995C66.8442 65.9667 66.3906 65.4564 66.3906 64.8327C66.3906 64.2374 66.8159 63.6988 67.4962 63.6705C68.4884 63.6138 69.4806 63.6138 70.4729 63.6705C71.1532 63.6988 71.5501 64.2374 71.5218 64.8611C71.4934 65.4848 71.0682 65.9667 70.3878 65.995C69.9342 66.0234 69.4523 65.995 68.9704 65.995Z" fill="currentColor"/>
<path d="M55.166 65.9951C54.7124 65.9951 54.2588 66.0234 53.8336 65.9951C53.0965 65.9667 52.643 65.5131 52.6146 64.8611C52.5863 64.2091 53.0115 63.6705 53.7202 63.6421C54.6841 63.5854 55.6479 63.5854 56.6118 63.6421C57.3205 63.6705 57.7457 64.2091 57.7174 64.8611C57.689 65.5131 57.2071 65.9384 56.4984 65.9951C56.4417 65.9951 56.4134 65.9951 56.3567 65.9951C55.9881 65.9951 55.5629 65.9951 55.166 65.9951Z" fill="currentColor"/>
<path d="M77.1949 65.995C76.713 65.995 76.2594 66.0234 75.7775 65.995C75.1255 65.9383 74.6719 65.4848 74.6719 64.8327C74.6719 64.2374 75.0404 63.6988 75.6924 63.6705C76.713 63.6138 77.7619 63.6138 78.8108 63.6705C79.4345 63.6988 79.8314 64.2374 79.8314 64.8327C79.8314 65.4564 79.3778 65.9383 78.6974 65.9667C78.1871 66.0234 77.7052 65.995 77.1949 65.995Z" fill="currentColor"/>
<path d="M30.3893 22.2821C30.8713 22.2821 31.3248 22.2538 31.8068 22.2821C32.4588 22.3105 32.9124 22.7924 32.9124 23.4161C32.9124 24.0397 32.4871 24.5784 31.8351 24.6067C30.8429 24.6351 29.8507 24.6351 28.8585 24.6067C28.2065 24.5784 27.7812 24.0681 27.7812 23.4161C27.7812 22.7641 28.2065 22.3105 28.8869 22.2821C29.3971 22.2538 29.8791 22.2821 30.3893 22.2821Z" fill="currentColor"/>
<path d="M38.6679 24.6056C38.1859 24.6056 37.6757 24.634 37.1937 24.6056C36.5134 24.5489 36.0314 24.0103 36.0598 23.3866C36.0881 22.763 36.5417 22.281 37.2221 22.281C38.1576 22.2527 39.1215 22.2527 40.057 22.281C40.7373 22.3094 41.1626 22.763 41.1909 23.3866C41.2193 24.0386 40.7657 24.5489 40.0853 24.6056C39.6034 24.634 39.1214 24.6056 38.6679 24.6056Z" fill="currentColor"/>
<path d="M24.8043 60.468C24.3507 60.468 23.8971 60.4963 23.4719 60.468C22.7632 60.4396 22.3096 59.986 22.2812 59.3057C22.2812 58.6536 22.7065 58.1434 23.4152 58.115C24.3507 58.0867 25.3146 58.0867 26.2501 58.115C26.9588 58.1434 27.4124 58.6536 27.384 59.3057C27.384 59.9577 26.9021 60.4113 26.1934 60.4396C25.7398 60.4963 25.2579 60.468 24.8043 60.468Z" fill="currentColor"/>
<path d="M68.9433 60.4677C68.4613 60.4677 68.0078 60.496 67.5258 60.4677C66.8738 60.4394 66.4202 59.9574 66.3919 59.3338C66.3635 58.7101 66.8171 58.1715 67.4691 58.1431C68.4897 58.0864 69.5102 58.0864 70.5025 58.1431C71.1545 58.1715 71.5514 58.7384 71.523 59.3621C71.4947 59.9574 71.0694 60.411 70.4458 60.4393C69.9355 60.496 69.4536 60.4677 68.9433 60.4677Z" fill="currentColor"/>
<path d="M5.52547 30.1054C5.04354 30.1054 4.53326 30.1337 4.05133 30.1054C3.42766 30.077 3.00243 29.6235 2.97408 28.9998C2.94573 28.3761 3.34261 27.8092 3.99464 27.7808C5.01519 27.7241 6.03575 27.7241 7.02796 27.7808C7.65163 27.8092 8.10521 28.3761 8.07686 28.9714C8.04851 29.5951 7.59493 30.0487 6.94291 30.1054C6.48933 30.1337 6.0074 30.1337 5.52547 30.1054C5.52547 30.1337 5.52547 30.1337 5.52547 30.1054Z" fill="currentColor"/>
<path d="M37.7339 46.379C37.7055 46.464 37.7055 46.6058 37.6488 46.7192C37.3937 47.3995 35.3242 48.5051 34.6155 48.335C34.0485 48.1933 33.5666 47.8248 33.5949 47.2578C33.6233 46.8325 33.9068 46.3223 34.247 46.0388C34.7289 45.6419 35.3242 45.3868 35.9195 45.1316C36.77 44.7347 37.7622 45.3868 37.7339 46.379Z" fill="currentColor"/>
<path d="M48.6184 42.7227C49.4972 42.7794 49.9791 43.0628 50.1776 43.6865C50.3477 44.2818 50.1209 44.7638 49.5823 45.0756C49.072 45.3874 48.5617 45.6709 48.0231 45.9261C47.286 46.2662 46.4639 46.0111 46.1237 45.3591C45.7835 44.7071 46.0387 44.055 46.8324 43.6298C47.5128 43.2613 48.1648 42.9494 48.6184 42.7227Z" fill="currentColor"/>
<path d="M31.0411 37.2212C30.1339 37.1928 29.6804 36.9093 29.4819 36.2857C29.3118 35.662 29.567 35.1801 30.1056 34.8682C30.5875 34.5847 31.0978 34.3012 31.6081 34.0461C32.3451 33.6776 33.1673 33.9611 33.5074 34.6131C33.8193 35.2651 33.5925 35.8888 32.8271 36.314C32.175 36.6542 31.4947 36.9944 31.0411 37.2212Z" fill="currentColor"/>
<path d="M43.0319 35.0948C42.3799 35.0665 41.8979 34.8113 41.6995 34.216C41.501 33.5923 41.7278 33.0821 42.2948 32.7702C42.8051 32.4584 43.3154 32.1749 43.854 31.9481C44.6194 31.6079 45.4132 31.8631 45.725 32.5718C46.0368 33.2238 45.7817 33.8191 45.0163 34.2444C44.506 34.5278 43.9674 34.8113 43.4571 35.0665C43.287 35.0665 43.1453 35.0665 43.0319 35.0948Z" fill="currentColor"/>
<path d="M6.88886 49.4682C6.26519 49.4682 5.72656 48.9295 5.72656 48.3059C5.72656 47.6539 6.26519 47.1152 6.94556 47.1152C7.59758 47.1152 8.10786 47.6255 8.13621 48.2775C8.10786 48.9012 7.54088 49.4682 6.88886 49.4682Z" fill="currentColor"/>
<path d="M2.58052 48.2787C2.58052 48.9023 2.04189 49.441 1.41822 49.4693C0.766195 49.4977 0.199219 48.9307 0.199219 48.2787C0.199219 47.5983 0.737846 47.088 1.41822 47.1164C2.04189 47.1164 2.58052 47.6266 2.58052 48.2787Z" fill="currentColor"/>
<path d="M27.3852 75.8332C27.3852 76.4852 26.8749 76.9955 26.2513 77.0238C25.5709 77.0522 25.0039 76.5136 25.0039 75.8615C25.0039 75.2095 25.5709 74.6709 26.2229 74.6709C26.8749 74.6709 27.3852 75.2095 27.3852 75.8332Z" fill="currentColor"/>
<path d="M40.0305 60.8644C40.6825 60.8644 41.2211 61.4314 41.1928 62.1118C41.1644 62.7638 40.6258 63.274 40.0021 63.2457C39.3218 63.2457 38.8398 62.6787 38.8398 61.9984C38.8682 61.3463 39.3785 60.8361 40.0305 60.8644Z" fill="currentColor"/>
<path d="M24.6352 20.6652C24.6352 21.3172 24.1533 21.8559 23.5013 21.8842C22.8209 21.9126 22.2823 21.4023 22.2539 20.7219C22.2539 20.0699 22.7925 19.5029 23.4446 19.5029C24.0966 19.5029 24.6069 20.0132 24.6352 20.6652Z" fill="currentColor"/>
<path d="M78.6409 74.67C79.2929 74.67 79.8032 75.2086 79.8032 75.8323C79.8032 76.4843 79.2645 77.0229 78.5842 77.0229C77.9322 77.0229 77.4219 76.4843 77.4219 75.8606C77.4219 75.2086 77.9888 74.6416 78.6409 74.67Z" fill="currentColor"/>
<path d="M50.9982 16.3295C50.3746 16.3295 49.8359 15.7909 49.8359 15.1673C49.8359 14.5152 50.4029 13.9483 51.0549 13.9766C51.707 14.005 52.2456 14.5719 52.2172 15.2239C52.1889 15.876 51.6503 16.3579 50.9982 16.3295Z" fill="currentColor"/>
<path d="M62.0256 36.0587C62.6493 36.0304 63.2162 36.5407 63.2446 37.1643C63.2729 37.8164 62.7343 38.4117 62.0823 38.4117C61.4303 38.44 60.8633 37.8447 60.8633 37.221C60.8633 36.5974 61.4019 36.0587 62.0256 36.0587Z" fill="currentColor"/>
<path d="M30.1342 62.0549C30.1342 62.7069 29.6239 63.2456 29.0002 63.2456C28.3482 63.2739 27.7812 62.7353 27.7812 62.0549C27.7812 61.3746 28.3199 60.8359 28.9719 60.8359C29.6239 60.8643 30.1342 61.4029 30.1342 62.0549Z" fill="currentColor"/>
<path d="M56.555 10.8286C55.8746 10.8286 55.336 10.2616 55.3644 9.60956C55.3927 8.98589 55.9313 8.44727 56.555 8.44727C57.207 8.44727 57.7456 9.01424 57.7173 9.69461C57.7173 10.3183 57.207 10.8286 56.555 10.8286Z" fill="currentColor"/>
<path d="M17.9428 49.8096C18.5948 49.8379 19.1334 50.4332 19.1051 51.0569C19.0767 51.6806 18.5381 52.1909 17.8861 52.1909C17.2057 52.1909 16.6954 51.6239 16.7238 50.9435C16.7805 50.3482 17.3475 49.8096 17.9428 49.8096Z" fill="currentColor"/>
<path d="M59.2195 52.1903C58.5391 52.1619 58.0572 51.5949 58.1139 50.9146C58.1706 50.2909 58.7376 49.7806 59.3612 49.8373C59.9849 49.894 60.4952 50.4326 60.4669 51.0847C60.4669 51.7367 59.8999 52.247 59.2195 52.1903Z" fill="currentColor"/>
<path d="M52.2162 56.5276C52.2162 57.208 51.6776 57.7466 51.0256 57.7182C50.4019 57.6899 49.8633 57.1513 49.8633 56.5276C49.8633 55.8756 50.4303 55.3086 51.0823 55.3086C51.6776 55.3653 52.2162 55.9039 52.2162 56.5276Z" fill="currentColor"/>
<path d="M17.9173 57.7183C17.237 57.7183 16.7267 57.1513 16.755 56.471C16.7834 55.8473 17.322 55.3087 17.9457 55.337C18.5977 55.337 19.1647 55.9323 19.108 56.5844C19.0796 57.208 18.541 57.7466 17.9173 57.7183Z" fill="currentColor"/>
<path d="M23.4162 25.0031C24.0682 24.9747 24.5785 25.485 24.6069 26.137C24.6352 26.8174 24.1249 27.3844 23.4729 27.4127C22.8209 27.4411 22.2539 26.8741 22.2539 26.2221C22.2823 25.5417 22.7925 25.0314 23.4162 25.0031Z" fill="currentColor"/>
<path d="M56.5834 13.9767C57.2354 14.005 57.7741 14.572 57.7457 15.224C57.7174 15.876 57.1787 16.3579 56.5267 16.3579C55.8463 16.3579 55.3361 15.7626 55.3644 15.1106C55.3928 14.4869 55.9597 13.9483 56.5834 13.9767Z" fill="currentColor"/>
<path d="M13.604 42.7789C13.5757 43.4026 13.0087 43.9412 12.4134 43.9412C11.7613 43.9412 11.2227 43.3743 11.2511 42.7222C11.2794 42.0419 11.8464 41.5316 12.4984 41.5883C13.1221 41.6166 13.6324 42.1553 13.604 42.7789Z" fill="currentColor"/>
<path d="M42.7209 13.9766C43.3729 13.9483 43.9399 14.5152 43.9399 15.1673C43.9399 15.7909 43.4013 16.3295 42.7776 16.3295C42.0972 16.3579 41.5586 15.8193 41.5586 15.1389C41.5586 14.5152 42.0972 13.9766 42.7209 13.9766Z" fill="currentColor"/>
<path d="M79.7993 40.0002C79.7993 40.6239 79.289 41.1625 78.637 41.1625C77.9566 41.1625 77.418 40.6522 77.418 39.9719C77.418 39.3482 77.9282 38.8096 78.5803 38.8096C79.2606 38.8096 79.7993 39.3199 79.7993 40.0002Z" fill="currentColor"/>
<path d="M21.8579 42.7492C21.8579 43.4013 21.2909 43.9682 20.6389 43.9399C20.0152 43.9115 19.4766 43.3729 19.4766 42.7492C19.4766 42.0972 20.0435 41.5586 20.6956 41.5586C21.3759 41.5869 21.8862 42.0972 21.8579 42.7492Z" fill="currentColor"/>
<path d="M23.4154 2.55042C22.7634 2.55042 22.2247 1.98344 22.2814 1.30308C22.3098 0.651057 22.8484 0.169129 23.5004 0.197478C24.1808 0.225826 24.6627 0.764451 24.6344 1.44482C24.5777 2.06849 24.0674 2.57877 23.4154 2.55042Z" fill="currentColor"/>
<path d="M79.8032 37.2209C79.8032 37.8446 79.2645 38.3832 78.6409 38.4116C77.9888 38.4399 77.4219 37.8729 77.4219 37.2209C77.4219 36.5972 77.9322 36.0586 78.5842 36.0303C79.2362 36.0303 79.8032 36.5689 79.8032 37.2209Z" fill="currentColor"/>
<path d="M13.609 37.1927C13.6373 37.8163 13.0987 38.3833 12.475 38.4117C11.823 38.4684 11.256 37.9297 11.2277 37.2494C11.1993 36.5973 11.7096 36.0587 12.3333 36.0304C13.0137 36.002 13.5806 36.5406 13.609 37.1927Z" fill="currentColor"/>
<path d="M32.9115 6.86061C32.9115 7.48428 32.4013 8.02291 31.7776 8.05125C31.1256 8.0796 30.5586 7.54098 30.5586 6.86061C30.5586 6.20859 31.0972 5.64162 31.7776 5.66996C32.3729 5.69831 32.9115 6.23694 32.9115 6.86061Z" fill="currentColor"/>
<path d="M38.4399 6.91733C38.4399 7.541 37.9013 8.07963 37.2776 8.07963C36.6256 8.07963 36.0586 7.51265 36.0586 6.86063C36.0586 6.20861 36.6539 5.66999 37.3059 5.69834C37.9296 5.72668 38.4399 6.26531 38.4399 6.91733Z" fill="currentColor"/>
<path d="M1.41544 49.837C2.06746 49.8654 2.60609 50.4607 2.57774 51.1127C2.52104 51.7647 1.98241 52.2466 1.35874 52.2183C0.678368 52.1899 0.16809 51.623 0.196438 50.971C0.224787 50.3473 0.791763 49.8087 1.41544 49.837Z" fill="currentColor"/>
<path d="M21.8852 31.7219C21.8852 32.3739 21.3182 32.9409 20.6662 32.9125C20.0425 32.8842 19.5039 32.3172 19.5039 31.7219C19.5039 31.0699 20.0709 30.5312 20.7229 30.5312C21.3749 30.5596 21.8852 31.0699 21.8852 31.7219Z" fill="currentColor"/>
<path d="M74.3032 51.0559C74.3032 51.7079 73.7079 52.2465 73.0558 52.2182C72.4322 52.1899 71.9219 51.6512 71.9219 51.0276C71.9219 50.4039 72.4888 49.8653 73.1125 49.8369C73.7362 49.8086 74.3032 50.4039 74.3032 51.0559Z" fill="currentColor"/>
<path d="M28.9435 19.4756C29.5672 19.4756 30.1059 19.9859 30.1342 20.6095C30.1625 21.2899 29.6523 21.8285 28.9719 21.8569C28.3199 21.8569 27.8096 21.3749 27.7812 20.7229C27.7812 20.0426 28.2915 19.5039 28.9435 19.4756Z" fill="currentColor"/>
<path d="M13.609 26.1653C13.6373 26.789 13.0987 27.356 12.475 27.3843C11.823 27.4127 11.256 26.874 11.2277 26.222C11.1993 25.57 11.7096 25.0314 12.3333 25.003C13.0137 24.9747 13.5806 25.5133 13.609 26.1653Z" fill="currentColor"/>
<path d="M63.2456 53.8051C63.2173 54.4288 62.6786 54.9674 62.0549 54.9674C61.4029 54.9674 60.836 54.3721 60.8643 53.7484C60.8926 53.0964 61.4596 52.5578 62.14 52.6145C62.7637 52.6428 63.2739 53.1814 63.2456 53.8051Z" fill="currentColor"/>
<path d="M1.35868 55.3369C2.0107 55.3086 2.57768 55.9039 2.57768 56.5559C2.57768 57.1796 2.03905 57.7182 1.41538 57.7465C0.791707 57.7465 0.224732 57.2363 0.196383 56.6126C0.168034 55.9606 0.706661 55.3653 1.35868 55.3369Z" fill="currentColor"/>
<path d="M56.5578 54.9682C55.9058 54.9682 55.3955 54.4296 55.3672 53.8059C55.3672 53.1539 55.9342 52.5869 56.5862 52.6153C57.2382 52.6436 57.7485 53.1823 57.7201 53.8059C57.7201 54.4579 57.1815 54.9682 56.5578 54.9682Z" fill="currentColor"/>
<path d="M56.5862 77.023C55.9058 77.023 55.3672 76.5127 55.3672 75.8323C55.3672 75.2086 55.9058 74.67 56.5295 74.67C57.2099 74.6417 57.7485 75.1803 57.7485 75.8607C57.7201 76.5127 57.2382 77.023 56.5862 77.023Z" fill="currentColor"/>
<path d="M34.4992 74.6709C35.1513 74.6709 35.6615 75.1812 35.6615 75.8615C35.6615 76.5703 35.1513 77.0522 34.4425 77.0522C33.7905 77.0238 33.3086 76.5136 33.3086 75.8332C33.3369 75.1528 33.8472 74.6709 34.4992 74.6709Z" fill="currentColor"/>
<path d="M2.57774 53.7483C2.60609 54.372 2.09581 54.9106 1.44379 54.9673C0.791763 54.9957 0.196439 54.457 0.196439 53.805C0.16809 53.1814 0.678368 52.6144 1.33039 52.586C1.98241 52.5577 2.54939 53.0963 2.57774 53.7483Z" fill="currentColor"/>
<path d="M73.0823 27.7812C73.7627 27.7812 74.3013 28.3199 74.273 28.9719C74.2446 29.5956 73.7344 30.1058 73.0823 30.1058C72.402 30.1058 71.8633 29.5672 71.8917 28.9152C71.92 28.2915 72.4587 27.7812 73.0823 27.7812Z" fill="currentColor"/>
<path d="M12.4172 52.1899C11.7652 52.1899 11.2549 51.6796 11.2549 51.0276C11.2266 50.3756 11.7936 49.7802 12.4456 49.8086C13.0692 49.8086 13.6646 50.4039 13.6362 51.0559C13.5795 51.6796 13.0409 52.2182 12.4172 52.1899Z" fill="currentColor"/>
<path d="M8.07661 51.0559C8.07661 51.7079 7.50963 52.2465 6.82926 52.2182C6.20559 52.1899 5.69531 51.6512 5.69531 51.0276C5.69531 50.4039 6.26229 49.8653 6.88596 49.8369C7.50963 49.8086 8.10496 50.4039 8.07661 51.0559Z" fill="currentColor"/>
<path d="M31.723 68.7738C31.0993 68.7738 30.5607 68.2636 30.5323 67.6399C30.504 66.9879 31.0426 66.4209 31.723 66.4209C32.3466 66.4209 32.8853 66.9312 32.9136 67.5548C32.942 68.2069 32.4033 68.7455 31.723 68.7738Z" fill="currentColor"/>
<path d="M45.5845 0.197659C46.2365 0.226008 46.7468 0.82133 46.6901 1.5017C46.6334 2.12537 46.0664 2.63565 45.4427 2.57895C44.7907 2.52225 44.3088 1.98363 44.3371 1.35995C44.3655 0.651238 44.9325 0.140962 45.5845 0.197659Z" fill="currentColor"/>
<path d="M56.5549 36.0303C57.207 36.0303 57.7456 36.5972 57.7456 37.2493C57.7172 37.8729 57.1786 38.4116 56.5549 38.4116C55.9029 38.4116 55.336 37.8446 55.3643 37.1926C55.3926 36.5689 55.9313 36.0303 56.5549 36.0303Z" fill="currentColor"/>
<path d="M9.66437 46.6899C8.984 46.6899 8.44538 46.1513 8.47373 45.4992C8.47373 44.8756 9.01235 44.3369 9.63603 44.3086C10.288 44.3086 10.8267 44.8472 10.8267 45.5276C10.8267 46.1796 10.3164 46.6899 9.66437 46.6899Z" fill="currentColor"/>
<path d="M79.7993 59.2766C79.7993 59.9003 79.3173 60.4389 78.6653 60.4673C77.9849 60.4956 77.4463 59.9854 77.418 59.305C77.418 58.6813 77.9282 58.1427 78.5519 58.1144C79.2323 58.086 79.7993 58.6246 79.7993 59.2766Z" fill="currentColor"/>
<path d="M73.1097 41.1625C72.4293 41.1625 71.8907 40.6239 71.919 39.9719C71.919 39.3482 72.4577 38.8096 73.1097 38.8096C73.7901 38.8096 74.3287 39.3482 74.3287 40.0002C74.272 40.6522 73.7617 41.1625 73.1097 41.1625Z" fill="currentColor"/>
<path d="M16.3589 48.2482C16.3872 48.9286 15.8203 49.4672 15.1682 49.4672C14.5446 49.4672 14.0059 48.9286 13.9776 48.3049C13.9492 47.6529 14.5162 47.0859 15.1966 47.0859C15.8486 47.0859 16.3305 47.5679 16.3589 48.2482Z" fill="currentColor"/>
<path d="M20.6927 49.4672C20.069 49.4672 19.502 48.9286 19.4737 48.3049C19.4453 47.6246 20.0123 47.0859 20.6927 47.0859C21.3447 47.0859 21.855 47.5962 21.855 48.2482C21.855 48.9003 21.3447 49.4389 20.6927 49.4672Z" fill="currentColor"/>
<path d="M56.5834 44.3077C57.2354 44.3361 57.774 44.9314 57.7456 45.5834C57.7173 46.2354 57.1787 46.7173 56.5266 46.689C55.8746 46.6607 55.336 46.0937 55.3644 45.4417C55.3927 44.818 55.988 44.2794 56.5834 44.3077Z" fill="currentColor"/>
<path d="M62.0529 60.8652C62.6766 60.8652 63.2436 61.3755 63.2719 61.9992C63.3003 62.6512 62.7617 63.2465 62.1096 63.2465C61.486 63.2465 60.919 62.7079 60.8906 62.1126C60.8339 61.4889 61.4009 60.8652 62.0529 60.8652Z" fill="currentColor"/>
<path d="M35.6627 15.1379C35.6627 15.7899 35.1807 16.3285 34.5287 16.3569C33.8767 16.3852 33.3381 15.8749 33.3097 15.2229C33.2814 14.5426 33.7916 13.9756 34.472 13.9756C35.124 13.9756 35.6343 14.4859 35.6627 15.1379Z" fill="currentColor"/>
<path d="M57.7485 17.9162C57.7485 18.5682 57.2382 19.0785 56.5862 19.1068C55.9058 19.1068 55.3672 18.5682 55.3672 17.8879C55.3955 17.2358 55.9058 16.7539 56.5862 16.7539C57.2382 16.7539 57.7485 17.2642 57.7485 17.9162Z" fill="currentColor"/>
<path d="M38.4399 20.6662C38.4399 21.3183 37.8729 21.8852 37.2209 21.8569C36.5972 21.8285 36.0586 21.3183 36.0586 20.6662C36.0586 20.0426 36.5972 19.4756 37.2209 19.4756C37.8446 19.4756 38.4399 20.0142 38.4399 20.6662Z" fill="currentColor"/>
<path d="M1.36252 27.3843C0.710502 27.3843 0.171875 26.789 0.171875 26.137C0.200224 25.5133 0.738851 24.9747 1.36252 25.003C2.01455 25.003 2.58152 25.5983 2.55317 26.2504C2.55317 26.874 1.9862 27.4127 1.36252 27.3843Z" fill="currentColor"/>
<path d="M6.85761 25.0031C7.48129 24.9747 8.04826 25.485 8.07661 26.1087C8.10496 26.7607 7.56633 27.356 6.91431 27.3844C6.26229 27.4127 5.69531 26.8457 5.69531 26.1937C5.69531 25.5701 6.23394 25.0314 6.85761 25.0031Z" fill="currentColor"/>
<path d="M57.7485 31.6936C57.7485 32.3456 57.1815 32.9126 56.5578 32.9126C55.9342 32.9126 55.3955 32.3456 55.3672 31.7219C55.3672 31.0699 55.9342 30.5029 56.5862 30.5313C57.2099 30.5313 57.7201 31.0699 57.7485 31.6936Z" fill="currentColor"/>
<path d="M49.4674 64.7765C49.4957 65.4002 48.9571 65.9672 48.3334 65.9955C47.6814 66.0239 47.1428 65.5419 47.1144 64.8899C47.0861 64.2096 47.5963 63.6426 48.2767 63.6426C48.9004 63.6426 49.4674 64.1529 49.4674 64.7765Z" fill="currentColor"/>
<path d="M68.7719 34.4436C68.7719 35.0956 68.29 35.6059 67.638 35.6342C66.9576 35.6626 66.3906 35.124 66.3906 34.4719C66.3906 33.8199 66.9293 33.2529 67.6096 33.2813C68.2333 33.3096 68.7719 33.8199 68.7719 34.4436Z" fill="currentColor"/>
<path d="M65.9975 45.5267C65.9975 46.1787 65.4589 46.6889 64.8068 46.6889C64.1548 46.6889 63.6445 46.1787 63.6445 45.5267C63.6445 44.8463 64.2115 44.2793 64.8635 44.3077C65.4872 44.336 66.0258 44.8746 65.9975 45.5267Z" fill="currentColor"/>
<path d="M39.9984 2.94824C40.6504 2.94824 41.1607 3.45852 41.189 4.11054C41.2174 4.79091 40.6787 5.32953 39.9984 5.32953C39.3463 5.32953 38.8644 4.81926 38.8644 4.13889C38.8361 3.45852 39.3463 2.94824 39.9984 2.94824Z" fill="currentColor"/>
<path d="M46.6889 17.9162C46.6889 18.5682 46.207 19.1068 45.5549 19.1068C44.8746 19.1352 44.3359 18.5682 44.3359 17.9162C44.3359 17.2642 44.8746 16.7539 45.5266 16.7539C46.1786 16.7539 46.6889 17.2358 46.6889 17.9162Z" fill="currentColor"/>
<path d="M15.1956 54.9682C14.5435 54.9682 13.9766 54.4012 13.9766 53.7492C14.0049 53.1255 14.5435 52.5869 15.1672 52.5869C15.8476 52.5869 16.3579 53.1255 16.3579 53.8059C16.3295 54.4579 15.8192 54.9682 15.1956 54.9682Z" fill="currentColor"/>
<path d="M30.1342 17.9162C30.1342 18.5683 29.6239 19.0785 28.9719 19.0785C28.2915 19.0785 27.7812 18.5399 27.7812 17.8595C27.8096 17.2075 28.2915 16.7256 28.9719 16.7256C29.6523 16.7539 30.1342 17.2642 30.1342 17.9162Z" fill="currentColor"/>
<path d="M24.6353 17.9446C24.6353 18.5966 24.125 19.1068 23.473 19.1068C22.7926 19.1068 22.254 18.5682 22.2823 17.8879C22.3107 17.2358 22.8209 16.7539 23.5013 16.7539C24.1533 16.7539 24.6353 17.2642 24.6353 17.9446Z" fill="currentColor"/>
<path d="M51.055 11.2246C51.707 11.253 52.2173 11.7349 52.2173 12.4153C52.2173 13.0673 51.6786 13.6059 51.055 13.6059C50.4029 13.6059 49.836 13.0389 49.8643 12.3869C49.8643 11.7349 50.4313 11.2246 51.055 11.2246Z" fill="currentColor"/>
<path d="M28.9975 8.44736C29.6496 8.47571 30.1598 9.04268 30.1315 9.72305C30.1031 10.3751 29.5929 10.857 28.9125 10.8286C28.2321 10.8003 27.7502 10.2617 27.7785 9.58131C27.8069 8.95764 28.3739 8.41901 28.9975 8.44736Z" fill="currentColor"/>
<path d="M71.5209 48.2484C71.5209 48.9004 71.039 49.4391 70.387 49.4674C69.7349 49.4958 69.168 48.9288 69.168 48.2768C69.168 47.6247 69.7066 47.1145 70.3586 47.1145C71.0106 47.0861 71.5209 47.568 71.5209 48.2484Z" fill="currentColor"/>
<path d="M75.8615 49.4672C75.2095 49.4672 74.6992 48.9286 74.6992 48.2766C74.6992 47.5962 75.2378 47.0859 75.9182 47.0859C76.5702 47.1143 77.0522 47.6246 77.0238 48.3049C77.0238 48.9569 76.4852 49.4672 75.8615 49.4672Z" fill="currentColor"/>
<path d="M17.973 22.2815C18.625 22.2815 19.1353 22.8201 19.1353 23.4438C19.1353 24.0958 18.5683 24.6344 17.9163 24.6344C17.2643 24.6061 16.7824 24.0958 16.7824 23.4438C16.754 22.735 17.2643 22.2531 17.973 22.2815Z" fill="currentColor"/>
<path d="M64.8041 47.0859C65.4561 47.0859 65.9664 47.5679 65.9947 48.2482C65.9947 48.9286 65.4561 49.4672 64.7757 49.4672C64.1237 49.4389 63.6134 48.9003 63.6418 48.2766C63.6701 47.5962 64.152 47.0859 64.8041 47.0859Z" fill="currentColor"/>
<path d="M51.0549 19.1068C50.4029 19.1068 49.8359 18.5682 49.8359 17.9162C49.8359 17.2925 50.3746 16.7823 50.9982 16.7539C51.6503 16.7539 52.1605 17.2075 52.1889 17.8595C52.2456 18.5399 51.7353 19.0785 51.0549 19.1068Z" fill="currentColor"/>
<path d="M41.1928 17.9162C41.1928 18.5682 40.6825 19.0785 40.0305 19.1068C39.3501 19.1068 38.8398 18.5966 38.8398 17.8879C38.8682 17.2075 39.3501 16.7539 40.0305 16.7539C40.6825 16.7539 41.1928 17.2642 41.1928 17.9162Z" fill="currentColor"/>
<path d="M70.3586 74.6709C71.0106 74.6709 71.5209 75.1812 71.5209 75.8332C71.5209 76.4852 71.039 76.9955 70.387 77.0238C69.7066 77.0522 69.168 76.4852 69.168 75.8332C69.168 75.1812 69.7066 74.6709 70.3586 74.6709Z" fill="currentColor"/>
<path d="M64.7785 38.8088C65.4305 38.7805 65.9691 39.2624 65.9975 39.9144C66.0258 40.5948 65.4872 41.1334 64.8068 41.1334C64.1548 41.1334 63.6445 40.6231 63.6445 39.9711C63.6445 39.3474 64.1265 38.8372 64.7785 38.8088Z" fill="currentColor"/>
<path d="M24.6059 4.13892C24.6059 4.79094 24.0956 5.30121 23.4435 5.30121C22.7915 5.30121 22.2812 4.79094 22.2812 4.13892C22.2812 3.45855 22.8199 2.91992 23.5002 2.91992C24.1239 2.94827 24.6342 3.4869 24.6059 4.13892Z" fill="currentColor"/>
<path d="M34.4425 16.7541C35.1229 16.7258 35.6332 17.2077 35.6332 17.8597C35.6615 18.5684 35.1513 19.1071 34.4709 19.0787C33.8189 19.0787 33.3086 18.5684 33.3086 17.9164C33.3086 17.2644 33.7905 16.7541 34.4425 16.7541Z" fill="currentColor"/>
<path d="M23.388 54.9676C22.736 54.9393 22.2541 54.3723 22.2824 53.7203C22.3108 53.0399 22.8778 52.5296 23.5581 52.5863C24.2102 52.643 24.6637 53.1817 24.607 53.862C24.5787 54.514 24.0117 54.996 23.388 54.9676Z" fill="currentColor"/>
<path d="M64.8068 74.6709C65.4589 74.6709 65.9691 75.1812 65.9975 75.8332C66.0258 76.4852 65.5156 77.0238 64.8635 77.0238C64.1548 77.0522 63.6445 76.5419 63.6445 75.8332C63.6445 75.1812 64.1548 74.6709 64.8068 74.6709Z" fill="currentColor"/>
<path d="M52.2172 23.4437C52.2172 24.124 51.6786 24.6343 50.9982 24.606C50.3746 24.5776 49.8359 24.039 49.8359 23.4153C49.8359 22.7633 50.3746 22.2247 51.0833 22.253C51.7353 22.2814 52.2172 22.7916 52.2172 23.4437Z" fill="currentColor"/>
<path d="M23.4162 22.2822C24.0966 22.2822 24.6069 22.7358 24.6069 23.4162C24.6352 24.0965 24.0966 24.6352 23.4162 24.6352C22.7642 24.6352 22.2539 24.1249 22.2539 23.4729C22.2539 22.7925 22.7642 22.2822 23.4162 22.2822Z" fill="currentColor"/>
<path d="M35.6616 4.11057C35.6616 4.79094 35.1797 5.27286 34.5277 5.30121C33.8473 5.30121 33.3087 4.79094 33.337 4.08222C33.337 3.4302 33.8756 2.91992 34.5277 2.91992C35.123 2.94827 35.6333 3.45855 35.6616 4.11057Z" fill="currentColor"/>
<path d="M34.4709 60.4673C33.7905 60.4673 33.3086 59.9854 33.3086 59.3051C33.3086 58.5963 33.8189 58.0861 34.5276 58.1144C35.1796 58.1428 35.6615 58.6247 35.6615 59.3051C35.6332 59.9854 35.1513 60.4673 34.4709 60.4673Z" fill="currentColor"/>
<path d="M39.9709 63.6426C40.6229 63.6426 41.1615 64.1245 41.1615 64.7765C41.1899 65.4569 40.6513 65.9955 39.9709 65.9955C39.3189 65.9955 38.8086 65.5136 38.8086 64.8332C38.8369 64.1529 39.3189 63.6426 39.9709 63.6426Z" fill="currentColor"/>
<path d="M64.8342 30.1342C64.1538 30.1342 63.6719 29.6523 63.6719 28.9719C63.6719 28.3199 64.1538 27.8096 64.8058 27.7812C65.4862 27.7812 66.0248 28.2915 66.0248 28.9719C65.9965 29.6239 65.4862 30.1342 64.8342 30.1342Z" fill="currentColor"/>
<path d="M13.747 13.7761C11.7059 13.7761 9.77821 13.8045 7.85049 13.7478C6.5748 13.7194 5.58259 12.6705 5.55424 11.3948C5.49754 10.2042 5.49754 9.04188 5.55424 7.85124C5.61094 6.63225 6.5181 5.64004 7.7371 5.555C9.04114 5.46995 10.3452 5.46995 11.6209 5.555C12.6981 5.61169 13.6903 6.5472 13.747 7.5961C13.8037 9.63721 13.747 11.6783 13.747 13.7761Z" fill="currentColor"/>
<path d="M74.4445 13.749C72.3751 13.749 70.3907 13.8057 68.4346 13.7206C67.1589 13.6639 66.2517 12.5583 66.2517 11.2826C66.2234 10.2054 66.2234 9.09978 66.2517 8.02253C66.2801 6.66179 67.2156 5.61289 68.5763 5.55619C69.767 5.4995 70.986 5.4995 72.1766 5.55619C73.3956 5.61289 74.4162 6.6051 74.4445 7.79574C74.5012 9.7518 74.4445 11.7079 74.4445 13.749Z" fill="currentColor"/>
<path d="M13.7463 74.4152C11.6769 74.4152 9.66409 74.4719 7.62298 74.3868C6.46068 74.3301 5.58187 73.2529 5.52517 72.0622C5.49682 70.8999 5.49682 69.7376 5.52517 68.6037C5.58187 67.2713 6.63077 66.2508 7.96316 66.2508C9.06877 66.2224 10.1744 66.2224 11.28 66.2508C12.499 66.2791 13.6329 67.1296 13.6896 68.3202C13.8314 70.333 13.7463 72.3457 13.7463 74.4152Z" fill="currentColor"/>
</g>
<defs>
<clipPath id="clip0_3635_54042">
<rect width="80.0003" height="80" fill="currentColor"/>
</clipPath>
</defs>
</svg>
