<svg width="144" height="144" viewBox="0 0 144 144" fill="none" xmlns="http://www.w3.org/2000/svg">
<g id="Color=Default, Dark bg=no, Type=Icon">
<path id="new logo" fill-rule="evenodd" clip-rule="evenodd" d="M115.559 17.2854L140.962 61.3574C144.639 67.7259 144.639 75.5738 140.962 81.9422L115.559 126.014C111.895 132.383 105.104 136.3 97.7634 136.3H46.9566C39.6159 136.3 32.8388 132.383 29.1615 126.014L3.75803 81.9422C0.0806575 75.5738 0.0806575 67.7259 3.75803 61.3574L29.1615 17.2854C32.8248 10.9169 39.6159 7 46.9566 7H97.7634C105.104 7 111.881 10.9169 115.559 17.2854ZM55.2271 74.9116C53.48 77.969 49.5772 79.0116 46.5339 77.2645C43.4906 75.5174 42.4338 71.6287 44.1809 68.5713L68.739 25.7814C70.5002 22.7239 74.3889 21.6813 77.4323 23.4284C80.4756 25.1896 81.5323 29.0783 79.7852 32.1217L55.2271 74.9116ZM47.2947 88.7334L42.5184 97.0603C40.7572 100.118 36.8685 101.174 33.8251 99.4133C30.7818 97.6662 29.7251 93.7634 31.4722 90.72L36.2485 82.3931C38.0097 79.3498 41.8844 78.2931 44.9418 80.0402C47.9851 81.7873 49.0418 85.6901 47.2947 88.7334ZM98.0734 65.7252C95.0019 64.0063 91.1273 65.1053 89.4084 68.1768L65.3153 111.22C63.5963 114.292 64.6953 118.166 67.7668 119.885C70.8384 121.604 74.713 120.505 76.4319 117.448L100.525 74.3903C102.244 71.3187 101.145 67.4441 98.0734 65.7252ZM97.8198 53.4391L102.512 45.0558C104.216 41.9843 108.105 40.8853 111.177 42.6043C114.248 44.3232 115.347 48.1978 113.628 51.2693L108.936 59.6526C107.218 62.7241 103.343 63.8231 100.271 62.1042C97.1999 60.3853 96.1009 56.5106 97.8198 53.4391ZM45.3363 52.8051C47.0975 49.7617 46.0549 45.873 43.0115 44.1118C39.9682 42.3507 36.0795 43.3933 34.3183 46.4366L19.9751 71.2483C18.2139 74.2916 19.2565 78.1803 22.2999 79.9415C25.3432 81.7027 29.2319 80.6601 30.9931 77.6168L45.3363 52.8051ZM53.3251 39.0255C51.578 42.083 47.6892 43.1397 44.6318 41.3926C41.5885 39.6455 40.5318 35.7568 42.2789 32.6993L46.2239 25.7954C47.971 22.738 51.8457 21.6813 54.9031 23.4284C57.9605 25.1755 59.0172 29.0642 57.2701 32.1216L53.3251 39.0255ZM99.4401 101.935C96.3968 100.174 92.5081 101.203 90.7469 104.246L86.7595 111.136C84.9983 114.179 86.0269 118.068 89.0702 119.843C92.1136 121.604 96.0023 120.576 97.7776 117.532L101.765 110.643C103.512 107.599 102.469 103.696 99.4401 101.935ZM113.727 64.4149C115.488 61.3715 119.377 60.343 122.42 62.1042C125.464 63.8654 126.492 67.7541 124.745 70.7974L110.374 95.5809C108.598 98.6243 104.71 99.6528 101.666 97.8916C98.6229 96.1304 97.5944 92.2417 99.3556 89.1984L113.727 64.4149ZM73.4308 69.6984C76.4742 71.4455 80.3629 70.4029 82.1241 67.3596L102.385 32.1357C104.132 29.0924 103.089 25.2037 100.046 23.4425C97.0026 21.6954 93.0998 22.738 91.3527 25.7814L71.092 61.0052C69.3308 64.0485 70.3875 67.9373 73.4308 69.6984ZM54.0436 117.462C52.3106 120.519 48.4219 121.576 45.3645 119.829C42.307 118.082 41.2503 114.193 42.9833 111.136L63.2159 75.7429C64.963 72.6854 68.8517 71.6287 71.9092 73.3758C74.9525 75.1088 76.0233 78.9975 74.2762 82.055L54.0436 117.462Z" fill="#37D5C7"/>
</g>
</svg>
