<svg width="95" height="32" viewBox="0 0 95 32" fill="none" xmlns="http://www.w3.org/2000/svg">
<path d="M42.4599 21.8193C42.4107 21.7039 42.3256 21.6188 42.2046 21.564C42.0836 21.5092 41.9607 21.5035 41.834 21.5479C41.7083 21.5924 41.6175 21.6737 41.5627 21.7947L38.2454 29.108L34.8686 21.8108C34.8138 21.6907 34.7287 21.6075 34.6134 21.564C34.4981 21.5205 34.3799 21.5253 34.2598 21.5801C34.1388 21.6349 34.0566 21.72 34.0131 21.8353C33.9696 21.9507 33.9696 22.0688 34.0131 22.1889L37.7633 30.2159C37.8616 30.4466 38.0157 30.561 38.2237 30.561C38.4648 30.561 38.6406 30.4456 38.7503 30.2159L42.4513 22.1719C42.5062 22.0509 42.509 21.9336 42.4599 21.8183V21.8193Z" fill="#111111"/>
<path d="M51.5591 23.7753C51.1583 23.0795 50.6137 22.5312 49.9227 22.1303C49.2316 21.7305 48.4479 21.53 47.5706 21.53C46.6933 21.53 45.9068 21.7305 45.2101 22.1303C44.5133 22.5312 43.965 23.0795 43.5652 23.7753C43.1643 24.472 42.9648 25.2585 42.9648 26.1358C42.9648 27.0131 43.1653 27.7836 43.5652 28.4793C43.965 29.1761 44.5133 29.7244 45.2101 30.1243C45.9068 30.5251 46.6933 30.7246 47.5706 30.7246C48.3713 30.7246 49.0841 30.5516 49.709 30.2065C50.3207 29.8681 50.8075 29.4115 51.1734 28.8376V30.1328C51.1734 30.2755 51.2197 30.3937 51.3133 30.4863C51.4059 30.5799 51.5241 30.6263 51.6669 30.6263C51.82 30.6263 51.941 30.5799 52.0289 30.4863C52.1169 30.3937 52.1603 30.2755 52.1603 30.1328V26.1358C52.1603 25.2585 51.9599 24.472 51.56 23.7753H51.5591ZM49.4207 29.3188C48.8781 29.6421 48.2607 29.8038 47.5706 29.8038C46.8805 29.8038 46.2764 29.6421 45.7281 29.3188C45.1798 28.9955 44.7468 28.5569 44.4283 28.0029C44.1097 27.4489 43.9509 26.8269 43.9509 26.1358C43.9509 25.4448 44.1097 24.8066 44.4283 24.2527C44.7459 23.6987 45.1789 23.26 45.7281 22.9367C46.2764 22.6134 46.89 22.4518 47.5706 22.4518C48.2513 22.4518 48.8781 22.6134 49.4207 22.9367C49.9633 23.26 50.3916 23.6987 50.7035 24.2527C51.0165 24.8066 51.1724 25.4344 51.1724 26.1358C51.1724 26.8373 51.0165 27.4489 50.7035 28.0029C50.3906 28.5569 49.9633 28.9955 49.4207 29.3188Z" fill="#111111"/>
<path d="M61.8152 21.7437C61.7273 21.6558 61.6072 21.6123 61.4531 21.6123C61.3104 21.6123 61.1922 21.6567 61.0995 21.7437C61.006 21.8316 60.9596 21.9526 60.9596 22.1057V27.1388C60.9596 27.6323 60.8226 28.0738 60.5484 28.4633C60.2742 28.8528 59.9008 29.1628 59.4301 29.3925C58.9583 29.6232 58.427 29.7376 57.8343 29.7376C57.2415 29.7376 56.6914 29.6194 56.214 29.384C55.7365 29.1487 55.3584 28.7922 55.0786 28.3148C54.7988 27.8374 54.6588 27.2428 54.6588 26.53V22.1048C54.6588 21.9621 54.6116 21.8448 54.5189 21.7512C54.4253 21.6586 54.3081 21.6113 54.1653 21.6113C54.0226 21.6113 53.9044 21.6586 53.8118 21.7512C53.7182 21.8448 53.6719 21.9621 53.6719 22.1048V26.53C53.6719 27.429 53.8553 28.191 54.223 28.8168C54.5908 29.4417 55.0861 29.9163 55.712 30.2396C56.3368 30.5629 57.044 30.7246 57.8343 30.7246C58.5471 30.7246 59.1909 30.5686 59.7675 30.2557C60.2364 30.0014 60.6325 29.6686 60.9596 29.2621V30.1158C60.9596 30.2585 61.006 30.3767 61.0995 30.4693C61.1922 30.5629 61.3104 30.6092 61.4531 30.6092C61.6063 30.6092 61.7273 30.5629 61.8152 30.4693C61.9031 30.3767 61.9466 30.2585 61.9466 30.1158V22.1048C61.9466 21.9517 61.9031 21.8306 61.8152 21.7427V21.7437Z" fill="#111111"/>
<path d="M67.4862 29.7074C67.4096 29.6194 67.3103 29.576 67.1902 29.576H66.779C66.4387 29.576 66.1627 29.4143 65.9481 29.091C65.7344 28.7677 65.6276 28.3536 65.6276 27.8488V19.2498C65.6276 19.0967 65.5841 18.9757 65.4962 18.8878C65.4083 18.7998 65.2872 18.7563 65.1341 18.7563C64.9913 18.7563 64.8732 18.7998 64.7805 18.8878C64.6869 18.9757 64.6406 19.0967 64.6406 19.2498V27.8488C64.6406 28.3867 64.7314 28.8575 64.912 29.263C65.0925 29.6686 65.3449 29.9872 65.6682 30.2169C65.9915 30.4476 66.3612 30.562 66.7781 30.562H67.1071C67.2602 30.562 67.3812 30.5156 67.4691 30.422C67.557 30.3294 67.6005 30.2112 67.6005 30.0685C67.6005 29.9153 67.5618 29.7943 67.4852 29.7064L67.4862 29.7074Z" fill="#111111"/>
<path d="M73.4487 21.9762C73.3665 21.894 73.2596 21.8524 73.1282 21.8524H70.9482V19.2488C70.9482 19.0957 70.9048 18.9747 70.8169 18.8868C70.7289 18.7989 70.6079 18.7554 70.4548 18.7554C70.312 18.7554 70.1939 18.7989 70.1012 18.8868C70.0076 18.9747 69.9613 19.0957 69.9613 19.2488V21.8524H68.6709C68.5395 21.8524 68.4327 21.894 68.3504 21.9762C68.2682 22.0585 68.2266 22.1653 68.2266 22.2967C68.2266 22.4281 68.2682 22.5349 68.3504 22.6172C68.4327 22.6994 68.5395 22.741 68.6709 22.741H69.9613V27.8488C69.9613 28.3867 70.0521 28.8575 70.2326 29.263C70.4132 29.6686 70.6656 29.9872 70.9889 30.2169C71.3122 30.4475 71.6819 30.5619 72.0988 30.5619H72.4277C72.5809 30.5619 72.7019 30.5156 72.7898 30.422C72.8777 30.3294 72.9212 30.2112 72.9212 30.0685C72.9212 29.9153 72.8825 29.7943 72.8059 29.7064C72.7293 29.6185 72.63 29.575 72.51 29.575H72.0988C71.7584 29.575 71.4824 29.4133 71.2678 29.09C71.0541 28.7667 70.9473 28.3526 70.9473 27.8478V22.7401H73.1273C73.2587 22.7401 73.3655 22.6985 73.4478 22.6162C73.53 22.534 73.5707 22.4271 73.5707 22.2957C73.5707 22.1643 73.53 22.0575 73.4478 21.9753L73.4487 21.9762Z" fill="#111111"/>
<path d="M6.00945 9.48247C5.52359 8.63958 5.81192 7.55988 6.65359 7.07279L13.5158 3.10492C14.3575 2.61783 15.4347 2.90739 15.9218 3.75029C16.4076 4.59441 16.1193 5.67288 15.2776 6.15997L8.41546 10.1278C7.57379 10.6149 6.49654 10.3254 6.00945 9.48247Z" fill="#37D5C7"/>
<path d="M10.8571 31.118C10.3712 30.2738 10.6596 29.1954 11.5012 28.7083L18.3635 24.7404C19.2051 24.2533 20.2823 24.5429 20.7694 25.3858C21.2553 26.2299 20.967 27.3084 20.1253 27.7955L13.2619 31.7633C12.4202 32.2504 11.343 31.9609 10.8559 31.118H10.8571Z" fill="#37D5C7"/>
<path d="M14.344 16.8831C13.8569 16.039 14.1464 14.9605 14.9881 14.4734L24.5201 8.9621C25.3618 8.47501 26.439 8.76457 26.9261 9.60746C27.4119 10.4516 27.1236 11.5301 26.2819 12.0171L16.75 17.5285C15.9071 18.0156 14.8311 17.726 14.344 16.8831Z" fill="#37D5C7"/>
<path d="M0.236014 25.0399C-0.249849 24.1958 0.0384787 23.1173 0.880149 22.6302L11.174 16.6784C12.0169 16.1913 13.0929 16.4809 13.58 17.3238C14.0659 18.1679 13.7776 19.2464 12.9359 19.7334L2.642 25.6865C1.80033 26.1736 0.723103 25.884 0.236014 25.0411V25.0399Z" fill="#37D5C7"/>
<path d="M15.8962 9.87517C15.4103 9.03104 15.6986 7.95258 16.5403 7.46549L18.447 6.36371C19.2886 5.87662 20.3658 6.16618 20.8529 7.00908C21.3388 7.8532 21.0505 8.93167 20.2088 9.41876L18.3022 10.5205C17.4605 11.0076 16.3833 10.7181 15.8962 9.87517Z" fill="#37D5C7"/>
<path d="M21.5309 24.9452C21.0451 24.1011 21.3334 23.0226 22.1751 22.5356L24.0817 21.4338C24.9246 20.9467 26.0006 21.2362 26.4877 22.0791C26.9736 22.9233 26.6853 24.0017 25.8436 24.4888L23.9369 25.5906C23.0953 26.0777 22.018 25.7881 21.5309 24.9452Z" fill="#37D5C7"/>
<path d="M5.54656 28.079C5.0607 27.2361 5.34903 26.1564 6.1907 25.6693L8.09734 24.5676C8.94024 24.0805 10.0163 24.37 10.5034 25.2129C10.9892 26.0571 10.7009 27.1355 9.85922 27.6226L7.95257 28.7244C7.1109 29.2115 6.03365 28.9219 5.54656 28.079Z" fill="#37D5C7"/>
<path d="M0.290701 12.789C-0.195161 11.9449 0.0931662 10.8664 0.934837 10.3793L2.84148 9.27631C3.68315 8.78922 4.76038 9.07878 5.24747 9.92167C5.73333 10.7658 5.445 11.8443 4.60333 12.3314L2.69668 13.4331C1.85379 13.9202 0.77779 13.6307 0.290701 12.7878V12.789Z" fill="#37D5C7"/>
<path d="M0.263357 18.9138C-0.222505 18.0696 0.0658225 16.9912 0.907493 16.5041L12.7264 9.67011C13.5681 9.18302 14.6454 9.47257 15.1325 10.3155C15.6183 11.1596 15.33 12.238 14.4883 12.7251L2.66934 19.5591C1.82767 20.0462 0.750446 19.7567 0.263357 18.9138Z" fill="#37D5C7"/>
<path d="M11.2653 24.7724C10.7794 23.9283 11.0678 22.8498 11.9094 22.3627L23.7284 15.5288C24.5701 15.0417 25.6473 15.3312 26.1344 16.1741C26.6203 17.017 26.3319 18.0967 25.4903 18.5838L13.6713 25.4178C12.8296 25.9048 11.7524 25.6153 11.2653 24.7724Z" fill="#37D5C7"/>
<path fill-rule="evenodd" clip-rule="evenodd" d="M47.0896 15.9304C46.2111 15.4213 45.5142 14.7133 44.9989 13.814V13.8103C44.4947 12.9061 44.2407 11.8755 44.2309 10.7271C44.2198 9.56884 44.4394 8.53576 44.8971 7.6352C45.3658 6.72482 46.016 6.00339 46.8454 5.47581C47.6798 4.94455 48.6404 4.67832 49.7152 4.6685C50.7753 4.65869 51.7139 4.89916 52.52 5.4022C53.3334 5.88806 53.9653 6.57268 54.4119 7.4487C54.8573 8.32472 55.0818 9.31732 55.0928 10.4203C55.0953 10.7099 55.0069 10.9724 54.8094 11.1786L54.8033 11.1847L54.7972 11.1908C54.5984 11.3773 54.3469 11.4608 54.072 11.4632L46.367 11.5356C46.4467 11.9785 46.5878 12.3822 46.7902 12.749C47.1289 13.3367 47.5792 13.7944 48.146 14.1269C48.7079 14.4569 49.3582 14.6225 50.1091 14.6152C50.552 14.6115 50.9961 14.5317 51.4427 14.3747C51.9077 14.2029 52.2599 13.9993 52.5114 13.7723L52.5175 13.7661C52.7138 13.598 52.9457 13.5097 53.2009 13.5048C53.4524 13.4864 53.6892 13.5514 53.888 13.7109L53.8966 13.7183L53.9052 13.7256C54.1236 13.9269 54.2659 14.1784 54.272 14.4753C54.2929 14.7747 54.1702 15.0299 53.9481 15.2225C53.4794 15.636 52.8905 15.9771 52.1887 16.2519L52.1838 16.2543C51.4795 16.5157 50.7937 16.6519 50.1275 16.658C49.0036 16.669 47.9902 16.4298 47.0945 15.9329L47.0896 15.9304ZM51.4857 7.1751C51.0096 6.86469 50.4305 6.70641 49.7349 6.71255C49.0392 6.71868 48.4233 6.89536 47.9092 7.23153C47.3914 7.57016 46.9878 8.03762 46.6982 8.64372C46.5608 8.93696 46.4577 9.2535 46.3903 9.59336L52.9739 9.53202C52.9065 9.16271 52.7973 8.82041 52.6439 8.50264C52.3703 7.93089 51.985 7.49165 51.4881 7.17756L51.4845 7.1751H51.4857Z" fill="#111111"/>
<path d="M59.4394 5.26484H59.4418C60.1301 4.8526 60.8896 4.64893 61.7153 4.64893C62.3496 4.64893 62.8797 4.73971 63.2772 4.94952C63.4833 5.05871 63.6563 5.20963 63.7557 5.41575C63.8575 5.62556 63.8686 5.85377 63.8158 6.08075L63.8134 6.08811C63.7471 6.34208 63.6146 6.57151 63.3778 6.69543C63.1901 6.79972 62.9741 6.82917 62.7508 6.81322H62.7484C62.5778 6.79973 62.3803 6.78622 62.1546 6.77272H62.1509H62.146C61.4392 6.7077 60.8233 6.78623 60.2909 6.99726H60.2872C59.767 7.19602 59.3584 7.50029 59.0504 7.91009C58.7621 8.31129 58.6136 8.79225 58.6136 9.37013V15.4655C58.6136 15.771 58.5278 16.0507 58.3229 16.2618C58.1167 16.4728 57.8419 16.5587 57.5425 16.5587C57.2432 16.5587 56.9696 16.4728 56.7635 16.2618C56.5573 16.0507 56.4727 15.771 56.4727 15.4655V5.86236C56.4727 5.55685 56.5573 5.27711 56.7635 5.06608C56.9696 4.85505 57.2444 4.76916 57.5425 4.76916C57.8407 4.76916 58.1155 4.85505 58.3229 5.06608C58.529 5.27711 58.6136 5.55685 58.6136 5.86236V5.90161C58.8639 5.65868 59.14 5.4452 59.4394 5.26362V5.26484Z" fill="#111111"/>
<path d="M65.6255 16.2642L65.6157 16.2532C65.4194 16.0335 65.3359 15.7538 65.3359 15.4471V10.4854C65.3359 10.1799 65.4206 9.90014 65.6267 9.68911C65.8402 9.47071 66.1175 9.37134 66.4255 9.37134C66.7334 9.37134 66.9849 9.47071 67.1849 9.68911C67.4021 9.89646 67.4966 10.1762 67.4966 10.4854V15.4471C67.4966 15.7624 67.3996 16.0446 67.1849 16.263C66.9825 16.4703 66.7162 16.5599 66.4255 16.5599C66.1347 16.5599 65.8525 16.4728 65.6365 16.2728L65.6255 16.263V16.2642Z" fill="#111111"/>
<path fill-rule="evenodd" clip-rule="evenodd" d="M85.9099 15.885L85.9062 15.8825C85.0486 15.3513 84.3652 14.6323 83.8622 13.7293L83.8597 13.7256C83.3653 12.8177 83.1211 11.7981 83.1211 10.6755C83.1211 9.55284 83.3726 8.51117 83.8818 7.60202L83.8842 7.59835C84.4032 6.69534 85.1063 5.98249 85.9921 5.46596C86.8816 4.93225 87.8816 4.66846 88.9833 4.66846C90.0851 4.66846 91.0789 4.93225 91.955 5.46596C92.8408 5.98249 93.5377 6.69532 94.0444 7.59957C94.5659 8.50749 94.8309 9.53443 94.8444 10.6706V15.4654C94.8444 15.7721 94.7438 16.047 94.5327 16.2617L94.5278 16.2666L94.5229 16.2715C94.3107 16.4678 94.0457 16.5586 93.7536 16.5586C93.4616 16.5586 93.1966 16.469 92.9856 16.2715L92.9807 16.2666L92.9745 16.2617C92.7635 16.047 92.6629 15.7721 92.6629 15.4654V15.0924C92.3427 15.4175 91.9795 15.7009 91.5759 15.9439H91.5734C90.7636 16.4248 89.8434 16.6604 88.8226 16.6604C87.7466 16.6604 86.7736 16.4028 85.9099 15.8825V15.885ZM90.8777 14.0937H90.8802C91.4433 13.7538 91.8826 13.2925 92.2016 12.7036V12.7011C92.5341 12.0999 92.7009 11.4276 92.7009 10.6755C92.7009 9.92337 92.5328 9.23875 92.204 8.65228L92.2016 8.64736C91.8826 8.05844 91.4433 7.59712 90.8802 7.25972L90.8728 7.25604C90.3281 6.91004 89.7011 6.73337 88.9809 6.73337C88.2607 6.73337 87.6485 6.91004 87.0878 7.25726L87.0841 7.25972C86.5197 7.59835 86.0719 8.0609 85.7381 8.65228C85.4093 9.23752 85.2412 9.90865 85.2412 10.6755C85.2412 11.4423 85.4081 12.0987 85.7394 12.6999C86.0719 13.2913 86.5197 13.7526 87.0841 14.0912C87.6448 14.4274 88.2742 14.5979 88.9809 14.5979C89.6876 14.5979 90.3317 14.4274 90.8765 14.0925L90.8777 14.0937Z" fill="#111111"/>
<path d="M37.1836 15.8459C37.2793 16.0593 37.4093 16.2397 37.5823 16.3685C37.7602 16.4998 37.9639 16.5611 38.1847 16.5611C38.4056 16.5611 38.6252 16.5022 38.8105 16.3734C38.9933 16.2458 39.1295 16.063 39.2264 15.8459L43.5955 6.22676C43.7133 5.98261 43.7219 5.72249 43.6274 5.46852C43.5317 5.19859 43.3476 4.99494 43.0949 4.86611L43.0863 4.86242L43.0777 4.85874C42.8201 4.74586 42.5501 4.73727 42.2839 4.82684C42.0078 4.90904 41.8066 5.09922 41.6913 5.36914L38.1884 13.2215L34.6303 5.35565L34.6254 5.34705C34.499 5.1078 34.3101 4.93113 34.0635 4.83421C33.7997 4.73115 33.5298 4.7569 33.277 4.88573C33.0206 5.00842 32.8231 5.19983 32.7225 5.46608C32.6243 5.72618 32.6366 5.9912 32.7507 6.24394L37.1823 15.8471L37.1836 15.8459Z" fill="#111111"/>
<path fill-rule="evenodd" clip-rule="evenodd" d="M70.3698 13.733C70.8901 14.636 71.5931 15.355 72.4765 15.885L72.4801 15.8874C73.3697 16.4064 74.3684 16.6629 75.4689 16.6629C76.5695 16.6629 77.5425 16.4064 78.4185 15.8862C79.3043 15.3697 80.0012 14.6642 80.5091 13.7722C81.0294 12.8668 81.3018 11.8545 81.33 10.7454V1.11404C81.33 0.802403 81.2343 0.521449 81.0134 0.312872C80.8036 0.101841 80.5374 0 80.2392 0C79.9411 0 79.6748 0.100614 79.465 0.312872C79.2442 0.521449 79.1485 0.802403 79.1485 1.11404V6.23891C78.7816 5.86838 78.3547 5.55429 77.8688 5.29664C77.102 4.8758 76.2456 4.66845 75.3082 4.66845C74.231 4.66845 73.2568 4.93346 72.393 5.46839C71.5342 5.98616 70.8508 6.699 70.3453 7.60202L70.3429 7.6057C69.8484 8.51363 69.6055 9.5332 69.6055 10.6558C69.6055 11.7785 69.857 12.8201 70.3649 13.7293L70.3674 13.733H70.3698ZM78.6921 8.6535C79.0234 9.23997 79.1902 9.90496 79.1902 10.6558C79.1902 11.4067 79.0221 12.0926 78.6921 12.679L78.6896 12.6839C78.3706 13.2741 77.9302 13.7428 77.3633 14.0949C76.8186 14.4286 76.1904 14.5992 75.4689 14.5992C74.7475 14.5992 74.1328 14.4299 73.5734 14.0937C73.0065 13.7416 72.5587 13.2716 72.2262 12.679C71.8973 12.0938 71.7293 11.4227 71.7293 10.6558C71.7293 9.88901 71.8973 9.23997 72.2262 8.6535L72.2286 8.65104C72.5611 8.04617 73.009 7.57749 73.5709 7.24008C74.1328 6.9039 74.7622 6.73336 75.4689 6.73336C76.1757 6.73336 76.8186 6.9039 77.3645 7.23885H77.367C77.9289 7.57748 78.3682 8.04371 78.6884 8.64613L78.6909 8.6535H78.6921Z" fill="#111111"/>
<path d="M65.6255 8.14314L65.6157 8.1321C65.4194 7.91249 65.3359 7.63274 65.3359 7.32601V6.11258C65.3359 5.80707 65.4206 5.52734 65.6267 5.3163C65.8402 5.09791 66.1175 4.99854 66.4255 4.99854C66.7334 4.99854 66.9849 5.09791 67.1849 5.3163C67.4021 5.52365 67.4966 5.80339 67.4966 6.11258V7.32601C67.4966 7.64133 67.3996 7.92352 67.1849 8.14191C66.9825 8.34926 66.7162 8.43884 66.4255 8.43884C66.1347 8.43884 65.8525 8.35171 65.6365 8.15172L65.6255 8.14191V8.14314Z" fill="#37D5C7"/>
</svg>
