<svg width="48" height="48" viewBox="0 0 48 48" fill="none" xmlns="http://www.w3.org/2000/svg">
  <g clipPath="url(#clip0_1135_12867)">
    <path
      d="M24 48C37.2548 48 48 37.2548 48 24C48 10.7452 37.2548 0 24 0C10.7452 0 0 10.7452 0 24C0 37.2548 10.7452 48 24 48Z"
      fill="#F3BA2F" />
    <path
      d="M18.9789 21.9376L23.9992 16.9173L29.0195 21.9423L31.9398 19.022L23.9992 11.0767L16.0586 19.0173L18.9789 21.9376Z"
      fill="white" />
    <path d="M11.0781 23.9976L13.9982 21.0774L16.9184 23.9975L13.9983 26.9176L11.0781 23.9976Z"
      fill="white" />
    <path
      d="M18.9797 26.0625L24 31.0829L29.0203 26.0579L31.9453 28.9782H31.9406L24 36.9235L16.0594 28.9829L16.0547 28.9782L18.9797 26.0625Z"
      fill="white" />
    <path d="M31.082 24.0024L34.0021 21.0823L36.9223 24.0023L34.0022 26.9225L31.082 24.0024Z"
      fill="white" />
    <path
      d="M26.9629 23.9999L24.0004 21.0327L21.8113 23.2265L21.5582 23.4749L21.0379 23.9952L21.0332 23.9999L21.0379 24.0046L24.0004 26.9671L26.9629 23.9999Z"
      fill="white" />
  </g>
  <defs>
    <clipPath id="clip0_1135_12867">
      <rect width="48" height="48" fill="white" />
    </clipPath>
  </defs>
</svg>