<svg width="109" height="140" viewBox="0 0 109 140" fill="none" xmlns="http://www.w3.org/2000/svg">
<path d="M0.0117188 71.6391L84.5485 22.8362L87.933 24.7883C88.3944 25.0919 88.7781 25.4995 89.0533 25.9783C89.3285 26.4572 89.4875 26.9939 89.5175 27.5453V89.9053C89.488 90.4569 89.3292 90.9938 89.054 91.4727C88.7787 91.9517 88.3947 92.3592 87.933 92.6624L6.57159 139.627C6.07933 139.872 5.53695 140 4.98708 140C4.4372 140 3.89482 139.872 3.40257 139.627L1.61524 138.594C1.1534 138.291 0.76899 137.883 0.492758 137.404C0.216527 136.926 0.0561383 136.389 0.0243975 135.837L0.0117188 71.6391Z" fill="#5354D1"/>
<path opacity="0.05" d="M0.0117188 71.6391L84.5485 22.8362L87.933 24.7883C88.3944 25.0919 88.7781 25.4995 89.0533 25.9783C89.3285 26.4572 89.4875 26.9939 89.5175 27.5453V89.9053C89.488 90.4569 89.3292 90.9938 89.054 91.4727C88.7787 91.9517 88.3947 92.3592 87.933 92.6624L6.57159 139.627C6.07933 139.872 5.53695 140 4.98708 140C4.4372 140 3.89482 139.872 3.40257 139.627L1.61524 138.594C1.1534 138.291 0.76899 137.883 0.492758 137.404C0.216527 136.926 0.0561383 136.389 0.0243975 135.837L0.0117188 71.6391Z" fill="black"/>
<path d="M84.0795 17.3475L84.4281 17.1574L83.1161 16.3968C83.0022 16.3328 82.8836 16.2778 82.7612 16.232L45.5569 2.44681C45.0468 2.27571 44.4956 2.27131 43.9828 2.43425C43.4701 2.59718 43.0225 2.919 42.7048 3.35315L1.08285 64.1286C0.436711 65.1767 0.0680847 66.372 0.0117188 67.6019V71.6392L1.27933 72.3871L84.5295 22.83V18.7926C84.5176 18.2783 84.3617 17.7777 84.0795 17.3475Z" fill="#5354D1"/>
<path opacity="0.1" d="M44.4238 3.65097C44.2582 3.78068 44.1129 3.9345 43.9928 4.10731L2.37093 64.8828C2.02901 65.4204 1.76845 66.0056 1.59769 66.6194L0.330078 65.8715C0.423886 65.5588 0.536052 65.252 0.665994 64.9525C0.723036 64.8257 0.780078 64.7053 0.843458 64.5849V64.5279C0.90938 64.4007 0.983483 64.2779 1.06529 64.1603L42.6999 3.35942C42.7626 3.26937 42.8326 3.18459 42.909 3.1059L43.1309 2.90308L44.4238 3.65097Z" fill="black"/>
<path opacity="0.35" d="M84.4106 17.1573C84.2981 17.0889 84.1792 17.0316 84.0556 16.9862L46.845 3.1946C46.4359 3.05853 45.9989 3.02903 45.5753 3.10888C45.1516 3.18873 44.7553 3.37529 44.4239 3.65093L43.1562 2.90304C43.4904 2.63001 43.8877 2.44518 44.3118 2.36545C44.7359 2.28573 45.1732 2.31367 45.5837 2.44671L82.788 16.232C82.9096 16.2774 83.0263 16.3347 83.1366 16.4031L84.4106 17.1573Z" fill="white"/>
<path d="M42.916 3.1059C42.9838 3.03182 43.058 2.96394 43.1378 2.90308C43.0566 2.9623 42.9823 3.03032 42.916 3.1059Z" fill="#5354D1"/>
<path opacity="0.2" d="M0.830078 64.5598C0.830078 64.5598 0.830078 64.5155 0.830078 64.4964C0.830078 64.4774 0.842754 64.5408 0.830078 64.5598Z" fill="black"/>
<path opacity="0.2" d="M42.707 3.35314C42.7679 3.26365 42.838 3.18081 42.9162 3.10596C42.8362 3.17907 42.7659 3.26214 42.707 3.35314Z" fill="black"/>
<path d="M43.9919 4.1137L2.37629 64.8955C1.72455 65.9391 1.35341 67.1333 1.29883 68.3624V72.3998L85.8356 23.5968V19.5405C85.8041 18.994 85.6207 18.4672 85.3061 18.0193C84.9914 17.5714 84.558 17.2202 84.0546 17.0053L46.8503 3.22004C46.3403 3.05109 45.7901 3.04646 45.2773 3.20679C44.7644 3.36711 44.3149 3.68432 43.9919 4.1137Z" fill="#5354D1"/>
<path d="M10.5025 131.134L7.78986 129.569C7.56603 129.398 7.39007 129.173 7.27903 128.914C7.16799 128.655 7.12564 128.372 7.15606 128.092V43.5681C7.19155 42.7101 7.45399 41.8768 7.91662 41.1533L10.6737 42.7378C10.2072 43.4642 9.94452 44.3026 9.9131 45.1653V129.658C9.8794 129.934 9.91574 130.213 10.0188 130.472C10.1218 130.73 10.2882 130.958 10.5025 131.134Z" fill="#E2E8F0"/>
<path d="M12.1952 41.1279L80.101 1.93341C81.3686 1.18552 82.427 1.78764 82.427 3.27708V87.7758C82.3847 88.5844 82.152 89.3716 81.7477 90.0732C81.3435 90.7748 80.7793 91.371 80.101 91.8132L12.1952 131.001C10.9276 131.743 9.86914 131.141 9.86914 129.651V45.1652C9.91296 44.3569 10.1463 43.5703 10.5504 42.869C10.9545 42.1676 11.5179 41.5712 12.1952 41.1279Z" fill="#E2E8F0"/>
<path d="M12.1952 41.1279L80.101 1.93341C81.3686 1.18552 82.427 1.78764 82.427 3.27708V87.7758C82.3847 88.5844 82.152 89.3716 81.7477 90.0732C81.3435 90.7748 80.7793 91.371 80.101 91.8132L12.1952 131.001C10.9276 131.743 9.86914 131.141 9.86914 129.651V45.1652C9.91296 44.3569 10.1463 43.5703 10.5504 42.869C10.9545 42.1676 11.5179 41.5712 12.1952 41.1279Z" fill="white" fill-opacity="0.7"/>
<path d="M78.9907 0.177848L81.6527 1.72433C81.395 1.62823 81.1173 1.59819 80.8449 1.63693C80.5726 1.67568 80.3143 1.78199 80.0936 1.94616L12.1941 41.1343C11.5427 41.5269 11.0019 42.0787 10.6223 42.7378L7.86523 41.1533C8.24778 40.4952 8.78516 39.9404 9.43073 39.5371L77.3365 0.310946C77.5724 0.137312 77.8514 0.0318765 78.1432 0.00616657C78.4349 -0.0195433 78.7281 0.0354604 78.9907 0.165169V0.177848Z" fill="#E2E8F0"/>
<path d="M17.4925 45.552L73.9581 12.9491C74.7187 12.5118 75.3335 12.8223 75.3335 13.6463C75.2991 14.1069 75.1566 14.5529 74.9176 14.9482C74.6787 15.3435 74.35 15.677 73.9581 15.9216L17.4925 48.5245C16.732 48.9618 16.1172 48.6513 16.1172 47.8336C16.1507 47.3719 16.2927 46.9246 16.5317 46.5281C16.7707 46.1316 17.0999 45.7972 17.4925 45.552Z" fill="#E2E8F0"/>
<path d="M17.4925 51.4777L73.9581 18.8749C74.7187 18.4375 75.3335 18.7481 75.3335 19.572C75.2991 20.0327 75.1566 20.4787 74.9176 20.874C74.6787 21.2693 74.35 21.6028 73.9581 21.8474L17.4925 54.4503C16.732 54.8876 16.1172 54.577 16.1172 53.7594C16.1507 53.2977 16.2927 52.8504 16.5317 52.4539C16.7707 52.0574 17.0999 51.723 17.4925 51.4777Z" fill="#E2E8F0"/>
<path d="M17.4925 57.4042L73.9581 24.8013C74.7187 24.364 75.3335 24.6746 75.3335 25.4922C75.3 25.9539 75.158 26.4012 74.919 26.7977C74.68 27.1942 74.3508 27.5286 73.9581 27.7739L17.4925 60.3767C16.732 60.8141 16.1172 60.5035 16.1172 59.6859C16.1507 59.2242 16.2927 58.7769 16.5317 58.3804C16.7707 57.9839 17.0999 57.6494 17.4925 57.4042Z" fill="#E2E8F0"/>
<path d="M17.4925 63.3302L73.9581 30.7337C74.7187 30.2964 75.3335 30.6069 75.3335 31.4245C75.3 31.8863 75.158 32.3336 74.919 32.7301C74.68 33.1265 74.3508 33.461 73.9581 33.7062L17.4925 66.3091C16.732 66.7464 16.1172 66.4359 16.1172 65.6119C16.1507 65.1502 16.2927 64.7029 16.5317 64.3064C16.7707 63.9099 17.0999 63.5755 17.4925 63.3302Z" fill="#E2E8F0"/>
<path d="M17.4925 69.2562L73.9581 36.6534C74.7187 36.216 75.3335 36.5266 75.3335 37.3442C75.3 37.8059 75.158 38.2532 74.919 38.6497C74.68 39.0462 74.3508 39.3807 73.9581 39.6259L17.4925 72.2288C16.732 72.6661 16.1172 72.3555 16.1172 71.5316C16.1516 71.071 16.2941 70.6249 16.533 70.2296C16.772 69.8343 17.1007 69.5009 17.4925 69.2562Z" fill="#E2E8F0"/>
<path d="M17.4925 75.182L73.9581 42.5791C74.7187 42.1418 75.3335 42.4524 75.3335 43.27C75.3 43.7317 75.158 44.179 74.919 44.5755C74.68 44.972 74.3508 45.3065 73.9581 45.5517L17.4925 78.1546C16.732 78.5919 16.1172 78.2813 16.1172 77.4574C16.1516 76.9968 16.2941 76.5507 16.533 76.1554C16.772 75.7601 17.1007 75.4266 17.4925 75.182Z" fill="#E2E8F0"/>
<path d="M17.4925 81.1083L73.9581 48.48C74.7187 48.0427 75.3335 48.3533 75.3335 49.1709C75.3 49.6326 75.158 50.0799 74.919 50.4764C74.68 50.8729 74.3508 51.2073 73.9581 51.4526L17.4925 84.0555C16.732 84.4928 16.1172 84.1822 16.1172 83.3583C16.1555 82.9021 16.2998 82.4611 16.5385 82.0705C16.7773 81.6798 17.104 81.3504 17.4925 81.1083Z" fill="#E2E8F0"/>
<path d="M17.4925 87.0344L73.9581 54.4316C74.7187 53.9879 75.3335 54.3048 75.3335 55.1224C75.3 55.5841 75.158 56.0314 74.919 56.4279C74.68 56.8244 74.3508 57.1589 73.9581 57.4041L17.4925 90.007C16.732 90.4443 16.1172 90.1337 16.1172 89.3098C16.1516 88.8492 16.2941 88.4031 16.533 88.0078C16.772 87.6125 17.1007 87.279 17.4925 87.0344Z" fill="#E2E8F0"/>
<path d="M87.376 90.7292C87.3507 90.7743 87.321 90.8168 87.2872 90.856L52.0604 75.2327C50.7229 74.641 49.2167 74.5524 47.8191 74.9833C46.4216 75.4143 45.2268 76.3356 44.4547 77.5778L6.7941 138.005L5.39973 138.81C5.24445 138.918 5.06451 138.986 4.87631 139.007C4.68811 139.028 4.49764 139.001 4.32227 138.93L43.054 76.7792C43.8279 75.539 45.0223 74.6188 46.4189 74.187C47.8155 73.7552 49.3209 73.8407 50.6597 74.4278L87.376 90.7292Z" fill="#5354D1"/>
<path opacity="0.4" d="M40.9761 83.073L41.0649 82.9969L6.78238 138.011L5.38801 138.816C5.23204 138.923 5.0522 138.99 4.86431 139.011C4.67643 139.032 4.48626 139.006 4.31055 138.936L39.5944 82.2617L40.9761 83.073Z" fill="white"/>
<path opacity="0.4" d="M87.3766 90.7357C87.3514 90.7809 87.3217 90.8233 87.2879 90.8625L52.0547 75.2329C50.7173 74.6412 49.211 74.5526 47.8135 74.9835C46.4159 75.4145 45.2211 76.3358 44.4491 77.578L43.0547 76.7667C43.8314 75.5298 45.0272 74.6136 46.4235 74.1854C47.8199 73.7571 49.3237 73.8455 50.6603 74.4343L87.3766 90.7357Z" fill="white"/>
<path d="M89.4927 27.1399C89.4167 26.6835 89.1758 26.5568 88.8589 26.7723C88.7022 26.8892 88.5653 27.0304 88.4533 27.1906L88.2758 27.4378L53.537 75.835L48.3461 83.0667C48.012 83.4881 47.5693 83.8105 47.0657 83.9992C46.562 84.1879 46.0165 84.2359 45.4877 84.1379L41.0067 83.0731L6.78126 74.935C6.55124 74.8881 6.3141 74.8881 6.08408 74.935C5.99475 74.9531 5.90762 74.9807 5.82422 75.0174L6.76859 74.4724L39.7264 82.3125L44.2201 83.3393C44.7489 83.4387 45.2949 83.3914 45.7988 83.2026C46.3027 83.0138 46.7453 82.6906 47.0785 82.2681L52.2694 75.0428L87.2047 26.3983C87.3112 26.2537 87.4446 26.131 87.5976 26.037L84.5934 24.3068L85.861 23.5779L87.9526 24.7821C88.3536 25.0525 88.6964 25.4004 88.9609 25.8053C89.2254 26.2102 89.4062 26.664 89.4927 27.1399Z" fill="#5354D1"/>
<path opacity="0.4" d="M53.5381 75.8351L48.3473 83.0668C48.0131 83.4882 47.5704 83.8106 47.0668 83.9993C46.5632 84.188 46.0176 84.2359 45.4888 84.1379L41.0078 83.0732L41.0965 82.9971L41.312 82.6548L44.2466 83.352C44.7754 83.4515 45.3214 83.4042 45.8253 83.2154C46.3292 83.0266 46.7717 82.7034 47.105 82.2809L52.2452 75.1316L53.5381 75.8351Z" fill="white"/>
<path opacity="0.1" d="M87.9273 24.7821L85.8357 23.5779L84.5681 24.3068L87.5914 26.0497C87.4387 26.1442 87.3054 26.2668 87.1984 26.411L52.2695 75.0555L52.2188 75.1252L53.4864 75.8287L88.2695 27.4378L88.447 27.1906C88.559 27.0304 88.696 26.8892 88.8526 26.7723C89.1632 26.5568 89.404 26.6835 89.4864 27.1399C89.3977 26.6625 89.2139 26.2078 88.9461 25.8028C88.6783 25.3978 88.3318 25.0507 87.9273 24.7821Z" fill="black"/>
<path d="M7.46525 75.949L0.0117188 71.6392V135.837C0.0434595 136.389 0.203858 136.926 0.480089 137.404C0.756321 137.883 1.14072 138.291 1.60256 138.594L3.3899 139.627C3.88215 139.872 4.42453 140 4.97441 140C5.52428 140 6.06666 139.872 6.55892 139.627L7.45257 139.108L7.46525 75.949Z" fill="#5354D1"/>
<path opacity="0.15" d="M7.46525 75.949L0.0117188 71.6392V135.837C0.0434595 136.389 0.203858 136.926 0.480089 137.404C0.756321 137.883 1.14072 138.291 1.60256 138.594L3.3899 139.627C3.88215 139.872 4.42453 140 4.97441 140C5.52428 140 6.06666 139.872 6.55892 139.627L7.45257 139.108L7.46525 75.949Z" fill="black"/>
<path d="M88.2772 27.4377V89.1196C88.2606 89.6909 88.0898 90.2472 87.7828 90.7294C87.55 91.1385 87.2323 91.4929 86.8511 91.7689L86.7941 91.8069L86.6863 91.8766L5.33123 138.841C5.23359 138.902 5.12939 138.951 5.02066 138.987C5.01395 138.892 5.01395 138.797 5.02066 138.702V76.3674C5.00656 76.1441 5.04691 75.9207 5.13823 75.7164C5.22956 75.5121 5.36913 75.3331 5.54495 75.1947C5.72077 75.0563 5.92757 74.9626 6.14758 74.9218C6.36759 74.881 6.59423 74.8942 6.80799 74.9604L41.0334 83.0984L45.5144 84.1632C46.0432 84.2612 46.5887 84.2133 47.0924 84.0246C47.596 83.8358 48.0387 83.5135 48.3729 83.0921L53.5384 75.835L88.2772 27.4377Z" fill="#455A64"/>
<path d="M89.5258 27.5645V89.9245C89.5058 90.4954 89.3353 91.0507 89.0314 91.5344C88.7951 91.9426 88.4781 92.2985 88.0997 92.5802L88.0363 92.6119C88.004 92.6372 87.9702 92.6605 87.9349 92.6816L6.57982 139.621C6.42439 139.732 6.2436 139.801 6.05416 139.823C5.86473 139.846 5.67276 139.82 5.49601 139.748C5.36104 139.669 5.24724 139.559 5.16443 139.426C5.08162 139.294 5.03228 139.143 5.02066 138.987C5.01395 138.892 5.01395 138.797 5.02066 138.702V76.3675C5.00656 76.1441 5.04691 75.9207 5.13823 75.7165C5.22956 75.5122 5.36913 75.3331 5.54495 75.1947C5.72077 75.0563 5.92757 74.9627 6.14758 74.9219C6.36759 74.881 6.59423 74.8943 6.80799 74.9604L41.0334 83.0985L45.5144 84.1632C46.0432 84.2613 46.5887 84.2133 47.0924 84.0246C47.596 83.8359 48.0387 83.5135 48.3729 83.0921L53.5384 75.8351L88.3025 27.4378L88.48 27.1906C89.0314 26.373 89.5258 26.5251 89.5258 27.5645Z" fill="#5354D1"/>
<path d="M87.9337 92.6564L88.0351 92.5866L88.0985 92.555C88.4768 92.2732 88.7938 91.9174 89.0301 91.5092C89.326 91.0339 89.4941 90.4903 89.5182 89.931L53.5371 75.8352L77.6217 98.6078L87.9337 92.6564Z" fill="#5354D1"/>
<path opacity="0.2" d="M87.9337 92.6564L88.0351 92.5866L88.0985 92.555C88.4768 92.2732 88.7938 91.9174 89.0301 91.5092C89.326 91.0339 89.4941 90.4903 89.5182 89.931L53.5371 75.8352L77.6217 98.6078L87.9337 92.6564Z" fill="black"/>
<path d="M4.98759 138.708C4.96433 138.911 4.9983 139.117 5.08566 139.302C5.17301 139.487 5.31027 139.643 5.48196 139.754C5.6587 139.826 5.85067 139.852 6.0401 139.83C6.22954 139.807 6.41033 139.738 6.56577 139.627L34.5736 123.459L40.9687 83.0793L4.98759 137.669V138.708Z" fill="#5354D1"/>
<path opacity="0.15" d="M44.4317 77.5718L5.47805 139.748C5.30637 139.637 5.1691 139.48 5.08175 139.296C4.99439 139.111 4.96043 138.905 4.98368 138.702V137.669L39.3549 82.7056L39.6211 82.281L43.0373 76.8049L44.4317 77.5718Z" fill="black"/>
<path d="M89.0315 91.5089C88.7952 91.9171 88.4781 92.2729 88.0998 92.5546L88.0364 92.5863L6.5799 139.621C6.42447 139.731 6.24368 139.801 6.05424 139.823C5.86481 139.845 5.67284 139.819 5.49609 139.748L44.4497 77.5525C45.2309 76.3048 46.4355 75.3804 47.8428 74.9486C49.2501 74.5167 50.7658 74.6064 52.1124 75.2011L89.0315 91.5089Z" fill="#5354D1"/>
<path d="M89.03 91.5153C88.7972 91.9244 88.4795 92.2788 88.0983 92.5548L88.0413 92.5928L6.57208 139.627C6.4156 139.736 6.23461 139.804 6.0454 139.825C5.8562 139.846 5.66474 139.819 5.48828 139.748L6.57208 138.024L86.6279 91.7942L86.6913 91.7562C87.0285 91.5092 87.3148 91.1993 87.5342 90.8435L89.03 91.5153Z" fill="#5354D1"/>
<path opacity="0.15" d="M0.297889 65.8716L1.5655 66.6195C1.38583 67.1816 1.28556 67.7662 1.26761 68.3561V72.3871L0 71.6392V67.6019C0.0185421 67.0141 0.118801 66.4317 0.297889 65.8716Z" fill="black"/>
<path d="M7.95377 74.7321L6.76222 74.4469L5.81785 74.992L4.51221 74.2378L1.29883 72.3871L2.54742 71.6455L7.95377 74.7321Z" fill="#5354D1"/>
<path opacity="0.1" d="M7.95278 74.7321L2.55276 71.6519L1.28516 72.3934L4.49855 74.2441L5.80418 74.9983C5.88004 74.9607 5.9613 74.935 6.04503 74.9223C6.27506 74.8753 6.51219 74.8753 6.74221 74.9223L9.3725 75.5561L39.3514 82.7054L39.6176 82.2808L7.95278 74.7321Z" fill="black"/>
<path d="M104.562 77.2165L98.5469 73.7305L98.4961 73.6989C95.8722 72.2158 92.2658 72.4312 88.2792 74.7446C80.2553 79.3777 73.7461 90.6468 73.7461 99.913C73.7461 104.54 75.375 107.791 77.9926 109.312L83.475 112.481L84.7426 110.333C86.2075 110.008 87.614 109.461 88.913 108.71C96.937 104.077 103.446 92.8081 103.446 83.5418C103.445 82.2899 103.292 81.0428 102.99 79.8277L104.562 77.2165Z" fill="#FD4F64"/>
<path opacity="0.15" d="M74.278 95.0391C73.9233 96.6419 73.7385 98.2777 73.7266 99.9194C73.7266 104.546 75.3554 107.798 77.973 109.319L83.4555 112.488L84.7231 110.339C86.188 110.015 87.5944 109.467 88.8935 108.717C90.3136 107.886 91.6415 106.906 92.8548 105.795L74.278 95.0391Z" fill="black"/>
<path d="M93.9823 78.0467C85.9584 82.6798 79.4492 93.9488 79.4492 103.215C79.4492 112.481 85.9584 116.24 93.9823 111.607C102.006 106.974 108.515 95.7045 108.515 86.4383C108.515 77.172 102.013 73.4136 93.9823 78.0467Z" fill="#FFA8A7"/>
<path d="M99.7263 90.9446V87.3826C99.7263 83.3199 97.2545 81.4502 94.2123 83.2121C91.1637 84.9741 88.6918 89.6896 88.6918 93.7523V96.9213C88.6251 99.1203 87.9849 101.264 86.8348 103.139C86.5517 103.636 86.3971 104.196 86.3848 104.768C86.3848 105.788 87.0186 106.264 87.7728 105.82L100.658 98.3791C101.081 98.0754 101.426 97.6771 101.667 97.216C101.908 96.7549 102.038 96.2437 102.046 95.7234C102.066 95.5247 102.039 95.3242 101.969 95.1373C101.899 94.9505 101.786 94.7823 101.64 94.646C100.474 94.1516 99.7263 92.846 99.7263 90.9446Z" fill="white"/>
<path d="M96.8548 101.719C96.8548 103.671 95.6696 105.934 94.2118 106.79C92.7541 107.645 91.5625 106.739 91.5625 104.793L96.8548 101.719Z" fill="white"/>
</svg>
