<svg width="114" height="152" viewBox="0 0 114 152" fill="none" xmlns="http://www.w3.org/2000/svg">
<g id="Group">
<g id="freepik--Folder--inject-308">
<g id="freepik--folder--inject-308">
<path id="Vector" d="M95.0356 92.1639V97.3429L5.25533 149.177L2.47092 150.764C1.84397 150.339 1.32611 149.772 0.959396 149.11C0.592678 148.447 0.387444 147.707 0.360352 146.95V59.6588C0.365687 59.5037 0.409715 59.3525 0.488432 59.2189C0.567563 59.0816 0.678289 58.9651 0.811423 58.8792L21.2712 47.0677C21.5218 46.9229 22.9808 47.5355 23.2203 47.6803L23.3762 47.7694C23.5119 47.8546 23.6323 47.9619 23.7326 48.0868C23.8495 48.2094 23.9387 48.3556 23.9944 48.5156L25.8488 53.8672L92.4962 14.1951C92.6325 14.129 92.7819 14.0947 92.9334 14.0947C93.0848 14.0947 93.2342 14.129 93.3705 14.1951L94.6068 14.9134C94.739 14.9939 94.8483 15.1071 94.9242 15.242C95.0064 15.3785 95.0525 15.5338 95.0579 15.6931V92.1639H95.0356Z" fill="#5354D1"/>
<path id="Vector_2" opacity="0.5" d="M95.0356 92.1639V97.3429L5.25533 149.177L2.47092 150.764C1.84397 150.339 1.32611 149.772 0.959396 149.11C0.592678 148.447 0.387444 147.707 0.360352 146.95V59.6588C0.365687 59.5037 0.409715 59.3525 0.488432 59.2189C0.567563 59.0816 0.678289 58.9651 0.811423 58.8792L21.2712 47.0677C21.5218 46.9229 22.9808 47.5355 23.2203 47.6803L23.3762 47.7694C23.5119 47.8546 23.6323 47.9619 23.7326 48.0868C23.8495 48.2094 23.9387 48.3556 23.9944 48.5156L25.8488 53.8672L92.4962 14.1951C92.6325 14.129 92.7819 14.0947 92.9334 14.0947C93.0848 14.0947 93.2342 14.129 93.3705 14.1951L94.6068 14.9134C94.739 14.9939 94.8483 15.1071 94.9242 15.242C95.0064 15.3785 95.0525 15.5338 95.0579 15.6931V92.1639H95.0356Z" fill="black"/>
<path id="Vector_3" d="M95.0355 97.3431L2.49316 150.765V60.3551L23.7549 48.1037C23.8717 48.2263 23.961 48.3725 24.0166 48.5325L25.871 53.8841L26.2218 54.8976L94.8963 15.2422C94.9786 15.3787 95.0246 15.534 95.03 15.6933L95.0355 97.3431Z" fill="#5354D1"/>
<path id="Vector_4" d="M23.7549 48.0863L2.49324 60.3377L0.510742 59.2239C0.589874 59.0866 0.700599 58.9702 0.833734 58.8842L21.2991 47.0728C21.4358 47.0016 21.5877 46.9644 21.7418 46.9644C21.896 46.9644 22.0478 47.0016 22.1845 47.0728L23.3985 47.7745C23.5338 47.858 23.6542 47.9634 23.7549 48.0863Z" fill="#5354D1"/>
<path id="Vector_5" opacity="0.2" d="M23.7549 48.0863L2.49324 60.3377L0.510742 59.2239C0.589874 59.0866 0.700599 58.9702 0.833734 58.8842L21.2991 47.0728C21.4358 47.0016 21.5877 46.9644 21.7418 46.9644C21.896 46.9644 22.0478 47.0016 22.1845 47.0728L23.3985 47.7745C23.5338 47.858 23.6542 47.9634 23.7549 48.0863Z" fill="black"/>
<path id="Vector_6" d="M94.8967 15.225L26.2278 54.8805L25.877 53.867L92.4966 14.1892C92.6333 14.1248 92.7825 14.0913 92.9337 14.0913C93.0849 14.0913 93.2341 14.1248 93.3709 14.1892L94.6071 14.9076C94.7278 14.9886 94.8272 15.0975 94.8967 15.225Z" fill="#5354D1"/>
<path id="Vector_7" opacity="0.2" d="M94.8967 15.225L26.2278 54.8805L25.877 53.867L92.4966 14.1892C92.6333 14.1248 92.7825 14.0913 92.9337 14.0913C93.0849 14.0913 93.2341 14.1248 93.3709 14.1892L94.6071 14.9076C94.7278 14.9886 94.8272 15.0975 94.8967 15.225Z" fill="black"/>
<g id="freepik--Document--inject-308">
<path id="Vector_8" d="M28.8952 127.063C28.5989 126.862 28.3542 126.594 28.181 126.281C28.0079 125.967 27.911 125.617 27.8984 125.259V35.8075C27.9178 35.4381 28.0242 35.0786 28.2091 34.7582C28.3939 34.4378 28.652 34.1658 28.9621 33.9642L85.9254 1.10827C86.2327 0.914017 86.5872 0.807487 86.9507 0.800205C87.3141 0.792922 87.6727 0.885163 87.9875 1.06695C88.3023 1.24873 88.5615 1.51314 88.7369 1.83157C88.9123 2.15 88.9973 2.51033 88.9826 2.87358V92.3253C88.9633 92.6946 88.8569 93.0542 88.672 93.3746C88.4872 93.6949 88.2291 93.967 87.919 94.1685L30.9557 127.024C30.6395 127.192 30.2881 127.284 29.9301 127.29C29.5721 127.297 29.2176 127.219 28.8952 127.063Z" fill="#FAFAFA"/>
<path id="Vector_9" d="M30.9552 127.024L87.9185 94.1684C88.2287 93.9668 88.4867 93.6947 88.6715 93.3744C88.8564 93.054 88.9629 92.6944 88.9822 92.3251V2.87337C88.9822 2.19397 88.5088 1.9211 87.9185 2.25523L30.9552 35.1112C30.646 35.3137 30.3887 35.586 30.204 35.9062C30.0192 36.2263 29.9122 36.5854 29.8916 36.9544V126.412C29.8916 127.091 30.3705 127.364 30.9552 127.024Z" fill="white"/>
<path id="Vector_10" d="M36.7471 38.67L80.7685 13.2484C81.2864 12.9477 81.7097 13.1927 81.7097 13.8053V14.1784C81.6916 14.5043 81.597 14.8214 81.4334 15.1039C81.2699 15.3864 81.0421 15.6264 80.7685 15.8045L36.7471 41.2205C36.2292 41.5212 35.806 41.2818 35.8116 40.6636V40.2905C35.8286 39.9657 35.9222 39.6496 36.0848 39.3679C36.2474 39.0863 36.4744 38.8471 36.7471 38.67Z" fill="#E2E8F0"/>
<path id="Vector_11" d="M36.7471 45.0069L80.7685 19.5853C81.2864 19.2902 81.7097 19.5296 81.7097 20.1422V20.5153C81.6916 20.8405 81.597 21.1568 81.4334 21.4384C81.2698 21.72 81.042 21.959 80.7685 22.1358L36.7471 47.5463C36.2292 47.847 35.806 47.602 35.8116 46.9894V46.6163C35.8311 46.2936 35.9259 45.98 36.0884 45.7006C36.2508 45.4211 36.4764 45.1836 36.7471 45.0069Z" fill="#E2E8F0"/>
<path id="Vector_12" d="M36.7471 51.3446L80.7685 25.9286C81.2864 25.6279 81.7097 25.8729 81.7097 26.4855V26.8586C81.6907 27.1843 81.5957 27.501 81.4323 27.7834C81.2689 28.0658 81.0415 28.306 80.7685 28.4847L36.7471 53.9007C36.2292 54.2014 35.806 53.9564 35.8116 53.3438V52.9707C35.829 52.6453 35.9228 52.3285 36.0853 52.046C36.2478 51.7635 36.4746 51.5232 36.7471 51.3446Z" fill="#E2E8F0"/>
<path id="Vector_13" d="M36.7471 57.6871L80.7685 32.2655C81.2864 31.9703 81.7097 32.2098 81.7097 32.8224V33.2011C81.6907 33.526 81.5957 33.842 81.4322 34.1235C81.2687 34.405 81.0414 34.6441 80.7685 34.8216L36.7471 60.2432C36.2292 60.5383 35.806 60.2989 35.8116 59.6863V59.3076C35.8294 58.983 35.9234 58.6672 36.086 58.3857C36.2485 58.1042 36.475 57.8649 36.7471 57.6871Z" fill="#E2E8F0"/>
<path id="Vector_14" d="M36.7471 64.0243L80.7685 38.6083C81.2864 38.3076 81.7097 38.547 81.7097 39.1652V39.5383C81.6907 39.864 81.5957 40.1807 81.4323 40.4631C81.2689 40.7455 81.0415 40.9857 80.7685 41.1644L36.7471 66.5804C36.2292 66.8811 35.806 66.6361 35.8116 66.0235V65.6448C35.8299 65.3204 35.9241 65.0047 36.0865 64.7232C36.249 64.4418 36.4753 64.2024 36.7471 64.0243Z" fill="#E2E8F0"/>
<path id="Vector_15" d="M36.7471 70.4122L80.7685 44.9906C81.2864 44.6954 81.7097 44.9349 81.7097 45.5475V45.9206C81.6916 46.2457 81.597 46.562 81.4334 46.8437C81.2698 47.1253 81.042 47.3643 80.7685 47.5411L36.7471 72.9627C36.2292 73.2634 35.806 73.0184 35.8116 72.4058V72.0327C35.8294 71.7081 35.9234 71.3923 36.086 71.1108C36.2485 70.8293 36.475 70.5899 36.7471 70.4122Z" fill="#E2E8F0"/>
<path id="Vector_16" d="M36.7471 76.7494L80.7685 51.3334C81.2864 51.0326 81.7097 51.2777 81.7097 51.8902V52.2633C81.6916 52.5893 81.597 52.9064 81.4334 53.1889C81.2699 53.4714 81.0421 53.7114 80.7685 53.8894L36.7471 79.2888C36.2292 79.5895 35.806 79.35 35.8116 78.7319V78.3588C35.8316 78.0362 35.9266 77.7228 36.089 77.4434C36.2514 77.164 36.4767 76.9264 36.7471 76.7494Z" fill="#E2E8F0"/>
<path id="Vector_17" d="M36.7471 83.0924L80.7685 57.6708C81.2864 57.3756 81.7097 57.6151 81.7097 58.2276V58.6063C81.6916 58.9315 81.597 59.2478 81.4334 59.5294C81.2698 59.8111 81.042 60.05 80.7685 60.2268L36.7471 85.6484C36.2292 85.9491 35.806 85.7041 35.8116 85.0916V84.7184C35.8286 84.3929 35.9222 84.076 36.0847 83.7934C36.2473 83.5109 36.4742 83.2707 36.7471 83.0924Z" fill="#E2E8F0"/>
<path id="Vector_18" d="M36.7471 89.4296L80.7685 64.0135C81.2864 63.7128 81.7097 63.9578 81.7097 64.5704V64.9435C81.6907 65.2692 81.5957 65.586 81.4323 65.8684C81.2689 66.1508 81.0415 66.3909 80.7685 66.5696L36.7471 91.9856C36.2292 92.2863 35.806 92.0413 35.8116 91.4287V91.0556C35.829 90.7302 35.9228 90.4134 36.0853 90.131C36.2478 89.8485 36.4746 89.6082 36.7471 89.4296Z" fill="#E2E8F0"/>
<path id="Vector_19" d="M36.7471 95.7725L80.7685 70.3509C81.2864 70.0502 81.7097 70.2952 81.7097 70.9078V71.2809C81.6916 71.6069 81.597 71.9239 81.4334 72.2065C81.2699 72.489 81.0421 72.729 80.7685 72.907L36.7471 98.3286C36.2292 98.6238 35.806 98.3843 35.8116 97.7717V97.3875C35.8294 97.0637 35.9234 96.7486 36.086 96.468C36.2486 96.1874 36.4751 95.9491 36.7471 95.7725Z" fill="#E2E8F0"/>
<path id="Vector_20" d="M36.7471 102.138L80.7685 76.7216C81.2864 76.4208 81.7097 76.6603 81.7097 77.2784V77.6516C81.6907 77.9773 81.5957 78.294 81.4323 78.5764C81.2689 78.8588 81.0415 79.099 80.7685 79.2776L36.7471 104.694C36.2292 104.994 35.806 104.749 35.8116 104.137V103.764C35.8286 103.438 35.9222 103.121 36.0847 102.839C36.2473 102.556 36.4742 102.316 36.7471 102.138Z" fill="#E2E8F0"/>
<path id="Vector_21" d="M36.7471 108.481L80.7685 83.0589C81.2864 82.7582 81.7097 83.0033 81.7097 83.6158V83.9889C81.6916 84.3149 81.597 84.6319 81.4334 84.9145C81.2699 85.197 81.0421 85.437 80.7685 85.615L36.7471 111.037C36.2292 111.332 35.806 111.092 35.8116 110.48V110.107C35.8277 109.781 35.9209 109.464 36.0836 109.181C36.2462 108.898 36.4736 108.658 36.7471 108.481Z" fill="#E2E8F0"/>
<path id="Vector_22" d="M36.7471 114.818L80.7685 89.3963C81.2864 89.1012 81.7097 89.3407 81.7097 89.9532V90.3263C81.6916 90.6515 81.597 90.9678 81.4334 91.2494C81.2698 91.5311 81.042 91.77 80.7685 91.9469L36.7471 117.368C36.2292 117.669 35.806 117.424 35.8116 116.812V116.438C35.8294 116.114 35.9234 115.798 36.086 115.517C36.2485 115.235 36.475 114.996 36.7471 114.818Z" fill="#E2E8F0"/>
<path id="Vector_23" d="M30.8162 127.097C30.5072 127.261 30.1603 127.341 29.8107 127.328C29.4611 127.315 29.1211 127.21 28.8251 127.023C28.5291 126.837 28.2875 126.575 28.1247 126.266C27.962 125.956 27.8838 125.609 27.8982 125.259V35.8077C27.9136 35.4382 28.0208 35.0784 28.21 34.7607L30.2036 35.9135C30.0113 36.2277 29.9038 36.5866 29.8918 36.9549V126.412C29.8918 127.036 30.2983 127.314 30.8162 127.097Z" fill="#E2E8F0"/>
</g>
<g id="freepik--document--inject-308">
<path id="Vector_24" d="M36.8913 131.68C36.595 131.479 36.3503 131.211 36.1771 130.897C36.0039 130.584 35.9071 130.234 35.8945 129.876V40.424C35.9152 40.0549 36.0222 39.6959 36.2069 39.3757C36.3917 39.0556 36.649 38.7832 36.9582 38.5807L93.9215 5.72476C94.2292 5.53105 94.584 5.42494 94.9475 5.41786C95.3111 5.41078 95.6697 5.503 95.9848 5.68459C96.2998 5.86617 96.5594 6.13025 96.7355 6.44839C96.9116 6.76653 96.9977 7.12668 96.9843 7.49007V96.9418C96.9637 97.3108 96.8567 97.6699 96.6719 97.99C96.4872 98.3102 96.2299 98.5825 95.9207 98.785L38.9518 131.641C38.6356 131.809 38.2842 131.9 37.9262 131.907C37.5682 131.914 37.2137 131.836 36.8913 131.68Z" fill="#FAFAFA"/>
<path id="Vector_25" d="M38.9513 131.641L95.9202 98.785C96.2294 98.5825 96.4867 98.3102 96.6715 97.99C96.8562 97.6698 96.9632 97.3108 96.9838 96.9417V7.49003C96.9838 6.81063 96.5049 6.53776 95.9202 6.87746L38.9513 39.7334C38.6421 39.936 38.3848 40.2083 38.2001 40.5284C38.0153 40.8486 37.9083 41.2076 37.8877 41.5767V131.028C37.8877 131.708 38.3666 131.981 38.9513 131.641Z" fill="white"/>
<path id="Vector_26" d="M44.7432 43.2862L88.7646 17.8646C89.2825 17.5639 89.7057 17.8089 89.7057 18.4215V18.7946C89.6876 19.1205 89.593 19.4376 89.4295 19.7201C89.266 20.0027 89.0382 20.2427 88.7646 20.4207L44.7432 45.8423C44.2253 46.1374 43.8076 45.898 43.8076 45.2854V44.9123C43.8237 44.5865 43.9169 44.2693 44.0796 43.9866C44.2422 43.7039 44.4697 43.4639 44.7432 43.2862Z" fill="#E2E8F0"/>
<path id="Vector_27" d="M44.7432 49.6236L88.7646 24.202C89.2825 23.9069 89.7057 24.1463 89.7057 24.7589V25.132C89.6876 25.4572 89.593 25.7735 89.4294 26.0551C89.2659 26.3367 89.0381 26.5757 88.7646 26.7525L44.7432 52.1741C44.2253 52.4748 43.8076 52.2298 43.8076 51.6172V51.2441C43.8255 50.9195 43.9195 50.6037 44.082 50.3222C44.2445 50.0407 44.471 49.8014 44.7432 49.6236Z" fill="#E2E8F0"/>
<path id="Vector_28" d="M44.7432 55.9663L88.7646 30.5614C89.2825 30.2607 89.7057 30.5057 89.7057 31.1183V31.4914C89.6876 31.8173 89.593 32.1344 89.4295 32.4169C89.266 32.6994 89.0382 32.9394 88.7646 33.1175L44.7432 58.5335C44.2253 58.8342 43.8076 58.5947 43.8076 57.9766V57.6035C43.822 57.2758 43.9144 56.9563 44.0771 56.6716C44.2398 56.3868 44.4682 56.145 44.7432 55.9663Z" fill="#E2E8F0"/>
<path id="Vector_29" d="M44.7432 62.3038L88.7646 36.8822C89.2825 36.587 89.7057 36.8265 89.7057 37.4391V37.801C89.6876 38.1262 89.593 38.4425 89.4294 38.7241C89.2659 39.0058 89.0381 39.2447 88.7646 39.4216L44.7432 64.8431C44.2253 65.1439 43.8076 64.8988 43.8076 64.2863V63.9132C43.8272 63.5905 43.922 63.2769 44.0844 62.9975C44.2469 62.718 44.4725 62.4804 44.7432 62.3038Z" fill="#E2E8F0"/>
<path id="Vector_30" d="M44.7432 68.641L88.7646 43.225C89.2825 42.9242 89.7057 43.1693 89.7057 43.7818V44.1549C89.6867 44.4807 89.5918 44.7974 89.4283 45.0798C89.2649 45.3622 89.0376 45.6024 88.7646 45.781L44.7432 71.1971C44.2253 71.4978 43.8076 71.2527 43.8076 70.6402V70.2671C43.8251 69.9416 43.9188 69.6249 44.0814 69.3424C44.2439 69.0599 44.4706 68.8196 44.7432 68.641Z" fill="#E2E8F0"/>
<path id="Vector_31" d="M44.7432 75.0287L88.7646 49.6127C89.2825 49.312 89.7057 49.5514 89.7057 50.1696V50.5427C89.6876 50.8678 89.593 51.1841 89.4294 51.4658C89.2659 51.7474 89.0381 51.9864 88.7646 52.1632L44.7432 77.5848C44.2253 77.8855 43.8076 77.6405 43.8076 77.0279V76.6548C43.8246 76.3293 43.9182 76.0123 44.0808 75.7298C44.2433 75.4472 44.4703 75.207 44.7432 75.0287Z" fill="#E2E8F0"/>
<path id="Vector_32" d="M44.7432 81.3712L88.7646 55.9496C89.2825 55.6489 89.7057 55.8939 89.7057 56.5064V56.8796C89.6876 57.2055 89.593 57.5226 89.4295 57.8051C89.266 58.0876 89.0382 58.3276 88.7646 58.5056L44.7432 83.9105C44.2253 84.2057 43.8076 83.9662 43.8076 83.3537V82.9805C43.8263 82.6577 43.9207 82.3438 44.0833 82.0642C44.2458 81.7846 44.4719 81.5472 44.7432 81.3712Z" fill="#E2E8F0"/>
<path id="Vector_33" d="M44.7432 87.7085L88.7646 62.3036C89.2825 62.0084 89.7057 62.2479 89.7057 62.8605V63.2336C89.6876 63.5587 89.593 63.875 89.4294 64.1567C89.2659 64.4383 89.0381 64.6773 88.7646 64.8541L44.7432 90.2757C44.2253 90.5764 43.8076 90.3314 43.8076 89.7188V89.3457C43.8229 89.0182 43.9157 88.6991 44.0783 88.4145C44.2409 88.1298 44.4688 87.8879 44.7432 87.7085Z" fill="#E2E8F0"/>
<path id="Vector_34" d="M44.7432 94.0458L88.7646 68.6297C89.2825 68.329 89.7057 68.5741 89.7057 69.1866V69.543C89.6876 69.869 89.593 70.186 89.4295 70.4686C89.266 70.7511 89.0382 70.9911 88.7646 71.1691L44.7432 96.5851C44.2253 96.8859 43.8076 96.6464 43.8076 96.0283V95.6551C43.8276 95.3326 43.9226 95.0192 44.085 94.7398C44.2474 94.4604 44.4728 94.2228 44.7432 94.0458Z" fill="#E2E8F0"/>
<path id="Vector_35" d="M44.7432 100.389L88.7646 74.9671C89.2825 74.672 89.7057 74.9115 89.7057 75.524V75.9027C89.6876 76.2279 89.593 76.5442 89.4294 76.8258C89.2659 77.1074 89.0381 77.3464 88.7646 77.5232L44.7432 102.956C44.2253 103.257 43.8076 103.012 43.8076 102.399V102.026C43.8229 101.698 43.9157 101.379 44.0783 101.095C44.2409 100.81 44.4688 100.568 44.7432 100.389Z" fill="#E2E8F0"/>
<path id="Vector_36" d="M44.7432 106.754L88.7646 81.3382C89.2825 81.0375 89.7057 81.2826 89.7057 81.8951V82.2682C89.6867 82.594 89.5918 82.9107 89.4283 83.1931C89.2649 83.4755 89.0376 83.7156 88.7646 83.8943L44.7432 109.31C44.2253 109.611 43.8076 109.366 43.8076 108.753V108.38C43.8251 108.055 43.9188 107.738 44.0814 107.456C44.2439 107.173 44.4706 106.933 44.7432 106.754Z" fill="#E2E8F0"/>
<path id="Vector_37" d="M44.7432 113.097L88.7646 87.6752C89.2825 87.3744 89.7057 87.6195 89.7057 88.232V88.6051C89.6876 88.9311 89.593 89.2482 89.4295 89.5307C89.266 89.8132 89.0382 90.0532 88.7646 90.2312L44.7432 115.653C44.2253 115.948 43.8076 115.709 43.8076 115.096V114.717C43.8246 114.392 43.9182 114.076 44.0808 113.795C44.2434 113.513 44.4704 113.274 44.7432 113.097Z" fill="#E2E8F0"/>
<path id="Vector_38" d="M44.7432 119.434L88.7646 94.0458C89.2825 93.7451 89.7057 93.9845 89.7057 94.6027V94.9758C89.6867 95.3015 89.5918 95.6182 89.4283 95.9006C89.2649 96.183 89.0376 96.4232 88.7646 96.6019L44.7432 122.018C44.2253 122.319 43.8076 122.074 43.8076 121.461V121.088C43.8203 120.758 43.9118 120.435 44.0746 120.147C44.2373 119.86 44.4666 119.615 44.7432 119.434Z" fill="#E2E8F0"/>
<path id="Vector_39" d="M38.8123 131.713C38.5033 131.877 38.1564 131.957 37.8068 131.944C37.4572 131.931 37.1172 131.826 36.8212 131.639C36.5252 131.453 36.2836 131.192 36.1208 130.882C35.9581 130.572 35.8799 130.225 35.8942 129.876V40.4239C35.9097 40.0544 36.0169 39.6946 36.2061 39.377L38.2053 40.5297C38.0112 40.8435 37.9018 41.2023 37.8879 41.5711V131.028C37.8879 131.652 38.2944 131.914 38.8123 131.713Z" fill="#E2E8F0"/>
</g>
<path id="Vector_40" d="M113.93 25.8727L99.0952 90.1479L97.7253 96.0564C97.2725 97.6346 96.2662 98.9967 94.8908 99.8933L6.85911 150.686C6.21967 151.037 5.50527 151.228 4.77638 151.243C3.98549 151.3 3.19444 151.134 2.49316 150.764L2.94981 148.804C2.94981 148.743 2.94981 148.682 2.99436 148.615L3.48998 146.465L5.62283 137.143L19.2608 78.0747C19.2788 77.9989 19.3069 77.9258 19.3444 77.8575C19.38 77.7906 19.4191 77.7256 19.4613 77.6626V77.6292C19.5563 77.5019 19.6732 77.3925 19.8066 77.3062L94.9854 33.903L111.436 24.4026C111.576 24.3312 111.732 24.2939 111.89 24.2939C112.047 24.2939 112.203 24.3312 112.343 24.4026L113.557 25.1042C113.69 25.1799 113.796 25.2938 113.863 25.4309C113.929 25.568 113.953 25.722 113.93 25.8727Z" fill="#5354D1"/>
<path id="Vector_41" d="M113.947 25.7388C113.947 25.5606 113.802 25.4993 113.602 25.6219L21.9617 78.5255C21.8272 78.608 21.7099 78.7158 21.6164 78.8429L19.5059 77.6233C19.6008 77.496 19.7178 77.3866 19.8511 77.3004L111.48 24.3967C111.621 24.3253 111.776 24.2881 111.934 24.2881C112.092 24.2881 112.247 24.3253 112.388 24.3967L113.602 25.0984C113.708 25.1687 113.794 25.2638 113.855 25.3755C113.915 25.4872 113.947 25.6119 113.947 25.7388Z" fill="#5354D1"/>
<path id="Vector_42" opacity="0.2" d="M113.947 25.7388C113.947 25.5606 113.802 25.4993 113.602 25.6219L21.9617 78.5255C21.8272 78.608 21.7099 78.7158 21.6164 78.8429L19.5059 77.6233C19.6008 77.496 19.7178 77.3866 19.8511 77.3004L111.48 24.3967C111.621 24.3253 111.776 24.2881 111.934 24.2881C112.092 24.2881 112.247 24.3253 112.388 24.3967L113.602 25.0984C113.708 25.1687 113.794 25.2638 113.855 25.3755C113.915 25.4872 113.947 25.6119 113.947 25.7388Z" fill="black"/>
<path id="Vector_43" d="M21.6166 78.849C21.5586 78.9305 21.5065 79.0161 21.4607 79.1051C21.4352 79.1671 21.4129 79.2303 21.3939 79.2945L8.35173 135.779L5.62302 147.685L5.27776 149.172L4.79883 151.238C4.00795 151.295 3.2169 151.129 2.51562 150.759L2.97227 148.799C2.97227 148.737 2.97227 148.676 3.01682 148.609L3.51244 146.46L5.62302 137.143L19.261 78.0749C19.279 77.9991 19.3071 77.926 19.3445 77.8577C19.3802 77.7908 19.4193 77.7258 19.4615 77.6628V77.6294L21.6166 78.849Z" fill="#5354D1"/>
<path id="Vector_44" opacity="0.5" d="M21.6166 78.849C21.5586 78.9305 21.5065 79.0161 21.4607 79.1051C21.4352 79.1671 21.4129 79.2303 21.3939 79.2945L8.35173 135.779L5.62302 147.685L5.27776 149.172L4.79883 151.238C4.00795 151.295 3.2169 151.129 2.51562 150.759L2.97227 148.799C2.97227 148.737 2.97227 148.676 3.01682 148.609L3.51244 146.46L5.62302 137.143L19.261 78.0749C19.279 77.9991 19.3071 77.926 19.3445 77.8577C19.3802 77.7908 19.4193 77.7258 19.4615 77.6628V77.6294L21.6166 78.849Z" fill="black"/>
<path id="Vector_45" d="M5.72329 145.312C5.83179 145.376 5.9173 145.472 5.96738 145.587C6.01745 145.702 6.02948 145.83 6.00173 145.953L5.25552 149.177L4.88241 150.787C4.85786 150.924 4.78236 151.048 4.67091 151.132C4.55947 151.217 4.42026 151.257 4.28098 151.243C3.65574 151.226 3.04329 151.062 2.49339 150.764C1.86644 150.339 1.34858 149.772 0.981861 149.109C0.615143 148.447 0.409905 147.707 0.382812 146.95V143.246C0.38317 143.144 0.410422 143.043 0.461863 142.953C0.513304 142.864 0.587147 142.79 0.676072 142.738C0.764997 142.687 0.865915 142.659 0.968813 142.658C1.07171 142.657 1.17302 142.684 1.26268 142.734L2.20381 143.291C2.29149 143.344 2.36419 143.418 2.4149 143.507C2.46561 143.595 2.49264 143.696 2.49339 143.798V145.641C2.48779 145.788 2.53796 145.932 2.63386 146.044C2.72976 146.156 2.86433 146.227 3.01067 146.244C3.157 146.261 3.30432 146.222 3.42317 146.135C3.54201 146.048 3.62363 145.919 3.6517 145.775L3.80763 145.09C3.82836 145.001 3.86969 144.918 3.92831 144.847C3.98692 144.777 4.06119 144.722 4.14513 144.686C4.22908 144.649 4.32037 144.633 4.41166 144.639C4.50295 144.644 4.59171 144.671 4.67079 144.717L5.72329 145.312Z" fill="#5354D1"/>
<path id="Vector_46" opacity="0.5" d="M5.72329 145.312C5.83179 145.376 5.9173 145.472 5.96738 145.587C6.01745 145.702 6.02948 145.83 6.00173 145.953L5.25552 149.177L4.88241 150.787C4.85786 150.924 4.78236 151.048 4.67091 151.132C4.55947 151.217 4.42026 151.257 4.28098 151.243C3.65574 151.226 3.04329 151.062 2.49339 150.764C1.86644 150.339 1.34858 149.772 0.981861 149.109C0.615143 148.447 0.409905 147.707 0.382812 146.95V143.246C0.38317 143.144 0.410422 143.043 0.461863 142.953C0.513304 142.864 0.587147 142.79 0.676072 142.738C0.764997 142.687 0.865915 142.659 0.968813 142.658C1.07171 142.657 1.17302 142.684 1.26268 142.734L2.20381 143.291C2.29149 143.344 2.36419 143.418 2.4149 143.507C2.46561 143.595 2.49264 143.696 2.49339 143.798V145.641C2.48779 145.788 2.53796 145.932 2.63386 146.044C2.72976 146.156 2.86433 146.227 3.01067 146.244C3.157 146.261 3.30432 146.222 3.42317 146.135C3.54201 146.048 3.62363 145.919 3.6517 145.775L3.80763 145.09C3.82836 145.001 3.86969 144.918 3.92831 144.847C3.98692 144.777 4.06119 144.722 4.14513 144.686C4.22908 144.649 4.32037 144.633 4.41166 144.639C4.50295 144.644 4.59171 144.671 4.67079 144.717L5.72329 145.312Z" fill="black"/>
</g>
</g>
<g id="freepik--document--inject-308_2">
<g id="freepik--document--inject-308_3">
<path id="Vector_47" d="M44.8943 136.296C44.598 136.095 44.3533 135.827 44.1801 135.513C44.0069 135.2 43.91 134.85 43.8975 134.492V45.0402C43.9168 44.6716 44.0232 44.3128 44.2081 43.9933C44.393 43.6739 44.6511 43.4028 44.9611 43.2025L101.919 10.3465C102.226 10.1523 102.581 10.0458 102.944 10.0385C103.308 10.0312 103.666 10.1234 103.981 10.3052C104.296 10.487 104.555 10.7514 104.73 11.0699C104.906 11.3883 104.991 11.7486 104.976 12.1119V101.558C104.957 101.927 104.85 102.287 104.665 102.607C104.481 102.928 104.223 103.2 103.912 103.401L46.9547 136.257C46.6381 136.424 46.2869 136.514 45.9291 136.521C45.5714 136.528 45.217 136.451 44.8943 136.296Z" fill="#FAFAFA"/>
<path id="Vector_48" d="M46.9552 136.263L103.913 103.407C104.223 103.205 104.481 102.933 104.666 102.613C104.851 102.292 104.957 101.933 104.977 101.564V12.1063C104.977 11.4269 104.503 11.154 103.913 11.4881L46.9552 44.3441C46.6451 44.5456 46.3871 44.8177 46.2022 45.1381C46.0174 45.4584 45.9109 45.818 45.8916 46.1874V135.645C45.8916 136.324 46.365 136.597 46.9552 136.263Z" fill="white"/>
<path id="Vector_49" d="M46.8321 136.33C46.5297 136.468 46.2002 136.537 45.8677 136.531C45.5353 136.525 45.2083 136.445 44.9109 136.296C44.615 136.096 44.3705 135.829 44.1973 135.516C44.0241 135.204 43.9271 134.855 43.9141 134.498V45.0403C43.9286 44.6689 44.0358 44.3071 44.2259 43.9878L46.2195 45.1405C46.0269 45.4567 45.9195 45.8174 45.9077 46.1875V135.65C45.891 136.268 46.2752 136.552 46.8321 136.33Z" fill="#E2E8F0"/>
<g id="freepik--Text--inject-308">
<path id="Vector_50" d="M55.1973 39.5937L95.198 16.5166V25.7385L55.1973 48.8324V39.5937Z" fill="#E2E8F0"/>
<path id="Vector_51" d="M51.7336 54.6517L64.6533 47.1839C64.9484 47.0113 65.2101 47.1338 65.2101 47.4512C65.1969 47.6331 65.1392 47.809 65.0421 47.9634C64.945 48.1178 64.8115 48.2459 64.6533 48.3367L51.7336 55.8044C51.4385 55.9771 51.1768 55.8545 51.1768 55.5371C51.19 55.3552 51.2477 55.1793 51.3448 55.025C51.4419 54.8706 51.5754 54.7424 51.7336 54.6517Z" fill="#E2E8F0"/>
<path id="Vector_52" d="M51.7336 56.9627L64.6533 49.4949C64.9484 49.3223 65.2101 49.4448 65.2101 49.7623C65.1942 49.9434 65.1353 50.1182 65.0385 50.2721C64.9417 50.4261 64.8096 50.5548 64.6533 50.6477L51.7336 58.1155C51.4385 58.2825 51.1768 58.1656 51.1768 57.8426C51.1909 57.6617 51.249 57.4869 51.346 57.3336C51.4431 57.1802 51.5762 57.0529 51.7336 56.9627Z" fill="#E2E8F0"/>
<path id="Vector_53" d="M51.7336 59.2682L64.6533 51.8004C64.9484 51.6334 65.2101 51.7503 65.2101 52.0733C65.1942 52.2545 65.1353 52.4292 65.0385 52.5832C64.9417 52.7371 64.8096 52.8659 64.6533 52.9587L51.7336 60.4265C51.4385 60.5936 51.1768 60.4766 51.1768 60.1536C51.1927 59.9725 51.2516 59.7977 51.3484 59.6438C51.4452 59.4898 51.5773 59.3611 51.7336 59.2682Z" fill="#E2E8F0"/>
<path id="Vector_54" d="M51.7336 61.5794L64.6533 54.1116C64.9484 53.9446 65.2101 54.0615 65.2101 54.3789C65.1969 54.5608 65.1392 54.7367 65.0421 54.8911C64.945 55.0455 64.8115 55.1737 64.6533 55.2644L51.7336 62.7321C51.4385 62.9048 51.1768 62.7823 51.1768 62.4648C51.1927 62.2837 51.2516 62.1089 51.3484 61.9549C51.4452 61.801 51.5773 61.6723 51.7336 61.5794Z" fill="#E2E8F0"/>
<path id="Vector_55" d="M86.4543 47.3065L99.3907 39.8387C99.6858 39.6661 99.9197 39.7886 99.9197 40.106C99.9072 40.2848 99.8528 40.458 99.7609 40.6119C99.669 40.7657 99.5422 40.8957 99.3907 40.9914L86.4543 48.4592C86.1592 48.6318 85.8975 48.5093 85.8975 48.1919C85.9107 48.01 85.9684 47.8341 86.0655 47.6797C86.1626 47.5254 86.2961 47.3972 86.4543 47.3065Z" fill="#E2E8F0"/>
<path id="Vector_56" d="M86.4543 49.6118L99.3907 42.1441C99.6858 41.977 99.9197 42.0995 99.9197 42.4169C99.9072 42.5957 99.8528 42.769 99.7609 42.9228C99.669 43.0766 99.5422 43.2067 99.3907 43.3024L86.4543 50.7701C86.1592 50.9372 85.8975 50.8203 85.8975 50.4973C85.9135 50.3161 85.9723 50.1414 86.0691 49.9874C86.1659 49.8334 86.298 49.7047 86.4543 49.6118Z" fill="#E2E8F0"/>
<path id="Vector_57" d="M86.4543 51.923L99.3907 44.483C99.6858 44.316 99.9197 44.4329 99.9197 44.7559C99.9086 44.9343 99.8547 45.1073 99.7626 45.2604C99.6705 45.4136 99.543 45.5423 99.3907 45.6358L86.4543 53.1036C86.1592 53.2762 85.8975 53.1537 85.8975 52.8363C85.9091 52.6502 85.9659 52.4699 86.0629 52.3107C86.16 52.1516 86.2943 52.0185 86.4543 51.923Z" fill="#E2E8F0"/>
<path id="Vector_58" d="M86.4543 54.2342L99.3907 46.7664C99.6858 46.5938 99.9197 46.7163 99.9197 47.0337C99.9094 47.213 99.856 47.3872 99.7639 47.5414C99.6717 47.6956 99.5437 47.8252 99.3907 47.9192L86.4543 55.3869C86.1592 55.5596 85.8975 55.4371 85.8975 55.1196C85.9107 54.9377 85.9684 54.7619 86.0655 54.6075C86.1626 54.4531 86.2961 54.3249 86.4543 54.2342Z" fill="#E2E8F0"/>
<path id="Vector_59" d="M51.7336 126.244L100.667 97.9935C100.962 97.8209 101.224 97.9434 101.224 98.2608C101.21 98.4427 101.153 98.6186 101.056 98.773C100.958 98.9273 100.825 99.0555 100.667 99.1462L51.7336 127.402C51.4385 127.569 51.1768 127.447 51.1768 127.129C51.1927 126.948 51.2516 126.774 51.3484 126.62C51.4452 126.466 51.5773 126.337 51.7336 126.244Z" fill="#E2E8F0"/>
<path id="Vector_60" d="M51.7336 128.572L100.667 100.316C100.962 100.149 101.224 100.271 101.224 100.589C101.208 100.77 101.149 100.945 101.052 101.099C100.955 101.253 100.823 101.381 100.667 101.474L51.7336 129.686C51.4385 129.858 51.1768 129.736 51.1768 129.419C51.196 129.243 51.2566 129.075 51.3534 128.928C51.4502 128.781 51.5805 128.659 51.7336 128.572Z" fill="#E2E8F0"/>
<path id="Vector_61" d="M83.197 36.4807L99.1795 27.2198C99.469 27.0527 99.7085 27.1752 99.7085 27.4926C99.6947 27.6711 99.6398 27.8439 99.548 27.9975C99.4562 28.1511 99.3301 28.2814 99.1795 28.3781L83.197 37.639C82.9018 37.8061 82.668 37.6891 82.668 37.3661C82.6805 37.1874 82.7349 37.0141 82.8268 36.8602C82.9187 36.7064 83.0455 36.5764 83.197 36.4807Z" fill="#E2E8F0"/>
<path id="Vector_62" d="M83.197 38.792L99.1795 29.5534C99.469 29.3863 99.7085 29.5032 99.7085 29.8262C99.6947 30.0047 99.6398 30.1775 99.548 30.3311C99.4562 30.4847 99.3301 30.615 99.1795 30.7117L83.197 39.9447C82.9018 40.1174 82.668 39.9949 82.668 39.6774C82.6805 39.4987 82.7349 39.3254 82.8268 39.1716C82.9187 39.0177 83.0455 38.8877 83.197 38.792Z" fill="#E2E8F0"/>
<path id="Vector_63" d="M83.197 41.1027L99.1795 31.8641C99.469 31.6915 99.7085 31.814 99.7085 32.1314C99.6983 32.3107 99.6448 32.4849 99.5527 32.639C99.4606 32.7932 99.3325 32.9228 99.1795 33.0168L83.197 42.2555C82.9018 42.4281 82.668 42.3056 82.668 41.9882C82.6782 41.8089 82.7317 41.6347 82.8238 41.4805C82.9159 41.3263 83.044 41.1967 83.197 41.1027Z" fill="#E2E8F0"/>
<path id="Vector_64" d="M83.197 43.4143L99.1795 34.1756C99.469 34.003 99.7085 34.1255 99.7085 34.4429C99.6956 34.6216 99.641 34.7947 99.5491 34.9484C99.4573 35.1022 99.3307 35.2323 99.1795 35.3284L83.197 44.567C82.9018 44.7341 82.668 44.6171 82.668 44.2941C82.6791 44.1158 82.733 43.9427 82.8251 43.7896C82.9171 43.6365 83.0447 43.5077 83.197 43.4143Z" fill="#E2E8F0"/>
<path id="Vector_65" d="M51.1982 79.2105L101.201 50.3418V51.4945L51.1982 80.3632V79.2105Z" fill="#5354D1"/>
<path id="Vector_66" opacity="0.2" d="M51.1982 79.2105L101.201 50.3418V51.4945L51.1982 80.3632V79.2105Z" fill="black"/>
<path id="Vector_67" d="M51.1982 109.231L101.201 80.3628V81.5155L51.1982 110.384V109.231Z" fill="#5354D1"/>
<path id="Vector_68" opacity="0.2" d="M51.1982 109.231L101.201 80.3628V81.5155L51.1982 110.384V109.231Z" fill="black"/>
<path id="Vector_69" d="M51.1982 82.6738L69.1966 72.2769V74.5879L51.1982 84.9793V82.6738Z" fill="#5354D1"/>
<path id="Vector_70" d="M73.2012 69.9717L81.198 65.3496V67.6607L73.2012 72.2772V69.9717Z" fill="#5354D1"/>
<path id="Vector_71" d="M83.1973 64.1968L91.1997 59.5747V61.8858L83.1973 66.5079V64.1968Z" fill="#5354D1"/>
<path id="Vector_72" d="M93.1982 58.4217L101.201 53.8052V56.1107L93.1982 60.7328V58.4217Z" fill="#5354D1"/>
<path id="Vector_73" d="M51.1982 89.6016L101.201 60.7329V65.3495L51.1982 94.2181V89.6016Z" fill="#E2E8F0"/>
<path id="Vector_74" d="M51.1982 98.8404L101.201 69.9717V74.5882L51.1982 103.457V98.8404Z" fill="#E2E8F0"/>
<path id="Vector_75" d="M53.198 86.5054C53.1179 86.5028 53.0407 86.4745 52.9779 86.4246C52.9151 86.3747 52.8701 86.3059 52.8495 86.2284C52.8288 86.151 52.8337 86.0689 52.8634 85.9944C52.8931 85.9199 52.946 85.8569 53.0142 85.8149L67.0142 77.7345C67.0563 77.7104 67.1027 77.6948 67.1507 77.6886C67.1988 77.6824 67.2477 77.6857 67.2945 77.6984C67.3413 77.711 67.3851 77.7328 67.4235 77.7624C67.4619 77.792 67.4941 77.8289 67.5182 77.871C67.5423 77.913 67.5579 77.9594 67.5641 78.0075C67.5703 78.0556 67.567 78.1044 67.5543 78.1512C67.5417 78.198 67.5199 78.2419 67.4903 78.2802C67.4607 78.3186 67.4238 78.3508 67.3817 78.3749L53.3818 86.4553C53.326 86.4878 53.2626 86.5051 53.198 86.5054Z" fill="#455A64"/>
<path id="Vector_76" d="M75.1999 72.8116C75.1563 72.8108 75.1137 72.7992 75.0758 72.7778C75.0378 72.7564 75.0059 72.7259 74.9827 72.689C74.9661 72.6611 74.9554 72.6301 74.9512 72.5979C74.947 72.5656 74.9494 72.5329 74.9583 72.5016C74.9671 72.4704 74.9823 72.4413 75.0027 72.416C75.0232 72.3908 75.0486 72.37 75.0774 72.3549L81.075 68.8911C81.1311 68.8588 81.1978 68.85 81.2604 68.8667C81.323 68.8834 81.3765 68.9242 81.4091 68.9802C81.4267 69.0076 81.4384 69.0384 81.4434 69.0705C81.4485 69.1027 81.4467 69.1355 81.4383 69.167C81.43 69.1984 81.4151 69.2278 81.3947 69.2531C81.3743 69.2785 81.3489 69.2994 81.32 69.3143L75.3224 72.7781C75.285 72.7994 75.2429 72.8109 75.1999 72.8116Z" fill="#455A64"/>
<path id="Vector_77" d="M75.2002 74.4656C75.1567 74.4648 75.114 74.4532 75.0761 74.4318C75.0382 74.4104 75.0062 74.3799 74.983 74.3431C74.9663 74.3147 74.9555 74.2832 74.9513 74.2506C74.947 74.218 74.9494 74.1848 74.9582 74.1531C74.967 74.1214 74.9822 74.0918 75.0027 74.0661C75.0232 74.0403 75.0487 74.019 75.0777 74.0034L81.0753 70.5396C81.1314 70.5072 81.1981 70.4984 81.2607 70.5151C81.3234 70.5318 81.3768 70.5726 81.4094 70.6287C81.4271 70.6565 81.4389 70.6876 81.444 70.7202C81.4491 70.7528 81.4474 70.7861 81.439 70.818C81.4306 70.8498 81.4158 70.8797 81.3954 70.9055C81.3749 70.9314 81.3494 70.9528 81.3203 70.9684L75.3227 74.4322C75.2853 74.4534 75.2432 74.4649 75.2002 74.4656Z" fill="#455A64"/>
<path id="Vector_78" d="M85.2021 67.9054C85.1582 67.9063 85.1149 67.8954 85.0767 67.8738C85.0385 67.8523 85.0068 67.8209 84.9849 67.7829C84.9525 67.7267 84.9437 67.66 84.9604 67.5974C84.9771 67.5348 85.018 67.4813 85.074 67.4487L91.0771 63.9738C91.1048 63.957 91.1355 63.946 91.1674 63.9414C91.1994 63.9368 91.232 63.9387 91.2632 63.9471C91.2944 63.9554 91.3237 63.9699 91.3491 63.9898C91.3745 64.0098 91.3957 64.0346 91.4113 64.0629C91.4436 64.1191 91.4524 64.1857 91.4357 64.2484C91.419 64.311 91.3782 64.3644 91.3222 64.397L85.3246 67.872C85.2872 67.8932 85.245 67.9047 85.2021 67.9054Z" fill="#455A64"/>
<path id="Vector_79" d="M95.1975 62.1307C95.1543 62.1318 95.1117 62.1209 95.0744 62.0993C95.037 62.0777 95.0064 62.0461 94.9859 62.0082C94.9535 61.952 94.9447 61.8853 94.9614 61.8227C94.9781 61.7601 95.0189 61.7066 95.075 61.674L101.078 58.2102C101.106 58.1916 101.137 58.1789 101.17 58.1729C101.203 58.1669 101.237 58.1677 101.27 58.1753C101.302 58.1829 101.333 58.1971 101.36 58.217C101.387 58.237 101.41 58.2622 101.426 58.2912C101.443 58.3202 101.454 58.3523 101.458 58.3856C101.462 58.4189 101.459 58.4526 101.449 58.4847C101.439 58.5168 101.423 58.5465 101.401 58.5721C101.38 58.5977 101.353 58.6186 101.323 58.6335L95.32 62.1028C95.2824 62.1231 95.2401 62.1328 95.1975 62.1307Z" fill="#455A64"/>
<path id="Vector_80" d="M53.198 91.1272C53.1179 91.1247 53.0407 91.0963 52.9779 91.0464C52.9151 90.9965 52.8701 90.9278 52.8495 90.8503C52.8288 90.7728 52.8337 90.6907 52.8634 90.6162C52.8931 90.5417 52.946 90.4788 53.0142 90.4367L63.0381 84.6619C63.1227 84.6148 63.2222 84.6024 63.3157 84.6273C63.4092 84.6523 63.4894 84.7126 63.5393 84.7955C63.5642 84.8375 63.5805 84.8839 63.5873 84.9322C63.594 84.9806 63.5911 85.0297 63.5786 85.0769C63.5662 85.1241 63.5445 85.1683 63.5148 85.207C63.4851 85.2457 63.448 85.2781 63.4056 85.3023L53.3818 91.0771C53.326 91.1097 53.2626 91.127 53.198 91.1272Z" fill="#455A64"/>
<path id="Vector_81" d="M75.2001 77.4338C75.1565 77.4331 75.1139 77.4215 75.076 77.4001C75.038 77.3787 75.0061 77.3482 74.9829 77.3113C74.9507 77.2536 74.9426 77.1856 74.9604 77.122C74.9781 77.0584 75.0202 77.0043 75.0776 76.9716L81.0752 73.5078C81.1313 73.4755 81.198 73.4667 81.2606 73.4834C81.3232 73.5001 81.3767 73.5409 81.4093 73.5969C81.427 73.6247 81.4388 73.6559 81.4438 73.6885C81.4489 73.7211 81.4472 73.7543 81.4389 73.7862C81.4305 73.8181 81.4157 73.8479 81.3952 73.8738C81.3748 73.8997 81.3493 73.9211 81.3202 73.9366L75.3226 77.4004C75.2852 77.4217 75.2431 77.4331 75.2001 77.4338Z" fill="#455A64"/>
<path id="Vector_82" d="M75.1999 79.0822C75.1563 79.0815 75.1137 79.0699 75.0758 79.0485C75.0378 79.0271 75.0059 78.9966 74.9827 78.9597C74.9661 78.9318 74.9554 78.9007 74.9512 78.8685C74.947 78.8363 74.9494 78.8036 74.9583 78.7723C74.9671 78.7411 74.9823 78.7119 75.0027 78.6867C75.0232 78.6615 75.0486 78.6407 75.0774 78.6256L81.075 75.1618C81.1026 75.145 81.1333 75.134 81.1653 75.1294C81.1973 75.1248 81.2298 75.1267 81.2611 75.135C81.2923 75.1434 81.3215 75.1579 81.3469 75.1778C81.3724 75.1977 81.3935 75.2226 81.4091 75.2509C81.4267 75.2783 81.4384 75.309 81.4434 75.3412C81.4485 75.3733 81.4467 75.4062 81.4383 75.4376C81.43 75.4691 81.4151 75.4984 81.3947 75.5238C81.3743 75.5492 81.3489 75.57 81.32 75.585L75.3224 79.0488C75.285 79.0701 75.2429 79.0816 75.1999 79.0822Z" fill="#455A64"/>
<path id="Vector_83" d="M85.2015 72.5276C85.1576 72.5285 85.1143 72.5176 85.0761 72.496C85.0379 72.4745 85.0062 72.4431 84.9843 72.4051C84.9517 72.3481 84.9427 72.2805 84.9594 72.217C84.976 72.1535 85.017 72.099 85.0734 72.0654L91.0766 68.6016C91.1327 68.5692 91.1994 68.5604 91.262 68.5771C91.3246 68.5938 91.3781 68.6347 91.4107 68.6907C91.4433 68.7477 91.4523 68.8152 91.4356 68.8787C91.4189 68.9423 91.378 68.9967 91.3216 69.0304L85.324 72.4942C85.2866 72.5154 85.2445 72.5269 85.2015 72.5276Z" fill="#455A64"/>
<path id="Vector_84" d="M95.1979 66.7585C95.1549 66.7584 95.1128 66.7471 95.0757 66.7256C95.0385 66.7041 95.0077 66.6732 94.9862 66.636C94.9536 66.579 94.9447 66.5115 94.9613 66.448C94.978 66.3844 95.0189 66.33 95.0753 66.2963L101.079 62.8325C101.135 62.8002 101.201 62.7914 101.264 62.8081C101.327 62.8248 101.38 62.8656 101.413 62.9216C101.445 62.9786 101.454 63.0462 101.438 63.1097C101.421 63.1732 101.38 63.2277 101.324 63.2613L95.3204 66.7251C95.2833 66.7471 95.241 66.7586 95.1979 66.7585Z" fill="#455A64"/>
<path id="Vector_85" d="M53.198 95.7439C53.1179 95.7413 53.0407 95.7129 52.9779 95.6631C52.9151 95.6132 52.8701 95.5444 52.8495 95.4669C52.8288 95.3894 52.8337 95.3073 52.8634 95.2328C52.8931 95.1584 52.946 95.0954 53.0142 95.0533L69.0134 85.8147C69.0992 85.7663 69.2005 85.7539 69.2955 85.7799C69.3904 85.806 69.4712 85.8685 69.5202 85.9539C69.544 85.9959 69.5593 86.0423 69.5651 86.0902C69.571 86.1382 69.5674 86.1868 69.5545 86.2334C69.5415 86.2799 69.5196 86.3235 69.4898 86.3615C69.46 86.3995 69.423 86.4313 69.381 86.4551L53.3818 95.716C53.3239 95.7409 53.2606 95.7505 53.198 95.7439Z" fill="#455A64"/>
<path id="Vector_86" d="M75.1999 82.0503C75.1563 82.0496 75.1137 82.038 75.0758 82.0166C75.0378 81.9952 75.0059 81.9647 74.9827 81.9278C74.9661 81.8999 74.9554 81.8688 74.9512 81.8366C74.947 81.8044 74.9494 81.7717 74.9583 81.7404C74.9671 81.7092 74.9823 81.68 75.0027 81.6548C75.0232 81.6296 75.0486 81.6088 75.0774 81.5937L81.075 78.1299C81.1311 78.0975 81.1978 78.0887 81.2604 78.1054C81.323 78.1221 81.3765 78.163 81.4091 78.219C81.4267 78.2464 81.4384 78.2771 81.4434 78.3093C81.4485 78.3414 81.4467 78.3743 81.4383 78.4057C81.43 78.4372 81.4151 78.4665 81.3947 78.4919C81.3743 78.5173 81.3489 78.5381 81.32 78.5531L75.3224 82.0169C75.285 82.0382 75.2429 82.0497 75.1999 82.0503Z" fill="#455A64"/>
<path id="Vector_87" d="M75.2002 83.7041C75.1567 83.7034 75.114 83.6918 75.0761 83.6704C75.0382 83.649 75.0062 83.6185 74.983 83.5816C74.9663 83.5533 74.9555 83.5218 74.9513 83.4892C74.947 83.4565 74.9494 83.4234 74.9582 83.3917C74.967 83.36 74.9822 83.3304 75.0027 83.3046C75.0232 83.2789 75.0487 83.2576 75.0777 83.2419L81.0753 79.7781C81.1321 79.7456 81.1996 79.7371 81.2628 79.7543C81.326 79.7715 81.3797 79.8132 81.4122 79.87C81.4447 79.9269 81.4533 79.9943 81.436 80.0575C81.4188 80.1207 81.3772 80.1744 81.3203 80.2069L75.3227 83.6707C75.2853 83.692 75.2432 83.7035 75.2002 83.7041Z" fill="#455A64"/>
<path id="Vector_88" d="M85.2021 77.1441C85.1582 77.145 85.1149 77.1341 85.0767 77.1125C85.0385 77.091 85.0068 77.0596 84.9849 77.0216C84.9525 76.9654 84.9437 76.8987 84.9604 76.8361C84.9771 76.7735 85.018 76.7201 85.074 76.6875L91.0771 73.2237C91.1045 73.2061 91.1353 73.1944 91.1674 73.1893C91.1996 73.1843 91.2324 73.186 91.2639 73.1944C91.2953 73.2028 91.3247 73.2177 91.3501 73.238C91.3754 73.2584 91.3963 73.2839 91.4113 73.3128C91.4436 73.3689 91.4524 73.4356 91.4357 73.4982C91.419 73.5609 91.3782 73.6143 91.3222 73.6469L85.3246 77.1107C85.2872 77.1319 85.245 77.1434 85.2021 77.1441Z" fill="#455A64"/>
<path id="Vector_89" d="M95.1972 71.3695C95.1434 71.3692 95.0912 71.3513 95.0486 71.3185C95.006 71.2857 94.9754 71.2398 94.9615 71.1879C94.9476 71.136 94.9511 71.081 94.9715 71.0312C94.992 70.9815 95.0282 70.9399 95.0746 70.9128L101.078 67.449C101.106 67.4304 101.137 67.4177 101.17 67.4117C101.203 67.4057 101.237 67.4065 101.269 67.4141C101.302 67.4217 101.333 67.4359 101.36 67.4558C101.387 67.4757 101.409 67.501 101.426 67.53C101.443 67.559 101.453 67.5911 101.457 67.6244C101.461 67.6577 101.458 67.6914 101.449 67.7235C101.439 67.7555 101.423 67.7853 101.401 67.8109C101.379 67.8365 101.353 67.8574 101.323 67.8722L95.3197 71.336C95.2826 71.358 95.2403 71.3695 95.1972 71.3695Z" fill="#455A64"/>
<path id="Vector_90" d="M53.198 100.366C53.1179 100.363 53.0407 100.335 52.9779 100.285C52.9151 100.235 52.8701 100.167 52.8495 100.089C52.8288 100.012 52.8337 99.9295 52.8634 99.855C52.8931 99.7805 52.946 99.7176 53.0142 99.6755L61.0166 95.0534C61.1015 95.0046 61.2023 94.9916 61.2969 95.0172C61.3914 95.0428 61.4718 95.1049 61.5206 95.1898C61.5693 95.2747 61.5823 95.3755 61.5567 95.4701C61.5312 95.5646 61.4691 95.6451 61.3842 95.6938L53.3818 100.316C53.326 100.348 53.2626 100.366 53.198 100.366Z" fill="#455A64"/>
<path id="Vector_91" d="M75.2002 86.6721C75.1567 86.6714 75.114 86.6598 75.0761 86.6384C75.0382 86.617 75.0062 86.5865 74.983 86.5496C74.9663 86.5212 74.9555 86.4898 74.9513 86.4571C74.947 86.4245 74.9494 86.3913 74.9582 86.3596C74.967 86.3279 74.9822 86.2983 75.0027 86.2726C75.0232 86.2469 75.0487 86.2256 75.0777 86.2099L81.0753 82.7461C81.1314 82.7138 81.1981 82.705 81.2607 82.7217C81.3234 82.7384 81.3768 82.7792 81.4094 82.8352C81.4271 82.863 81.4389 82.8942 81.444 82.9268C81.4491 82.9593 81.4474 82.9926 81.439 83.0245C81.4306 83.0564 81.4158 83.0862 81.3954 83.1121C81.3749 83.138 81.3494 83.1593 81.3203 83.1749L75.3227 86.6387C75.2853 86.6599 75.2432 86.6714 75.2002 86.6721Z" fill="#455A64"/>
<path id="Vector_92" d="M75.1999 88.3206C75.1563 88.3199 75.1137 88.3083 75.0758 88.2869C75.0378 88.2655 75.0059 88.235 74.9827 88.1981C74.9661 88.1702 74.9554 88.1391 74.9512 88.1069C74.947 88.0747 74.9494 88.042 74.9583 88.0107C74.9671 87.9795 74.9823 87.9503 75.0027 87.9251C75.0232 87.8999 75.0486 87.8791 75.0774 87.864L81.075 84.4002C81.1028 84.3816 81.1342 84.3689 81.1672 84.3629C81.2001 84.3568 81.234 84.3577 81.2666 84.3653C81.2992 84.3728 81.33 84.387 81.3569 84.407C81.3838 84.4269 81.4064 84.4522 81.4232 84.4811C81.44 84.5101 81.4506 84.5423 81.4545 84.5756C81.4584 84.6088 81.4554 84.6425 81.4457 84.6746C81.436 84.7067 81.4199 84.7365 81.3983 84.7621C81.3766 84.7876 81.35 84.8085 81.32 84.8234L75.3224 88.2872C75.285 88.3085 75.2429 88.32 75.1999 88.3206Z" fill="#455A64"/>
<path id="Vector_93" d="M85.2015 81.7942C85.1576 81.7951 85.1143 81.7842 85.0761 81.7626C85.0379 81.7411 85.0062 81.7097 84.9843 81.6717C84.9517 81.6147 84.9427 81.5471 84.9594 81.4836C84.976 81.4201 85.017 81.3656 85.0734 81.332L91.0766 77.8682C91.1327 77.8358 91.1994 77.827 91.262 77.8437C91.3246 77.8604 91.3781 77.9013 91.4107 77.9573C91.4433 78.0143 91.4523 78.0818 91.4356 78.1453C91.4189 78.2089 91.378 78.2633 91.3216 78.297L85.324 81.7608C85.2866 81.782 85.2445 81.7935 85.2015 81.7942Z" fill="#455A64"/>
<path id="Vector_94" d="M95.1979 75.9914C95.1549 75.9913 95.1128 75.98 95.0757 75.9585C95.0385 75.937 95.0077 75.9061 94.9862 75.8689C94.9536 75.8119 94.9447 75.7444 94.9613 75.6809C94.978 75.6173 95.0189 75.5629 95.0753 75.5292L101.079 72.0654C101.135 72.0331 101.201 72.0243 101.264 72.041C101.327 72.0577 101.38 72.0985 101.413 72.1545C101.445 72.2115 101.454 72.2791 101.438 72.3426C101.421 72.4061 101.38 72.4606 101.324 72.4942L95.3204 75.958C95.2833 75.98 95.241 75.9915 95.1979 75.9914Z" fill="#455A64"/>
<path id="Vector_95" d="M53.198 104.983C53.1179 104.98 53.0407 104.952 52.9779 104.902C52.9151 104.852 52.8701 104.783 52.8495 104.706C52.8288 104.628 52.8337 104.546 52.8634 104.472C52.8931 104.397 52.946 104.334 53.0142 104.292L67.0142 96.2119C67.056 96.1839 67.1031 96.1649 67.1525 96.1559C67.2019 96.1468 67.2527 96.1481 67.3017 96.1594C67.3506 96.1708 67.3967 96.1921 67.4371 96.222C67.4775 96.2519 67.5113 96.2898 67.5365 96.3333C67.5617 96.3768 67.5777 96.425 67.5835 96.4749C67.5893 96.5248 67.5848 96.5754 67.5703 96.6235C67.5558 96.6716 67.5316 96.7163 67.4992 96.7547C67.4667 96.793 67.4268 96.8244 67.3817 96.8467L53.3818 104.933C53.326 104.965 53.2626 104.982 53.198 104.983Z" fill="#455A64"/>
<path id="Vector_96" d="M75.1999 91.289C75.1563 91.2882 75.1137 91.2766 75.0758 91.2552C75.0378 91.2338 75.0059 91.2033 74.9827 91.1665C74.9661 91.1385 74.9554 91.1075 74.9512 91.0753C74.947 91.0431 74.9494 91.0103 74.9583 90.9791C74.9671 90.9478 74.9823 90.9187 75.0027 90.8935C75.0232 90.8682 75.0486 90.8474 75.0774 90.8323L81.075 87.363C81.1026 87.3462 81.1333 87.3352 81.1653 87.3306C81.1973 87.326 81.2298 87.3279 81.2611 87.3362C81.2923 87.3445 81.3215 87.3591 81.3469 87.379C81.3724 87.3989 81.3935 87.4238 81.4091 87.4521C81.4267 87.4794 81.4384 87.5102 81.4434 87.5423C81.4485 87.5745 81.4467 87.6074 81.4383 87.6388C81.43 87.6703 81.4151 87.6996 81.3947 87.725C81.3743 87.7504 81.3489 87.7712 81.32 87.7862L75.3224 91.2611C75.2845 91.2804 75.2424 91.29 75.1999 91.289Z" fill="#455A64"/>
<path id="Vector_97" d="M75.1999 92.9319C75.1557 92.9311 75.1125 92.9188 75.0744 92.8964C75.0364 92.8739 75.0048 92.842 74.9827 92.8038C74.9661 92.7758 74.9554 92.7448 74.9512 92.7126C74.947 92.6804 74.9494 92.6476 74.9583 92.6164C74.9671 92.5851 74.9823 92.556 75.0027 92.5308C75.0232 92.5056 75.0486 92.4848 75.0774 92.4696L81.075 89.0337C81.1311 89.0013 81.1978 88.9926 81.2604 89.0093C81.323 89.0259 81.3765 89.0668 81.4091 89.1228C81.4267 89.1502 81.4384 89.1809 81.4434 89.2131C81.4485 89.2452 81.4467 89.2781 81.4383 89.3095C81.43 89.341 81.4151 89.3703 81.3947 89.3957C81.3743 89.4211 81.3489 89.4419 81.32 89.4569L75.3224 92.9319C75.2822 92.9418 75.2401 92.9418 75.1999 92.9319Z" fill="#455A64"/>
<path id="Vector_98" d="M85.2021 86.3828C85.1582 86.3837 85.1149 86.3728 85.0767 86.3513C85.0385 86.3297 85.0068 86.2983 84.9849 86.2603C84.9525 86.2042 84.9437 86.1375 84.9604 86.0749C84.9771 86.0122 85.018 85.9588 85.074 85.9262L91.0771 82.4568C91.1051 82.4403 91.1361 82.4295 91.1683 82.4253C91.2005 82.4212 91.2333 82.4236 91.2645 82.4324C91.2958 82.4413 91.3249 82.4564 91.3502 82.4769C91.3754 82.4973 91.3962 82.5227 91.4113 82.5515C91.4436 82.6076 91.4524 82.6743 91.4357 82.737C91.419 82.7996 91.3782 82.853 91.3222 82.8856L85.3246 86.3494C85.2872 86.3707 85.245 86.3822 85.2021 86.3828Z" fill="#455A64"/>
<path id="Vector_99" d="M95.1972 80.6081C95.1434 80.6079 95.0912 80.59 95.0486 80.5572C95.006 80.5244 94.9754 80.4785 94.9615 80.4266C94.9476 80.3747 94.9511 80.3196 94.9715 80.2699C94.992 80.2202 95.0282 80.1786 95.0746 80.1515L101.078 76.6877C101.105 76.6709 101.136 76.6599 101.168 76.6553C101.2 76.6507 101.233 76.6526 101.264 76.6609C101.295 76.6692 101.324 76.6838 101.35 76.7037C101.375 76.7236 101.396 76.7485 101.412 76.7768C101.444 76.8329 101.453 76.8996 101.436 76.9622C101.42 77.0249 101.379 77.0783 101.323 77.1109L95.3197 80.5747C95.2826 80.5967 95.2403 80.6082 95.1972 80.6081Z" fill="#455A64"/>
<path id="Vector_100" d="M85.2021 93.3104C85.1582 93.3113 85.1149 93.3004 85.0767 93.2788C85.0385 93.2573 85.0068 93.2259 84.9849 93.1879C84.9525 93.1317 84.9437 93.065 84.9604 93.0024C84.9771 92.9398 85.018 92.8863 85.074 92.8537L91.0771 89.3899C91.105 89.3713 91.1364 89.3586 91.1693 89.3526C91.2023 89.3466 91.2361 89.3474 91.2688 89.355C91.3014 89.3626 91.3321 89.3768 91.3591 89.3967C91.386 89.4167 91.4085 89.4419 91.4253 89.4709C91.4421 89.4999 91.4528 89.532 91.4567 89.5653C91.4606 89.5986 91.4576 89.6323 91.4479 89.6644C91.4382 89.6965 91.4221 89.7262 91.4005 89.7518C91.3788 89.7774 91.3522 89.7983 91.3222 89.8132L85.3246 93.277C85.2872 93.2982 85.245 93.3097 85.2021 93.3104Z" fill="#455A64"/>
<path id="Vector_101" d="M95.1972 87.5355C95.1434 87.5353 95.0912 87.5174 95.0486 87.4846C95.006 87.4518 94.9754 87.4059 94.9615 87.3539C94.9476 87.302 94.9511 87.247 94.9715 87.1973C94.992 87.1475 95.0282 87.1059 95.0746 87.0788L101.078 83.615C101.106 83.5964 101.137 83.5837 101.17 83.5777C101.203 83.5717 101.237 83.5725 101.269 83.5801C101.302 83.5877 101.333 83.6019 101.36 83.6218C101.387 83.6418 101.409 83.667 101.426 83.696C101.443 83.725 101.453 83.7571 101.457 83.7904C101.461 83.8237 101.458 83.8574 101.449 83.8895C101.439 83.9216 101.423 83.9513 101.401 83.9769C101.379 84.0025 101.353 84.0234 101.323 84.0383L95.3252 87.5021C95.2862 87.5242 95.242 87.5357 95.1972 87.5355Z" fill="#455A64"/>
<path id="Vector_102" d="M85.2021 95.6211C85.1582 95.622 85.1149 95.6111 85.0767 95.5896C85.0385 95.568 85.0068 95.5366 84.9849 95.4986C84.9525 95.4425 84.9437 95.3758 84.9604 95.3132C84.9771 95.2505 85.018 95.1971 85.074 95.1645L91.0771 91.6951C91.134 91.6626 91.2014 91.6541 91.2646 91.6713C91.3278 91.6885 91.3816 91.7302 91.4141 91.787C91.4465 91.8439 91.4551 91.9113 91.4379 91.9745C91.4207 92.0377 91.379 92.0914 91.3222 92.1239L85.3246 95.5877C85.2872 95.609 85.245 95.6205 85.2021 95.6211Z" fill="#455A64"/>
<path id="Vector_103" d="M95.1972 89.8469C95.1434 89.8467 95.0912 89.8288 95.0486 89.796C95.006 89.7632 94.9754 89.7173 94.9615 89.6653C94.9476 89.6134 94.9511 89.5584 94.9715 89.5087C94.992 89.4589 95.0282 89.4173 95.0746 89.3902L101.078 85.9264C101.105 85.9097 101.136 85.8986 101.168 85.894C101.2 85.8894 101.233 85.8914 101.264 85.8997C101.295 85.908 101.324 85.9226 101.35 85.9425C101.375 85.9624 101.396 85.9872 101.412 86.0155C101.444 86.0717 101.453 86.1384 101.436 86.201C101.42 86.2636 101.379 86.3171 101.323 86.3497L95.3252 89.8135C95.2862 89.8356 95.242 89.8472 95.1972 89.8469Z" fill="#455A64"/>
<path id="Vector_104" d="M101.201 88.4487L69.1973 106.92V113.848L101.201 95.3763V88.4487Z" fill="#5354D1"/>
<path id="Vector_105" d="M82.7344 50.0522L50.7305 68.524V75.4516L82.7344 56.9798V50.0522Z" fill="#5354D1"/>
<path id="Vector_106" d="M53.1975 116.404C53.1543 116.406 53.1117 116.395 53.0744 116.373C53.037 116.351 53.0064 116.32 52.9858 116.282C52.9535 116.226 52.9447 116.159 52.9614 116.096C52.9781 116.034 53.0189 115.98 53.0749 115.948L65.0757 109.02C65.1033 109.003 65.134 108.992 65.166 108.988C65.198 108.983 65.2306 108.985 65.2618 108.993C65.293 109.002 65.3222 109.016 65.3477 109.036C65.3731 109.056 65.3943 109.081 65.4098 109.109C65.4422 109.165 65.451 109.232 65.4343 109.295C65.4176 109.357 65.3768 109.411 65.3207 109.443L53.32 116.377C53.2824 116.397 53.2401 116.406 53.1975 116.404Z" fill="#455A64"/>
<path id="Vector_107" d="M53.1971 118.715C53.1434 118.715 53.0912 118.697 53.0486 118.664C53.006 118.631 52.9754 118.586 52.9615 118.534C52.9476 118.482 52.9511 118.427 52.9715 118.377C52.992 118.327 53.0282 118.286 53.0746 118.259L65.0754 111.309C65.1028 111.291 65.1335 111.279 65.1657 111.274C65.1979 111.269 65.2307 111.271 65.2621 111.279C65.2936 111.288 65.3229 111.303 65.3483 111.323C65.3737 111.343 65.3946 111.369 65.4095 111.398C65.4419 111.454 65.4507 111.521 65.434 111.583C65.4173 111.646 65.3765 111.699 65.3204 111.732L53.3197 118.659C53.285 118.689 53.2425 118.709 53.1971 118.715Z" fill="#455A64"/>
<path id="Vector_108" d="M53.1978 121.027C53.1549 121.026 53.1128 121.015 53.0757 120.994C53.0385 120.972 53.0077 120.941 52.9862 120.904C52.9536 120.847 52.9447 120.779 52.9613 120.716C52.978 120.652 53.0189 120.598 53.0753 120.564L65.0761 113.637C65.1323 113.604 65.1989 113.596 65.2616 113.612C65.3242 113.629 65.3776 113.67 65.4102 113.726C65.4429 113.783 65.4518 113.85 65.4351 113.914C65.4185 113.977 65.3775 114.032 65.3211 114.066L53.3204 120.993C53.2833 121.015 53.2409 121.027 53.1978 121.027Z" fill="#455A64"/>
</g>
</g>
</g>
</g>
</svg>
