<svg width="122" height="140" viewBox="0 0 122 140" fill="none" xmlns="http://www.w3.org/2000/svg">
<path d="M76.1903 9.0381C68.4413 4.63942 57.7865 5.28897 46.0263 12.1263C22.3463 25.8009 3.15625 59.0189 3.15625 86.3568C3.15625 100.031 7.95377 109.604 15.6913 114.082C18.9163 115.951 27.0869 120.646 30.3346 122.503C38.0836 126.971 48.784 126.321 60.6126 119.495C84.2811 105.82 103.471 72.591 103.471 45.2531C103.471 31.5785 98.6964 22.0518 90.9361 17.5506C87.7567 15.6703 79.4722 10.907 76.1903 9.0381Z" fill="#5354D1"/>
<path opacity="0.15" d="M76.1903 9.0381C68.4413 4.63942 57.7865 5.28897 46.0263 12.1263C22.3463 25.8009 3.15625 59.0189 3.15625 86.3568C3.15625 100.031 7.95377 109.604 15.6913 114.082C18.9163 115.951 27.0869 120.646 30.3346 122.503C38.0836 126.971 48.784 126.321 60.6126 119.495C84.2811 105.82 103.471 72.591 103.471 45.2531C103.471 31.5785 98.6964 22.0518 90.9361 17.5506C87.7567 15.6703 79.4722 10.907 76.1903 9.0381Z" fill="black"/>
<path d="M90.9265 87.4977C107.667 58.5016 107.67 27.1615 90.9314 17.4977C74.1932 7.8339 47.0531 23.5059 30.3121 52.502C13.5712 81.4981 13.569 112.838 30.3072 122.502C47.0453 132.166 74.1855 116.494 90.9265 87.4977Z" fill="#6465D6"/>
<path d="M88.4294 79.1091C88.4294 79.1091 90.378 96.1113 109.215 100.305C110.662 100.624 110.594 102.253 109.374 103.12C107.027 104.772 98.5942 108.339 89.1929 106.025C76.0994 102.789 72.373 96.909 72.373 96.909L88.4294 79.1091Z" fill="#6465D6"/>
<path d="M56.7492 42.2331L36.488 100.715C34.3798 106.812 37.2173 109.159 42.8011 105.934L78.3666 85.4222C81.0435 83.8685 82.9968 81.3184 83.7996 78.3291C84.6024 75.3399 84.1896 72.1543 82.6513 69.4685L66.4468 41.3101C63.2219 35.7263 58.8574 36.1365 56.7492 42.2331Z" fill="#FAFAFA"/>
<path d="M62.7791 77.1947L59.6909 78.9724C59.5897 79.0578 59.4651 79.1107 59.3334 79.1245C59.2017 79.1382 59.069 79.112 58.9523 79.0494C58.8356 78.9868 58.7405 78.8906 58.6791 78.7732C58.6178 78.6559 58.5931 78.5228 58.6083 78.3912L57.332 55.2469C57.3319 54.8976 57.4194 54.5539 57.5867 54.2473C57.7539 53.9407 57.9955 53.6809 58.2893 53.492L64.1352 50.0733C64.7049 49.7543 65.1266 50.0733 65.0924 50.6659L63.8389 75.3942C63.8082 75.7545 63.6971 76.1033 63.5137 76.415C63.3303 76.7266 63.0792 76.993 62.7791 77.1947Z" fill="#111111"/>
<path d="M61.2405 89.6156C59.2691 90.7552 58.084 89.2737 58.084 87.2339C58.0947 86.0509 58.3865 84.8873 58.9353 83.8392C59.4842 82.7911 60.2743 81.8884 61.2405 81.2057C63.212 80.0661 64.3857 81.5362 64.3857 83.5874C64.3772 84.7696 64.0875 85.9329 63.5407 86.9811C62.9938 88.0293 62.2054 88.9323 61.2405 89.6156Z" fill="#111111"/>
</svg>
