<svg width="121" height="140" viewBox="0 0 121 140" fill="none" xmlns="http://www.w3.org/2000/svg">
<path d="M90.9078 24.0135L90.8325 23.9759L72.8947 13.6518L72.7865 13.6C64.4058 9.36495 53.2252 10.6402 41.1977 18.4138C17.0391 34.0365 -1.36929 69.9968 0.0800346 98.7339C0.799993 113.053 6.32438 122.874 14.6674 127.193L14.738 127.231L32.6805 137.56L32.7652 137.607C41.1459 141.842 52.3359 140.586 64.3728 132.803C88.5314 117.18 106.94 81.2197 105.49 52.4825C104.78 38.1539 99.2555 28.3333 90.9078 24.0135Z" fill="#5354D1"/>
<path opacity="0.15" d="M32.064 137.225L14.7614 127.221L14.6767 127.17C6.33367 122.84 0.813987 113.02 0.0893228 98.7194C-0.555346 85.9013 2.7527 71.6574 8.74765 58.4299L8.86529 58.1382L26.6902 68.754C20.6858 81.9815 17.3871 96.2254 18.0318 109.044C18.7141 123.062 24.0174 132.765 32.064 137.225Z" fill="#111111"/>
<path d="M64.3806 132.793C88.5392 117.17 106.948 81.21 105.498 52.4728C104.049 23.7357 83.2877 13.1104 59.1291 28.733C34.9705 44.3557 16.5574 80.3159 18.0068 109.048C19.4561 137.781 40.222 148.416 64.3806 132.793Z" fill="#5354D1"/>
<path d="M109.433 1.23794C109.245 1.12971 109.047 1.02619 108.849 0.932073C106.63 -0.143385 104.075 -0.294545 101.744 0.511763C99.4132 1.31807 97.4975 3.01599 96.4171 5.233L57.8876 84.5979L55.6948 82.2451C55.0618 81.5536 54.3252 80.9646 53.5114 80.4993C52.3632 79.8405 47.4788 77.0124 46.6882 76.556C44.7613 75.4412 42.4986 75.0543 40.3108 75.4656C38.123 75.8769 36.1552 77.0591 34.7647 78.7975C33.3742 80.5359 32.6531 82.7153 32.7325 84.94C32.8118 87.1648 33.6863 89.2873 35.1971 90.9222L52.3679 109.519C53.0117 110.217 53.7592 110.813 54.5842 111.283C55.7042 111.919 60.5698 114.742 61.3697 115.203C62.4762 115.844 63.7029 116.25 64.9732 116.395C66.2435 116.541 67.5302 116.423 68.7529 116.049C69.9756 115.675 71.108 115.053 72.0796 114.221C73.0511 113.39 73.8409 112.368 74.3996 111.218L119.983 17.3264C121.008 15.2103 121.195 12.7849 120.506 10.5368C119.817 8.28865 118.304 6.38397 116.27 5.20477L109.433 1.23794Z" fill="#5354D1"/>
<path d="M109.433 1.23794C109.245 1.12971 109.047 1.02619 108.849 0.932073C106.63 -0.143385 104.075 -0.294545 101.744 0.511763C99.4132 1.31807 97.4975 3.01599 96.4171 5.233L57.8876 84.5979L55.6948 82.2451C55.0618 81.5536 54.3252 80.9646 53.5114 80.4993C52.3632 79.8405 47.4788 77.0124 46.6882 76.556C44.7613 75.4412 42.4986 75.0543 40.3108 75.4656C38.123 75.8769 36.1552 77.0591 34.7647 78.7975C33.3742 80.5359 32.6531 82.7153 32.7325 84.94C32.8118 87.1648 33.6863 89.2873 35.1971 90.9222L52.3679 109.519C53.0117 110.217 53.7592 110.813 54.5842 111.283C55.7042 111.919 60.5698 114.742 61.3697 115.203C62.4762 115.844 63.7029 116.25 64.9732 116.395C66.2435 116.541 67.5302 116.423 68.7529 116.049C69.9756 115.675 71.108 115.053 72.0796 114.221C73.0511 113.39 73.8409 112.368 74.3996 111.218L119.983 17.3264C121.008 15.2103 121.195 12.7849 120.506 10.5368C119.817 8.28865 118.304 6.38397 116.27 5.20477L109.433 1.23794Z" fill="#5354D1"/>
<path opacity="0.15" d="M61.3472 115.184C60.5567 114.714 55.7005 111.89 54.5664 111.264C53.7416 110.793 52.9941 110.198 52.3501 109.5L35.1793 90.9032C34.4222 90.077 33.8211 89.1204 33.4053 88.0798L40.2331 92.0184C40.6471 93.0621 41.2519 94.0196 42.0166 94.8418L59.1826 113.438C59.8142 114.124 60.5436 114.712 61.3472 115.184Z" fill="#111111"/>
<path opacity="0.15" d="M105.406 6.31537C104.509 7.12035 103.777 8.09205 103.251 9.17639L63.6201 90.8094L57.8887 84.598L96.4182 5.23308C96.9433 4.14682 97.6772 3.17463 98.5781 2.37207L105.406 6.31537Z" fill="#111111"/>
<path d="M115.681 4.87497C113.462 3.80208 110.907 3.65227 108.577 4.45833C106.247 5.26438 104.332 6.96066 103.249 9.1759L63.6186 90.8089L55.699 82.2258C54.0042 80.5042 51.7059 79.5098 49.2907 79.4531C46.8755 79.3965 44.5331 80.2821 42.7594 81.9224C40.9858 83.5627 39.9202 85.8289 39.7883 88.2412C39.6564 90.6535 40.4685 93.0224 42.0528 94.8463L59.2188 113.448C60.2465 114.559 61.5299 115.403 62.9577 115.907C64.3855 116.41 65.9146 116.557 67.4122 116.336C68.9098 116.114 70.3307 115.53 71.5516 114.635C72.7724 113.74 73.7564 112.56 74.418 111.198L120.001 17.3072C121.075 15.0855 121.224 12.5283 120.414 10.1972C119.604 7.8662 117.902 5.95196 115.681 4.87497Z" fill="#F6F8FA"/>
</svg>
